<svg xmlns="http://www.w3.org/2000/svg" viewBox="0 0 226.65 226.65"><title>donate_icon</title><path d="M0,138.52c1.74-3.86,4.77-5.05,8.9-4.92,7.44.23,14.9.25,22.34,0,7.73-.25,14.21,2,19.05,8.33a11.1,11.1,0,0,0,1.18-.72A45.65,45.65,0,0,1,83.78,131.1c9.34.6,18,3.62,25.15,9.66A25.13,25.13,0,0,0,126.75,147c8.4-.27,16.81,0,25.22-.08,9.64-.07,16.5,4.08,20.26,13.08a6.05,6.05,0,0,0,.71.86c.53-.7,1-1.37,1.5-2,5.67-6.1,11.31-12.24,17.05-18.28,6.61-7,16.15-8.91,23.74-5,11.49,6,15,19.3,7.34,29.79-11,15.12-22.22,30.15-33.86,44.8a41.26,41.26,0,0,1-32.44,16.12c-24.55.38-49.11.1-73.66-.35-10.61-.19-21-2.63-31.2-5.61a3.65,3.65,0,0,0-4.08,1,18.16,18.16,0,0,1-12.77,5.19c-8.63,0-17.26-.14-25.89.08-4.08.11-7-1.2-8.67-4.92Zm54,68.76a144.29,144.29,0,0,0,41.49,6c18.87.07,37.75,0,56.63,0,12,0,21.63-4.77,28.84-14.44,8.32-11.17,16.71-22.29,25.06-33.44a105.73,105.73,0,0,0,6.21-8.59,6.43,6.43,0,0,0-4.8-9.81c-2.67-.37-4.63,1-6.37,2.85-9.23,9.94-18.51,19.85-27.74,29.79-3.94,4.22-8.67,7-14.51,7q-26.31.18-52.64,0a7.93,7.93,0,0,1-4.75-2.3,5.73,5.73,0,0,1-1-6.94,6.32,6.32,0,0,1,6.14-3.91q18.36,0,36.72,0c3.39,0,6.79.08,10.17,0,5.23-.17,8.34-5.27,6-9.66-1.47-2.71-3.9-3.61-6.84-3.6-10.17,0-20.35,0-30.52,0a30.39,30.39,0,0,1-5.69-.68c-5.55-1.09-10.21-3.93-14.56-7.48a32.53,32.53,0,0,0-28.15-6.92c-7.22,1.44-13,5.35-18.14,10.36a5,5,0,0,0-1.4,3.15C54,174.15,54,189.71,54,205.27Zm-40.65,6H32.73a14.71,14.71,0,0,0,2-.07c3.71-.53,6-3.23,6-7.25q0-25.87,0-51.74c0-4.45-2.71-7.25-7.11-7.3-6.33-.07-12.67,0-19,0a7.23,7.23,0,0,0-1.25.24Z" style="fill:#3B3B96"/><path d="M154,0c.9.23,1.79.48,2.7.68,16.75,3.8,26.69,14.56,30.81,30.82,3.52,13.9.22,26.66-7.65,38.42-7,10.4-16,18.82-25.39,27-11,9.58-22.14,19-33.24,28.49-3.17,2.71-6.56,2.82-9.58.2C97.34,113.16,83,100.82,68.8,88.25A90.15,90.15,0,0,1,50,65.3c-9.34-16.5-8-36.79,3.65-51.19A36.83,36.83,0,0,1,77.58.44,6.12,6.12,0,0,0,78.77,0h9.3a2.24,2.24,0,0,0,.74.4,36,36,0,0,1,21.82,11.8c2,2.18,3.8,4.58,5.78,7l1.33-1.82c4.54-6.32,10.05-11.55,17.35-14.5C138.18,1.63,141.5.94,144.71,0ZM116.16,111.93a11.93,11.93,0,0,0,1.18-.81c11.93-10.31,24-20.52,35.76-31A87.9,87.9,0,0,0,169.74,61c6.38-10.24,7.75-21,2.86-32.22-7.21-16.46-27.57-20.62-40.11-8.3a39,39,0,0,0-8.79,13.9c-.46,1.16-.88,2.34-1.38,3.48a6.22,6.22,0,0,1-6.13,3.9,6.37,6.37,0,0,1-5.91-3.93c-2-4.23-3.79-8.65-6.3-12.59-8.19-12.91-24.74-16-36-6.59C57.9,27,55.39,38,58.26,50.4,60.14,58.52,65,65.05,70.55,71.05,84.45,86.11,100.83,98.4,116.16,111.93Z" style="fill:#3B3B96"/><path d="M144.71,0c-3.21.94-6.53,1.63-9.62,2.88-7.3,3-12.81,8.18-17.35,14.5l-1.33,1.82c-2-2.42-3.77-4.82-5.78-7A36,36,0,0,0,88.81.4a2.24,2.24,0,0,1-.74-.4Z" style="fill:#fff"/></svg>