<svg xmlns="http://www.w3.org/2000/svg" xmlns:xlink="http://www.w3.org/1999/xlink" viewBox="0 0 292.49 186"><defs><clipPath id="a"><rect x="214.24" y="60.12" width="57.75" height="93.75" style="fill:none"/></clipPath><clipPath id="b"><rect x="16.81" y="92.95" width="48.75" height="82.5" style="fill:none"/></clipPath><clipPath id="c"><rect x="-6.1" y="147.99" width="94.5" height="39" style="fill:none"/></clipPath><clipPath id="d"><rect x="145.77" y="72.69" width="145.5" height="113.25" style="fill:none"/></clipPath><clipPath id="e"><rect x="0.35" y="0.83" width="22.5" height="18.75" style="fill:none"/></clipPath><clipPath id="f"><polyline points="-156.77 -198.41 1283.23 -198.41 1283.23 611.59 -156.77 611.59" style="fill:none;clip-rule:evenodd"/></clipPath><clipPath id="g"><rect x="95.25" y="50.4" width="58.5" height="93" style="fill:none"/></clipPath><clipPath id="h"><rect x="69.97" y="115" width="114" height="71.25" style="fill:none"/></clipPath><clipPath id="j"><polyline points="-156.77 -29.33 1283.23 -29.33 1283.23 788.17 -156.77 788.17" style="fill:none"/></clipPath><clipPath id="k"><polyline points="-156.77 -29.33 1283.23 -29.33 1283.23 780.67 -156.77 780.67" style="fill:none"/></clipPath></defs><title>how_to_1</title><rect width="291.71" height="185.23" style="fill:#f8f4fc"/><g style="clip-path:url(#a)"><path d="M241.81,92.73c0-.47,0-.84-.44-.89s-.51.27-.58.61a16.57,16.57,0,0,1-.44,2.55c-.41,1.29.07,2.49.19,3.73a.43.43,0,0,0,.52.38.47.47,0,0,0,.46-.54c0-.41-.11-.84-.13-1.25,0-.59-.31-1.17-.08-1.78A14,14,0,0,0,241.81,92.73Zm.71,13.58a11.2,11.2,0,0,0,3.49-.45c.38-.11.77-.22.65-.71s-.51-.42-.9-.32a13.32,13.32,0,0,1-6.52,0c-.4-.1-.77-.14-.88.35s.23.57.59.68A11.94,11.94,0,0,0,242.52,106.31Zm-20.94-10.8a3,3,0,0,0,1.27,2.73,1,1,0,0,0,1,.16,2.06,2.06,0,0,0,.78-2.54c-.27-.4-.57-1-1.15-.65s-.07.74.17,1.11a.66.66,0,0,1-.14.92c-.27.18-.41-.21-.58-.38a1.36,1.36,0,0,1-.32-1.11c.05-.56.13-1.1.19-1.65,0-.32,0-.61-.38-.67s-.58.18-.63.54C221.7,94.56,221.63,95.16,221.58,95.51Zm40.82.17a1.67,1.67,0,0,1-.55,1.43c-.29.31-.43.16-.55-.14s.06-.7.29-1a.52.52,0,0,0,0-.72.45.45,0,0,0-.57-.11,1.61,1.61,0,0,0-.9,1.4,2,2,0,0,0,1,1.84c.57.3,1-.11,1.39-.48a4.15,4.15,0,0,0,.59-4.22.5.5,0,0,0-.58-.29.46.46,0,0,0-.36.54C262.25,94.54,262.33,95.11,262.4,95.68ZM234.28,82.13a14.91,14.91,0,0,0-3.08.35,10.53,10.53,0,0,0-2.29.79.49.49,0,0,0-.3.65.48.48,0,0,0,.64.3,2.83,2.83,0,0,0,.44-.14,11.11,11.11,0,0,1,7.06-.56c.35.1.71.11.83-.33s-.2-.62-.56-.71A9.17,9.17,0,0,0,234.28,82.13Zm18.21,8.32a2.75,2.75,0,0,0-.5-1.78,1.23,1.23,0,0,0-2,0,3.41,3.41,0,0,0-.5,3.08,1.35,1.35,0,0,0,2.37.46A2.88,2.88,0,0,0,252.49,90.45Zm-20,0a3.1,3.1,0,0,0,.43,1.49,1.39,1.39,0,0,0,1.41.78,1.43,1.43,0,0,0,1.21-1.18,3.7,3.7,0,0,0-.52-2.79,1.08,1.08,0,0,0-1.21-.53C233.06,88.37,232.51,89.21,232.52,90.45Zm0-16.53c.68.82,1.26,1.52,1.81,2.25,3.39,4.57,8.19,6.69,13.55,7.7a47.88,47.88,0,0,1,7.28,1.83c2.33.84,3.19,2.52,3.43,4.79a11.79,11.79,0,0,1-.52,4.46c-.11.39-.3.83.17,1s.77-.19,1-.54c.79-1.3,1.56-2.63,2.33-3.95a2,2,0,0,1,2.81-.7,2.82,2.82,0,0,1,1.28,1.84,7.52,7.52,0,0,1-2.27,7.86c-.2.19-.33.3-.64.08a2.39,2.39,0,0,0-3.85,1.19,1.16,1.16,0,0,0-.11.38c0,.38-.22.4-.52.37-.46-.07-.19-.34-.16-.51.22-1,.46-2.06.69-3.08.1-.43.24-.92-.36-1s-.58.4-.66.8a38.29,38.29,0,0,1-1.24,4.82,13.45,13.45,0,0,1-3.3,5.5,29.36,29.36,0,0,1-8.95,6.21,4.49,4.49,0,0,1-3.66,0,29.73,29.73,0,0,1-8.95-6.21c-2.48-2.43-3.49-5.59-4.23-8.86-.11-.51-.22-1-.31-1.56s-.16-.79-.65-.71-.47.54-.38,1c.24,1,.49,2.11.73,3.16,0,.17.3.46-.16.51-.3,0-.42,0-.53-.37A2.52,2.52,0,0,0,223.4,100a1.28,1.28,0,0,0-1,.41c-.34.38-.56.32-.94,0a7.54,7.54,0,0,1-2.14-7.75,2.75,2.75,0,0,1,1.92-2.12,1.06,1.06,0,0,1,1.35.47c.39.62.79,1.26,1.16,1.88a1.6,1.6,0,0,0,.73.68c.27.13.49.33.78.11s.22-.48.18-.73c-.76-3.29.5-6.13,1.92-8.92a.76.76,0,0,1,.07-.13C229.41,80.76,231.44,77.65,232.57,73.92Z" style="fill:#fff"/><path d="M234.72,112.93a31.53,31.53,0,0,0,5.25,3.14,5.72,5.72,0,0,0,5.07,0,27.5,27.5,0,0,0,5.11-3c.22.21.12.43.12.62q-.3,11.27-.64,22.53c-.1,3.24-.5,3.7-3.66,4.38a16.37,16.37,0,0,1-8.61-.44,2.5,2.5,0,0,1-1.88-2.43c-.27-3.91-.32-7.83-.44-11.73C234.91,121.66,234.83,117.39,234.72,112.93Z" style="fill:#fff"/><path d="M223.7,101.07a1.53,1.53,0,0,1,1.46,1.46,1,1,0,0,1-1.11,1,1.39,1.39,0,0,1-1.45-1.45A1,1,0,0,1,223.7,101.07Z" style="fill:#ffe500"/><path d="M261,103.58a1,1,0,0,1-1.13-1,1.52,1.52,0,0,1,1.46-1.48c.61,0,1.07.3,1.1,1A1.39,1.39,0,0,1,261,103.58Z" style="fill:#ffe500"/><path d="M261,103.58a1.38,1.38,0,0,0,1.43-1.53c0-.68-.49-1-1.1-1a1.53,1.53,0,0,0-1.46,1.47A1,1,0,0,0,261,103.58Zm-37.28-2.51a1,1,0,0,0-1.08,1.08,1.38,1.38,0,0,0,1.44,1.44,1,1,0,0,0,1.12-1A1.54,1.54,0,0,0,223.7,101.07Zm11,11.86c.11,4.44.19,8.73.33,13,.13,3.9.18,7.82.44,11.73a2.51,2.51,0,0,0,1.89,2.43,16.22,16.22,0,0,0,8.6.44c3.16-.7,3.55-1.14,3.66-4.38.24-7.51.44-15,.65-22.53,0-.19.09-.41-.13-.62a27.5,27.5,0,0,1-5.11,3,5.7,5.7,0,0,1-5.06,0A28.5,28.5,0,0,1,234.72,112.93Zm-2.15-39c-1.13,3.73-3.16,6.84-5.13,10a.88.88,0,0,0-.07.13c-1.42,2.81-2.69,5.64-1.92,8.92a.64.64,0,0,1-.18.73c-.29.23-.51,0-.78-.11a1.72,1.72,0,0,1-.73-.68c-.37-.63-.77-1.25-1.16-1.87a1.06,1.06,0,0,0-1.35-.48,2.75,2.75,0,0,0-1.92,2.13,7.53,7.53,0,0,0,2.14,7.75c.36.35.58.41.94,0a1.44,1.44,0,0,1,1-.41,2.53,2.53,0,0,1,2.79,2.13c.11.35.22.39.53.36.46-.06.2-.33.16-.51-.24-1.06-.47-2.11-.73-3.16-.09-.39-.17-.85.38-1s.58.34.65.72.2,1,.31,1.55c.76,3.27,1.75,6.43,4.23,8.86a29.66,29.66,0,0,0,8.95,6.21,4.49,4.49,0,0,0,3.66,0,29.18,29.18,0,0,0,8.95-6.21,13.48,13.48,0,0,0,3.3-5.49,38.44,38.44,0,0,0,1.24-4.83c.08-.4.13-.89.66-.79s.46.6.36,1c-.23,1-.47,2-.69,3.08,0,.18-.3.46.16.51.3,0,.5,0,.52-.36a1.66,1.66,0,0,1,.11-.38,2.39,2.39,0,0,1,3.85-1.19c.3.22.42.11.64-.08a7.56,7.56,0,0,0,2.27-7.86,2.83,2.83,0,0,0-1.28-1.85,2,2,0,0,0-2.81.7c-.77,1.32-1.54,2.64-2.33,4-.2.35-.47.79-1,.54s-.28-.67-.17-1a11.79,11.79,0,0,0,.52-4.46c-.24-2.27-1.09-4-3.43-4.8a47.26,47.26,0,0,0-7.28-1.82c-5.36-1-10.16-3.13-13.55-7.7C233.83,75.44,233.25,74.76,232.57,73.92ZM272,138v3.81c-.35.29-.25.7-.3,1.07-.54,3.78-2.31,6.78-5.74,8.46A18.21,18.21,0,0,1,254.11,153c-2.64-.52-5.24-1.33-8-1.16a97.4,97.4,0,0,0-10.93,1,19.79,19.79,0,0,1-12.14-1.2c-4.13-1.9-7.18-4.74-8.38-9.33a21.69,21.69,0,0,1-.41-5.27c.07-3.83,1.39-7.34,2.82-10.8.53-1.28,1-2.6,1.44-3.92a151.81,151.81,0,0,0,3.94-17.26c.09-.51.14-.94-.33-1.32a1.66,1.66,0,0,1-.52-1.2,1.86,1.86,0,0,0-.71-1.26,8.33,8.33,0,0,1-2.86-7.44c.15-1.69.61-3.24,2.26-4.08.43-.23.24-.53.16-.81a24.48,24.48,0,0,1,.71-13.9c1.25-3.6,3.63-6.38,6.33-9a20.89,20.89,0,0,1,11.73-5.54,7.91,7.91,0,0,0,2.72-.44h3.62c.38.36.86.23,1.3.3a16.87,16.87,0,0,1,9,3.86,24.42,24.42,0,0,1,7.47,12.51,33.35,33.35,0,0,1,1,12.19c0,.37,0,.64.38.83a3.76,3.76,0,0,1,2.14,3c.63,3.19,0,6-2.42,8.33a2.71,2.71,0,0,0-1,1.78,1.81,1.81,0,0,1-.8,1.32c-.32.21-.32.43-.24.75,1.43,5.59,2.67,11.24,4.47,16.73,1.38,4.26,3.14,8.4,4.35,12.72C271.45,135.55,271.7,136.81,272,138Z"/><path d="M232.52,90.45c0-1.26.54-2.08,1.32-2.23a1.08,1.08,0,0,1,1.21.53,3.68,3.68,0,0,1,.52,2.79,1.41,1.41,0,0,1-1.21,1.18,1.39,1.39,0,0,1-1.41-.78A2.92,2.92,0,0,1,232.52,90.45Z"/><path d="M252.49,90.45a2.85,2.85,0,0,1-.61,1.76,1.36,1.36,0,0,1-2.38-.46,3.48,3.48,0,0,1,.51-3.08,1.23,1.23,0,0,1,2,0A2.64,2.64,0,0,1,252.49,90.45Z"/><path d="M234.28,82.13a8.87,8.87,0,0,1,2.74.36c.34.1.68.27.56.72s-.47.42-.83.33a11.18,11.18,0,0,0-7.06.55,3.81,3.81,0,0,1-.44.15.51.51,0,0,1-.64-.3.49.49,0,0,1,.3-.65,9.73,9.73,0,0,1,2.29-.8A14.26,14.26,0,0,1,234.28,82.13Z"/><path d="M262.4,95.68c-.07-.57-.15-1.14-.21-1.73a.5.5,0,0,1,.36-.54.48.48,0,0,1,.58.29,4.15,4.15,0,0,1-.59,4.22c-.38.37-.82.77-1.39.48a2,2,0,0,1-1-1.84,1.6,1.6,0,0,1,.9-1.4.45.45,0,0,1,.57.11.52.52,0,0,1,0,.72c-.25.28-.48.55-.29,1s.26.45.55.14A1.66,1.66,0,0,0,262.4,95.68Z"/><path d="M221.58,95.51c0-.35.12-1,.22-1.56.06-.34.24-.6.63-.54s.41.37.38.67c-.07.56-.13,1.1-.19,1.65a1.34,1.34,0,0,0,.31,1.11c.16.18.32.58.58.38a.63.63,0,0,0,.14-.92c-.23-.35-.75-.74-.17-1.11s.88.26,1.15.65a2,2,0,0,1-.77,2.54,1,1,0,0,1-1-.15A2.87,2.87,0,0,1,221.58,95.51Z"/><path d="M242.52,106.31a11.09,11.09,0,0,1-3.57-.46c-.36-.12-.69-.24-.59-.69s.48-.44.88-.35a13.32,13.32,0,0,0,6.52,0c.39-.09.79-.15.9.32s-.27.6-.65.72A10.92,10.92,0,0,1,242.52,106.31Z"/><path d="M241.81,92.73a15.2,15.2,0,0,1-.5,2.83c-.22.62.06,1.19.08,1.78,0,.41.11.84.13,1.25a.48.48,0,0,1-.46.54.46.46,0,0,1-.52-.38c-.12-1.24-.6-2.45-.19-3.73a19.26,19.26,0,0,0,.44-2.56c.05-.33.18-.65.58-.6S241.85,92.26,241.81,92.73Z"/></g><g style="clip-path:url(#b)"><path d="M61,134.07a1.66,1.66,0,0,1-2.25.58,1.86,1.86,0,0,1-.35-2.27,3.46,3.46,0,0,1,.62-.7.47.47,0,0,1,.76,0c.21.25.12.5-.1.72s-.53.44-.53.84c0,.23,0,.51.26.61a.56.56,0,0,0,.66-.2,1.85,1.85,0,0,0,.47-1.56c-.1-.85-.2-1.69-.32-2.54-.06-.37-.06-.74.38-.81s.55.29.6.66.09.53.12.8c.08.6.13,1.21.21,1.82A3,3,0,0,1,61,134.07Zm-9.35-15.6a10.74,10.74,0,0,0-2.86-.85,10.36,10.36,0,0,0-3.42.26c-.39.09-.79.14-.86-.35s.32-.53.66-.62a9.87,9.87,0,0,1,6.72.59c.44.21.57.34.59.63C52.4,118.57,52.1,118.63,51.69,118.47Zm-3.08,8a1,1,0,0,1-.92.61.88.88,0,0,1-.88-.53,3.52,3.52,0,0,1-.15-2.84,1.11,1.11,0,0,1,1.16-.73c.51,0,.69.37.85.78a5.77,5.77,0,0,1,.22,1.33A5.92,5.92,0,0,1,48.61,126.43Zm-3.22,14a11,11,0,0,1-3.83,1.08,8.59,8.59,0,0,1-5.14-1.46c-.29-.19-.6-.42-.35-.82s.56-.24.84,0c2.64,1.8,5.35,1.58,8.11.33.38-.17.91-.64,1.17,0S45.77,140.3,45.39,140.46ZM35.57,117.8c-.06.29-.29.36-.62.33-.1,0-.27,0-.44-.1a6.36,6.36,0,0,0-4.56.31l-.8.35c-.3.12-.61.19-.77-.14s0-.59.35-.75a7.89,7.89,0,0,1,6.3-.64C35.34,117.27,35.64,117.37,35.57,117.8Zm-1.48,9.09a1.07,1.07,0,0,1-1,.78,1,1,0,0,1-1-.9,4.93,4.93,0,0,1,0-2.26,1.19,1.19,0,0,1,1.07-1c.48-.06,1,.57,1.1,1.17,0,.27,0,.55,0,.81A3.74,3.74,0,0,1,34.09,126.89Zm5.12,3.39a4.2,4.2,0,0,0,.35-2.46c0-.36,0-.68,0-1a.49.49,0,0,1,.42-.59c.33,0,.5.19.53.49a5.84,5.84,0,0,1-.06,3,5.66,5.66,0,0,0-.1,4.26c.12.36.22.77-.28.91s-.59-.28-.67-.66c-.12-.53-.24-1.05-.37-1.58A3.36,3.36,0,0,1,39.21,130.28Zm-15.93,4.35a1.85,1.85,0,0,1-2.7-.63,4,4,0,0,1-.43-2.17c.09-.64.19-1.53.33-2.41,0-.3.19-.61.55-.56s.47.37.43.72a20,20,0,0,0-.3,2.54,2.78,2.78,0,0,0,.2,1.22c.2.5.63.82,1.08.6s.37-.81.16-1.23c-.12-.24-.36-.38-.54-.59a.43.43,0,0,1,0-.6.45.45,0,0,1,.64-.12A2.26,2.26,0,0,1,23.28,134.63ZM63,127.77c-.8-1.79-2.63-1.86-3.77-.28-.34.47-.59,1-.89,1.53-.39.69-.49,1.56-1.36,1.94-.22.1-.37.4-.67.29s-.4-.45-.4-.78a43.9,43.9,0,0,0-.69-8.25c-.22-1.22-.18-2.54-.91-3.59a4.83,4.83,0,0,1-.88-3.32,4.84,4.84,0,0,0-.87-3.11,9.17,9.17,0,0,0-5.78-4.31.4.4,0,0,0-.52.18,5.94,5.94,0,0,1-3.05,2.16c-2.68,1-5.37,1.92-8,3.06-2.22.95-4.53,1.66-6.69,2.76a6.82,6.82,0,0,0-3.17,3,12.35,12.35,0,0,0-1.67,7.58,10.31,10.31,0,0,1,0,1.25c0,.26,0,.5-.31.59a.58.58,0,0,1-.63-.28,5.31,5.31,0,0,0-.91-1,1.62,1.62,0,0,0-2.75.57,7.22,7.22,0,0,0-.63,1.94c-1,4.24,1.11,8,5.12,9.16a10.3,10.3,0,0,0,2.81.39,1.34,1.34,0,0,1,1.31.86,31.59,31.59,0,0,0,2.51,4.47,13.44,13.44,0,0,0,10.47,5.8c4.74-.2,8.33-1.77,10.87-5.42A31.9,31.9,0,0,0,54,140.52a1.73,1.73,0,0,1,1.61-1.14,11.16,11.16,0,0,0,1.81-.28C64.21,137.6,65,132.21,63,127.77Z" style="fill:#fff"/><path d="M33.94,149.22c0,2.79,0,5.52,0,8.26.09,4.49.25,9,.35,13.5a1.79,1.79,0,0,0,.85,1.51c2.27,1.74,4.89,1.94,7.58,1.79a8.19,8.19,0,0,0,3.6-1.14,2.33,2.33,0,0,0,1.3-2.12c.11-5.73.25-11.44.39-17.17,0-1.46,0-2.91,0-4.39A14,14,0,0,1,33.94,149.22Z" style="fill:#fff"/><path d="M60.2,113a10.39,10.39,0,0,0-2.27-5.54c-.75-.81-.72-.81-1.56-.17a4,4,0,0,1-1,.51c-.59.24-1.22.38-1.81.62a2.92,2.92,0,0,1-2.61-.06.32.32,0,0,0-.43,0,1.42,1.42,0,0,1,.28.2l.27.26c2.09,2,3.81,4.23,3.39,7.42a2.06,2.06,0,0,0,.54,1.48,4.83,4.83,0,0,1,.85,2q.27,1.41.48,2.82a45.13,45.13,0,0,1,.66,6.7c.33-.47.56-1,.83-1.44a4.26,4.26,0,0,1,1.65-1.91A.92.92,0,0,0,60,125c.07-1.37.2-2.73.25-4.1C60.35,118.25,60.69,115.64,60.2,113Z" style="fill:#fdfdf3"/><path d="M47.48,106.87A26.47,26.47,0,0,1,50,108,3,3,0,0,0,47.48,106.87Z" style="fill:#fdfdf3"/><path d="M57.42,139.1a11.51,11.51,0,0,1-1.81.28A1.76,1.76,0,0,0,54,140.52a33.8,33.8,0,0,1-2.44,4.35c-2.54,3.66-6.13,5.22-10.87,5.42a13.44,13.44,0,0,1-10.47-5.8A31.59,31.59,0,0,1,27.71,140a1.32,1.32,0,0,0-1.31-.86,10.2,10.2,0,0,1-2.81-.39c-4-1.2-6.09-4.92-5.12-9.16a7.73,7.73,0,0,1,.63-1.94,1.62,1.62,0,0,1,2.75-.57,5.31,5.31,0,0,1,.91,1,.61.61,0,0,0,.63.28c.31-.09.33-.33.31-.59a10.44,10.44,0,0,0,0-1.25A12.58,12.58,0,0,1,25.35,119a6.82,6.82,0,0,1,3.16-3c2.16-1.1,4.48-1.79,6.69-2.76,2.63-1.14,5.33-2,8-3a5.87,5.87,0,0,0,3-2.16c.13-.21.25-.25.53-.18a9.2,9.2,0,0,1,5.78,4.3,4.89,4.89,0,0,1,.87,3.12,4.83,4.83,0,0,0,.88,3.32c.73,1.06.68,2.38.9,3.58a42.4,42.4,0,0,1,.69,8.26c0,.32,0,.66.4.78s.46-.19.68-.3c.86-.38,1-1.24,1.36-1.93a14.45,14.45,0,0,1,.88-1.53c1.14-1.59,3-1.5,3.77.28C65,132.21,64.21,137.6,57.42,139.1ZM48,153.85c-.12,5.73-.28,11.44-.39,17.17a2.33,2.33,0,0,1-1.3,2.12,7.94,7.94,0,0,1-3.6,1.14c-2.69.15-5.32-.05-7.58-1.79a1.89,1.89,0,0,1-.85-1.51c-.1-4.5-.26-9-.35-13.5-.06-2.74,0-5.47,0-8.26a14.05,14.05,0,0,0,14.09.24C48,150.94,48.06,152.39,48,153.85ZM50,108a25.41,25.41,0,0,0-2.53-1.11A3,3,0,0,1,50,108Zm1,.38a2.88,2.88,0,0,0,2.62.06c.58-.23,1.2-.39,1.8-.61a4.31,4.31,0,0,0,1-.52c.85-.63.81-.63,1.55.18A10.37,10.37,0,0,1,60.22,113c.48,2.61.14,5.21.07,7.83,0,1.36-.18,2.73-.25,4.1a.91.91,0,0,1-.51.86,4.41,4.41,0,0,0-1.66,1.91,14.77,14.77,0,0,1-.82,1.44,46.93,46.93,0,0,0-.66-6.7c-.15-.94-.31-1.88-.49-2.82a4.79,4.79,0,0,0-.85-2,2.14,2.14,0,0,1-.54-1.48c.41-3.19-1.29-5.4-3.39-7.42l-.26-.27-.28-.19A.44.44,0,0,1,51,108.36ZM64.69,129.9a8.62,8.62,0,0,0-1.19-3.2,2.46,2.46,0,0,0-1.9-1.21c-.53,0-.5-.26-.47-.64.23-2.76.36-5.51.44-8.29a23.06,23.06,0,0,0-.65-5.67A9.33,9.33,0,0,0,58.09,106a2.54,2.54,0,0,1-.82-1.84,9.37,9.37,0,0,0-5-8,26,26,0,0,0-4.76-2.06,22.34,22.34,0,0,0-5.75-1c-.13,0-.31.06-.37-.13H40a15.45,15.45,0,0,1-2.7.41A27.78,27.78,0,0,0,27.36,97c-5,3-7.72,7.49-8.85,13.14-1,5-.31,9.82.69,14.69a1.45,1.45,0,0,1-.43,1.61,5.76,5.76,0,0,0-1.32,3.28,8.34,8.34,0,0,0,2.73,8.34,8.92,8.92,0,0,0,5.75,2,1.1,1.1,0,0,1,1.09.74,34.11,34.11,0,0,0,2.58,4.51,10.51,10.51,0,0,0,2.73,2.83,1,1,0,0,1,.44.84c.18,7.35.29,14.69.56,22a2.59,2.59,0,0,0,1.1,2.12,10,10,0,0,0,5.47,2.07c.17,0,.41-.1.5.16h2.05c.71-.15,1.41-.25,2.08-.46,1.4-.44,2.81-.91,3.66-2.26a2.36,2.36,0,0,0,.42-1.29c.15-7.35.33-14.68.47-22a1.11,1.11,0,0,1,.49-1,13.47,13.47,0,0,0,3.43-4,32.1,32.1,0,0,0,1.73-3.22,1.43,1.43,0,0,1,1.32-.92,11.48,11.48,0,0,0,3.68-.9C63.83,137.6,65.56,134.28,64.69,129.9Z"/><path d="M45,139.57c-2.77,1.25-5.49,1.47-8.11-.34-.28-.19-.62-.31-.84,0s.06.62.35.83a8.73,8.73,0,0,0,5.14,1.45,11,11,0,0,0,3.83-1.07c.39-.18,1.07-.25.82-.88S45.4,139.39,45,139.57Z"/><path d="M22.66,131.39a.47.47,0,0,0-.64.11.45.45,0,0,0,0,.61,3.65,3.65,0,0,1,.54.58c.21.43.34,1-.16,1.24s-.89-.11-1.08-.61a2.78,2.78,0,0,1-.2-1.21,24,24,0,0,1,.3-2.55c.06-.35,0-.66-.43-.72s-.51.25-.55.56c-.14.9-.24,1.79-.33,2.41a3.87,3.87,0,0,0,.43,2.18,1.85,1.85,0,0,0,2.7.63A2.26,2.26,0,0,0,22.66,131.39Z"/><path d="M61.36,130.18c0-.26-.09-.53-.12-.79s-.14-.74-.6-.66-.44.44-.38.8c.12.86.22,1.69.32,2.55a1.84,1.84,0,0,1-.47,1.55.56.56,0,0,1-.66.21c-.27-.1-.26-.38-.26-.62s.28-.6.53-.84a.49.49,0,0,0,.1-.72c-.23-.29-.53-.2-.76,0a3,3,0,0,0-.62.71,1.87,1.87,0,0,0,.35,2.26,1.67,1.67,0,0,0,2.25-.57,2.92,2.92,0,0,0,.54-2.09C61.51,131.39,61.44,130.78,61.36,130.18Z"/><path d="M39.36,134.21c.08.38.17.79.67.66s.4-.55.28-.91a5.76,5.76,0,0,1,.1-4.26,5.85,5.85,0,0,0,.06-3c0-.3-.2-.52-.53-.49a.49.49,0,0,0-.42.59c0,.32,0,.63,0,1a4.06,4.06,0,0,1-.35,2.46,3.42,3.42,0,0,0-.22,2.35C39.12,133.16,39.24,133.69,39.36,134.21Z"/><path d="M47.81,122.94a1.11,1.11,0,0,0-1.16.73,3.56,3.56,0,0,0,.14,2.84.9.9,0,0,0,.88.53,1,1,0,0,0,.93-.61,4.7,4.7,0,0,0,.26-1.39,5.77,5.77,0,0,0-.22-1.34C48.48,123.32,48.32,122.94,47.81,122.94Z"/><path d="M33.12,123.47a1.17,1.17,0,0,0-1.07,1,5.07,5.07,0,0,0,0,2.26,1,1,0,0,0,1,.9,1.06,1.06,0,0,0,1-.78,3.91,3.91,0,0,0,.18-1.44c0-.26,0-.54,0-.81C34.16,124,33.61,123.39,33.12,123.47Z"/><path d="M51.91,117.5a9.86,9.86,0,0,0-6.72-.59c-.35.09-.73.18-.66.62s.49.44.87.35a10.32,10.32,0,0,1,3.42-.26,10.25,10.25,0,0,1,2.86.85c.41.18.72.1.81-.34C52.5,117.84,52.35,117.71,51.91,117.5Z"/><path d="M35,117.15a8,8,0,0,0-6.3.63c-.32.16-.54.38-.35.75s.49.26.77.15l.8-.36a6.36,6.36,0,0,1,4.56-.3c.17,0,.34.07.44.1.34,0,.58-.05.62-.34S35.34,117.27,35,117.15Z"/></g><g style="clip-path:url(#c)"><path d="M76.58,183.2s9.6,57.12,8.62,61.22-.62,5.63-.62,5.63,3.2,8.3,1.24,10-11,3.13-12.18,1.88S71.86,252.1,71,250.76a19.17,19.17,0,0,1-1.52-3.21s.8-45.08,1.78-48.56,1.16-14.28,2.31-14.9A10.14,10.14,0,0,1,76.58,183.2Z" style="fill:#ffe500"/><path d="M69.91,247.37a11.71,11.71,0,0,0,1.42,3,22.68,22.68,0,0,1,1.25,5.18c.44,2.41.88,5.35,1.42,6,.8,1,9.51-.27,11.56-2,1.33-1.08-.18-6.34-1.34-9.46,0-.09-.44-1.7.62-5.9.8-3.12-5.24-40.78-8.53-60.6a10.68,10.68,0,0,0-2.49.72c-.44.44-.89,4.46-1.16,7.4a50.53,50.53,0,0,1-1,7.23C70.71,202.39,69.91,245.23,69.91,247.37Zm6,15.44c-1.33,0-2.31-.18-2.66-.63-.63-.71-1.07-3-1.6-6.42a23.48,23.48,0,0,0-1.07-4.82,18.09,18.09,0,0,1-1.51-3.3v-.18c0-1.88.8-45.16,1.78-48.64a49.31,49.31,0,0,0,.89-7.06c.53-5.44.8-7.67,1.6-8.12a11.73,11.73,0,0,1,3.2-.89l.44-.09.09.45c.36,2.32,9.6,57.3,8.62,61.4-1,3.84-.62,5.36-.62,5.36.36.8,3.29,8.57,1.07,10.44C84.49,261.56,79.24,262.81,76,262.81Z"/><path d="M4.12,184.18S-4,241.92-3,246s.62,5.62.62,5.62-3.2,8.3-1.24,10,11,3.12,12.18,1.87,1.78-9.81,2.67-11.15a19.53,19.53,0,0,0,1.51-3.22S12,204.08,11,200.6s-1.16-14.28-2.31-14.9A23.31,23.31,0,0,0,4.12,184.18Z" style="fill:#ffe500"/><path d="M4.48,184.71c-2.85,20.09-7.82,58-7,61.14,1.06,4.11.62,5.71.62,5.8-1.25,3.13-2.67,8.48-1.34,9.55,2.05,1.7,10.67,2.86,11.56,2,.54-.63,1.07-3.57,1.42-6s.8-4.47,1.25-5.18a16.34,16.34,0,0,0,1.42-3c0-2.15-.8-45-1.78-48.38a50.74,50.74,0,0,1-1-7.23c-.27-2.94-.63-7-1.16-7.41A31,31,0,0,0,4.48,184.71Zm1.69,79.62c-3.29,0-8.54-1.16-10-2.5-2.22-1.88.71-9.55,1.07-10.45,0,0,.27-1.51-.62-5.26-1.07-4.11,6.75-59.71,7.11-62l.09-.45.44.09a28.86,28.86,0,0,1,4.71,1.52c.8.45,1.07,2.68,1.6,8.12a66.82,66.82,0,0,0,.89,7c1,3.48,1.78,46.77,1.78,48.64v.18a13.77,13.77,0,0,1-1.51,3.31,25,25,0,0,0-1.07,4.81c-.53,3.4-1,5.63-1.6,6.43A5.45,5.45,0,0,1,6.17,264.33Z"/><path d="M25,160.88s-1,.72-4.26,3.57-4.45,8.39-8.36,11.61-6.13,4.64-8,6.69c-1.33,1.43,2.93,8,3.47,9.37C13.46,206,11.32,222.2,12,236.84c.17,5.26.44,10.44.62,15.71v.26s4.27.36,5.6,0,13.51,1.34,16.71.18,10-2.05,12.45-1.25a53,53,0,0,0,15.38,1.7C68.13,253,69.2,252,69.2,252S69,208.9,72.49,197.57s5.33-14,3.73-15.44S67.6,175.25,64,168s-4.89-6.07-7.11-6S25,160.88,25,160.88Z" style="fill:#fff"/><path d="M44.84,251a12,12,0,0,1,2.76.27A50.49,50.49,0,0,0,62.8,253a21.1,21.1,0,0,0,6.13-1.16c0-3.93,0-43.38,3.29-54.35,1.07-3.66,2-6.43,2.76-8.48,1.51-4.46,2-5.8,1.06-6.52-.17-.18-.53-.44-.89-.8-2.49-2.14-8.26-7.05-11.55-13.48-3.11-6.16-4.27-6-5.87-5.8-.27,0-.53.09-.8.09-2.13.18-29.16-1-31.74-1.16-.35.27-1.51,1.16-4.09,3.48A20.22,20.22,0,0,0,17.55,170c-1.25,2.32-2.58,4.73-4.71,6.42-1.43,1.16-2.58,2.15-3.65,3A39.32,39.32,0,0,0,4.92,183c-.8.8,1.69,5.44,2.67,7.14.45.8.71,1.34.89,1.69,4.18,10.45,4.09,22.14,4,33.38,0,3.84-.09,7.77.09,11.52l.62,15.62a24.4,24.4,0,0,0,5.07,0c.53-.18,2.13-.09,5.07.18,4.09.26,9.69.71,11.64,0A35,35,0,0,1,44.84,251ZM60.4,254a54.12,54.12,0,0,1-13.16-1.78c-2.22-.72-9,.18-12.18,1.25-2.13.71-7.64.35-12,0a34.67,34.67,0,0,0-4.8-.18c-1.42.36-5.6,0-5.78,0h-.36L12,252l-.63-15.17c-.17-3.75-.09-7.68-.09-11.52.09-11.24.18-22.85-3.91-33-.09-.27-.44-.89-.8-1.61-1.95-3.66-3.64-7-2.49-8.21a39.65,39.65,0,0,1,4.36-3.75c1.07-.8,2.22-1.78,3.64-2.94,2.05-1.7,3.29-4,4.54-6.25a21.72,21.72,0,0,1,3.73-5.35c3.2-2.86,4.27-3.57,4.27-3.66l.09-.09h.18c.26,0,29.6,1.25,31.82,1.16.27,0,.54-.09.71-.09,2.14-.27,3.56-.09,6.85,6.25S73.2,178.91,75.6,181c.35.35.71.62.89.8,1.33,1.25.71,2.94-.8,7.5-.62,2.14-1.6,4.82-2.67,8.39-3.38,11.15-3.2,53.9-3.2,54.35v.18l-.18.18c-.09.09-1.33,1-6.75,1.51C62.09,253.88,61.29,254,60.4,254Z"/><path d="M36,150.53s-2.85-1.34-4.27,2.14-2.66,5-4.53,5.8-4,1.7-2.22,4.56,5.69,6.24,12.62,7,17.87-.9,21.34-6.61c0,0,.71-.8-1.87-3.21s-6.14-3.75-7.56-7.85-1.6-1.79-4-1.34S38.53,151.78,36,150.53Z" style="fill:#fff"/><path d="M34.62,150.71a1.57,1.57,0,0,0-.89.18,2.86,2.86,0,0,0-1.6,1.87c-1.34,3.48-2.76,5.18-4.8,6.07-1.07.45-2.32,1-2.58,1.79a2.72,2.72,0,0,0,.53,2.14c1.07,1.78,4.45,6,12.36,6.69,6.22.63,17.42-.62,20.89-6.34,0,0,.18-.71-1.78-2.58a17.06,17.06,0,0,0-2.4-1.88c-2-1.52-4.27-3.12-5.33-6.16-.54-1.6-.89-2.05-1.07-2.14s-.35.18-.62.27a6.23,6.23,0,0,1-1.87.8c-2.4.45-7.11.81-9.78-.44C35.68,150.89,35.24,150.71,34.62,150.71Zm6,19.81c-1.15,0-2.13-.09-3.11-.18-8.27-.8-11.82-5.26-13-7.14a3.32,3.32,0,0,1-.62-2.85c.44-1.25,1.78-1.88,3-2.32,1.87-.81,3.11-2.32,4.27-5.54a4,4,0,0,1,2.22-2.41,3.26,3.26,0,0,1,2.67.09c2.49,1.25,7.2.81,9.24.45A5.38,5.38,0,0,0,47,150c.45-.26.89-.53,1.34-.35s1,.89,1.6,2.68c1,2.76,3,4.28,5,5.71.81.62,1.69,1.25,2.49,2,2.67,2.5,2.14,3.57,2,3.84C56.13,168.83,47.24,170.52,40.66,170.52Z"/><path d="M40.48,163.65a2.59,2.59,0,0,1-1.42-.36c-1.87-1-2.31-3.83-2.75-6.33a12.86,12.86,0,0,0-.45-2.15c-.27-1-.44-1.78-.53-2.32-.45-1.87-.45-1.87-.27-2.14l.71.54a.28.28,0,0,0,.09-.18,11.08,11.08,0,0,0,.36,1.61,20,20,0,0,1,.53,2.32c.18.62.27,1.42.44,2.23.36,2.32.8,4.91,2.23,5.71.8.45,1.77.27,3.11-.27,4.89-2.23,4.89-11.07,4.71-12.32l.89-.08c.18,1.6.09,10.79-5.25,13.2A6.49,6.49,0,0,1,40.48,163.65Z"/><path d="M20,252.9c0-.35-3.56-39.8-4.09-53.91-.54-13.92-7.2-19.36-7.29-19.45l.53-.72c.27.27,7,5.8,7.65,20.08.62,14.11,4.09,53.47,4.09,53.91Z"/><path d="M73.2,179.54s-7.56,6.07-8.18,20.35-2.22,53.46-2.22,53.46" style="fill:#fff"/><path d="M63.24,253.44h-.89S64,214.26,64.57,200s8-20.44,8.36-20.71l.53.71c-.08.09-7.37,6.16-8,20.09C64.93,214.17,63.24,253.44,63.24,253.44Z"/><path d="M24.93,163.47a.47.47,0,0,1-.36-.18c-.18-.18-.09-.44.09-.62a6.18,6.18,0,0,1,1.15-.63c1.87-1,5.69-2.94,6.23-5.26a14.75,14.75,0,0,1,2.84-5.62.44.44,0,0,1,.62.62,13.62,13.62,0,0,0-2.66,5.27c-.62,2.67-4.54,4.73-6.67,5.8-.44.26-.89.44-1.07.53C25.1,163.47,25,163.47,24.93,163.47Z"/><path d="M27.15,166.15a.47.47,0,0,1-.36-.18.43.43,0,0,1,.09-.62,3.27,3.27,0,0,1,1-.54c1.69-.89,4.8-2.59,5.33-4.91A20,20,0,0,1,35.77,154c.18-.18.45-.27.62-.09a.44.44,0,0,1,.09.63A18.74,18.74,0,0,0,34,160.17c-.62,2.68-4,4.46-5.77,5.44a3.63,3.63,0,0,0-.89.54Z"/><path d="M30.53,167.85a.47.47,0,0,1-.36-.18.44.44,0,0,1,.09-.63,5.32,5.32,0,0,1,.8-.44,5.39,5.39,0,0,0,3.38-3.66,11.78,11.78,0,0,1,2-4.47.45.45,0,0,1,.63.63,8.92,8.92,0,0,0-1.78,4,6.45,6.45,0,0,1-3.82,4.29,5.31,5.31,0,0,1-.72.36C30.7,167.85,30.62,167.85,30.53,167.85Z"/><path d="M49.11,169.45a.33.33,0,0,1-.27-.09c-.09-.09-.27-.18-.36-.27-.8-.53-1.77-1.07-2.4-3.92-.62-2.68-1.51-3.13-1.6-3.13a.37.37,0,0,1-.26-.53.55.55,0,0,1,.53-.36c.27.09,1.42.54,2.13,3.75.63,2.5,1.34,2.95,2,3.39.18.09.27.18.44.27s.27.45.09.62S49.28,169.45,49.11,169.45Z"/><path d="M52.57,168.56a.31.31,0,0,1-.26-.09c-.18-.09-.27-.18-.45-.27a6.06,6.06,0,0,1-3.11-4.28,11.5,11.5,0,0,0-2.49-4.82.44.44,0,0,1,0-.63.44.44,0,0,1,.62,0,12.43,12.43,0,0,1,2.76,5.27,5,5,0,0,0,2.67,3.66c.17.09.35.27.53.36a.43.43,0,0,1,.09.62A.68.68,0,0,1,52.57,168.56Z"/><path d="M55.24,167.31a.33.33,0,0,1-.27-.09c-.09-.09-.26-.18-.35-.27-1.16-.8-3.65-2.5-4.27-5.35a16.14,16.14,0,0,0-2.93-5.89.44.44,0,0,1,.09-.63c.17-.18.44-.09.62.09a19.09,19.09,0,0,1,3,6.25c.62,2.59,2.85,4.1,3.91,4.82.18.09.27.18.45.27a.44.44,0,0,1,.09.62A.47.47,0,0,1,55.24,167.31Z"/><path d="M57.73,165.44a.33.33,0,0,1-.27-.09,1.18,1.18,0,0,0-.35-.27,18.46,18.46,0,0,1-4.89-4.82c-1.69-2.68-4.45-6.87-4.45-7a.45.45,0,0,1,.09-.63.43.43,0,0,1,.62.09s2.76,4.2,4.45,7a16.63,16.63,0,0,0,4.62,4.56,1.08,1.08,0,0,1,.36.26.45.45,0,0,1,.09.63A.29.29,0,0,1,57.73,165.44Z"/><path d="M35.24,169.45a.33.33,0,0,1-.27-.09c-.18-.18-.27-.44-.09-.62a6.07,6.07,0,0,1,.71-.72,3.78,3.78,0,0,0,1.34-2.32c.53-3,.89-3.12,1.15-3.21a.4.4,0,0,1,.45.09.42.42,0,0,1,0,.62l-.09.09a13,13,0,0,0-.62,2.59,4.61,4.61,0,0,1-1.6,2.86,4.13,4.13,0,0,0-.63.62A.51.51,0,0,1,35.24,169.45Z"/><path d="M45.28,169.45a.66.66,0,0,1-.35-.18,3.34,3.34,0,0,0-.54-.53,3.8,3.8,0,0,1-1.15-2.5l-.53-3.13a.48.48,0,0,1,.35-.53.48.48,0,0,1,.53.36l.54,3.12a3,3,0,0,0,1,2.05,4.48,4.48,0,0,1,.53.63c.18.18.09.44-.09.62A.33.33,0,0,1,45.28,169.45Z"/><path d="M40,170.25a.36.36,0,0,1-.27-.08.46.46,0,0,1-.09-.63.7.7,0,0,1,.36-.36c.44-.53.62-.71.27-2.23a8.21,8.21,0,0,1-.18-3.21.45.45,0,1,1,.89.18,6.48,6.48,0,0,0,.18,2.85c.53,1.88.17,2.32-.45,3a1.24,1.24,0,0,0-.27.36A1,1,0,0,1,40,170.25Z"/></g><g style="clip-path:url(#d)"><path d="M303.22,259.83c.06-.14.17-.35.22-.45A1.88,1.88,0,0,1,303.22,259.83ZM231.59,132.51l.13-3,.13-.07Zm69.1,103.85a17,17,0,0,1-4.78,1.7l-.69.12.69-.12a22.33,22.33,0,0,0,4.77-1.7c2.9-1.32,3.57-2.75,2.9-8.07l-.09,0a11.62,11.62,0,0,0,.93-1.1,12.72,12.72,0,0,0,2.11-9.27,24.09,24.09,0,0,0-.77-3c-3.36-9.07-19.5-47.25-21.14-51.21-.08-.19-.11-.29-.06-.15-1.18-2.9-8.5-21.37-12.15-25.51-4-4.55-8.53-5.94-12-6.86-2.81-.75-4.63-1.52-7.21-2.17-.16-1.6-.79-3.21-.73-6,.05-1.85-1.22-1.72-5.69-1.31a35.67,35.67,0,0,0-14.65,4.47l-.25,3.07c-6.34,1.69-14.23,0-18-.49a105.59,105.59,0,0,0-14-.71,7.28,7.28,0,0,0-.81-4.38c-2.2-3-8-4.5-10.29-8.78s-8.39-15.2-10.74-19.22c-1.87-3.18-2.62-3.34-3.5-2.73l-3-5-.91.68-.13.1a38.1,38.1,0,0,1-2.08-3.64c-.09-.16-.18-.32-.26-.48-1.63-3.18-2.83-8.44-4.37-7.78s.08,5.74.4,6.85l-.54-.06c-3.7-.38-7.33-1.54-8.87-1.38l-.55,0c-.48-.69-1.27-2-1.71-2.73-1.34-2.27-2.24-5-2.63-5-.63,0-.84.69-.91,1.32-.4-1.49-.6-2.81-1.36-2.63-1.27.31-.47,4.08.46,6.63s1.47,5.44,2.7,6.74,2.24,1.82,5.08,2.75a13.36,13.36,0,0,1,5.55,3.09,17.39,17.39,0,0,1,1.7,1.92l-.93.71s3.35,6.09,5.43,7.24c.37.21,3.95,20.14,4.63,25.11,1.34,9.91,4.62,16.09,9.35,18.16,6.86,3,22.32,6.42,29.51,8.48,2.19.64,8.55,3.24,8.55,3.24,0,.36.07.72.11,1.08v.07c.31,3.66.13,6.85,2.14,12.5,2.55,7.19,1.06,10.54,1.52,13.32.38,2.22,6.91,6.73,18.26,6.74,12,0,18.14-3.23,18.14-3.23l.38-.18c4.5-2,3.45-7.7,3.61-11.47.15-3.61,0-8.39.89-12.94.27,0,7.54,18.59,11,49.11,1.35,11.9,6.09,16.94,6.13,17a9.83,9.83,0,0,0,6,3.34c.65.07,1.33.12,2,.14l-.8.25c-.06,1.52-.11,4.88,3,5.35h0c-.4,1.75-.68,3.26-.78,4.12-.46,4.17-.61,8.19,2,10.18s3.54,5.09,4.32,5.25-.35-4.43-1.9-7.1c-1.42-2.45-.41-5.7.35-4.16s4.47,8.64,4.63,10.18c.12,1.25.55,4.09.86,4.33,0,0,0,0,.05,0h0c0,.05,0,.06.05.05a3.84,3.84,0,0,0,1.45-1.25.12.12,0,0,0,0-.08c0,.1,0,.17,0,.11a6.86,6.86,0,0,0,1.85-4.12,59.93,59.93,0,0,0-1.7-13.26C302.79,240.18,301.75,238.62,300.69,236.36Z" style="fill:#fff"/><path d="M231.59,132.51l.13-3,.13-.07Zm73.76,86c0-.05-.65-2.91-1-3.94-3.4-9.19-19-44.61-20.3-47.7,1.07,2.83-1.13-2.84-.92-2.24-1.18-2.9-8.29-21.15-11.94-25.3-4-4.54-7.61-5.54-11.09-6.47-2.81-.75-5.59-1.19-8.17-1.84,0-.45-.13-1-.22-1.69l1.51,0-.26-.08c-.42-.1-.86-.21-1.3-.3a48.6,48.6,0,0,1-.58-5.85c0-.65-1.46-.31-5.7.23-2.64.33-13.31,3.94-13.31,3.94l-.16,2c-6.34,1.69-14.24,0-18-.49a105.52,105.52,0,0,0-14-.71,7.21,7.21,0,0,0-.81-4.38c-2.2-3-8-4.5-10.29-8.78s-8.39-15.2-10.74-19.22c-1.86-3.18-2.61-3.34-3.5-2.73l-3-5-.9.68-6.05,4.58-1.33,1-1.08.82s3.35,6.09,5.43,7.24c.37.21,3.95,20.14,4.64,25.11,1.34,9.91,4.61,16.09,9.34,18.16,6.86,3,22.32,6.42,29.51,8.48,2.19.64,8.55,3.24,8.55,3.24.05.35.07.71.11,1,0,.11,0,.23,0,.33l0-.05c.29,3.58.14,6.76,2.12,12.32,2.55,7.19,1.06,10.54,1.52,13.32.38,2.23,6.91,6.73,18.26,6.74,12,0,18.14-3.23,18.14-3.23l.39-.17c4.49-2,3.44-7.7,3.6-11.48.15-3.57,0-8.29.87-12.8l0,.16,0-.26c.6.89,7.6,19.3,11,49.07,1.35,11.9,6.09,16.94,6.13,17a9.83,9.83,0,0,0,6,3.34c.71.08,1.46.12,2.18.15l-1,.25c-.07,1.51-.12,4.87,3,5.34a10.5,10.5,0,0,0,3.11-.11l.68-.12h0c1.7-.34,5.6-.93,6.13-2.47.3-.84.8-1.57-.13-5.91a11.73,11.73,0,0,0,2.48-2.45C305.9,225.17,305.86,222.66,305.35,218.46Z" style="fill:#fdfdf3"/><path d="M295.81,237.61a10.61,10.61,0,0,1-3.62.22,3.35,3.35,0,0,1-.79-.22h0a2.73,2.73,0,0,1-.6-.36l0,0a2.51,2.51,0,0,1-.44-.48l0,0a2.35,2.35,0,0,1-.31-.56l0-.06a4.19,4.19,0,0,1-.19-.63.14.14,0,0,1,0-.06,5.07,5.07,0,0,1-.11-.68v-.06c0-.24,0-.48,0-.72v0q0-.37,0-.75c.57,0,1.12,0,1.65,0,2,0,3.56-.15,3.66-.16a11.33,11.33,0,0,0,1.21-.19l.31-.06c.34-.08.66-.16,1-.26l.16,0c.36-.11.71-.24,1.06-.37l.23-.1c.29-.12.57-.24.84-.38l.16-.07q.48-.24.93-.51l.09-.06a8.92,8.92,0,0,0,.79-.51l.09-.05a16.4,16.4,0,0,0,1.5-1.2h0c0,.2,0,.38,0,.56l0,.27,0,.46c0,.1,0,.2,0,.29s0,.27,0,.4,0,.19,0,.28,0,.23,0,.35a2.09,2.09,0,0,0,0,.25l0,.31,0,.24c0,.09,0,.18,0,.27a1.91,1.91,0,0,0,0,.21,1.82,1.82,0,0,1-.07.25l-.06.19a1.8,1.8,0,0,1-.08.21,1.42,1.42,0,0,1-.08.18l-.09.19a.86.86,0,0,0-.1.16l-.12.17-.12.14-.13.15-.14.14-.15.13-.17.13-.16.12-.21.13-.16.1-.27.14-.14.08-.46.22A21.87,21.87,0,0,1,295.81,237.61Zm-13.6-8.74s-4.67-5.05-6-16.68a246.93,246.93,0,0,0-6.7-36.07l0-.17v0l0-.14,0-.06-.05-.2,0-.05-.06-.22,0-.1a2.23,2.23,0,0,0-.09-.32h0c-.11-.38-.23-.82-.38-1.31,0-.06,0-.11,0-.17s-.07-.22-.1-.33l-.06-.21-.09-.29a2.17,2.17,0,0,0-.07-.24l-.09-.31c0-.09-.05-.17-.07-.25s-.07-.21-.1-.32-.05-.16-.07-.24-.08-.25-.11-.38a1.72,1.72,0,0,1-.07-.21c-.06-.18-.11-.37-.17-.55l-.09-.31-.09-.28c0-.11-.07-.21-.1-.32l-.09-.26c0-.11-.06-.22-.1-.33a2,2,0,0,1-.08-.26l-.11-.32a2.41,2.41,0,0,0-.08-.25l-.11-.32c0-.08-.05-.16-.07-.23s-.08-.23-.12-.33l-.06-.18c-.14-.41-.27-.79-.41-1.16l-.06-.16c0-.1-.07-.19-.11-.29l-.06-.17-.11-.27-.06-.15c0-.09-.07-.17-.11-.25l-.06-.14a1.47,1.47,0,0,0-.1-.22l-.05-.12a2,2,0,0,1-.1-.21l-.05-.09a1,1,0,0,0-.1-.18h0a25.32,25.32,0,0,0,.23-3.84V159c.09-8.8-2.19-11.12-2.29-11.21a.46.46,0,0,0-.65,0,.47.47,0,0,0,0,.65s2.11,2.24,2,10.54v.33a25,25,0,0,1-.2,3.52.87.87,0,0,0-.07.17,62.72,62.72,0,0,0-.82,10.33c0,.94,0,1.84-.07,2.67,0,.68,0,1.41,0,2.18,0,3.46.1,7.38-3.33,8.9l-.41.19c-.06,0-6.16,3.17-17.87,3.17h-.05c-11.58,0-17.51-4.6-17.8-6.35a13.32,13.32,0,0,1,0-2.78,24.57,24.57,0,0,0-1.51-10.62,33.46,33.46,0,0,1-2-10.35c0-.67-.08-1.35-.14-2v-.12h0a23,23,0,0,1,1.15-6.77l.1-.27c.07-.22.14-.45.22-.65s.21-.56.31-.79c1.66-3.83,3.07-7.54,3.08-7.58a.46.46,0,1,0-.86-.33s-1.42,3.73-3.07,7.54c-.08.18-.15.37-.23.58a.78.78,0,0,0-.05.14c-.08.21-.16.44-.24.68a.14.14,0,0,0,0,.06c-.08.24-.16.5-.24.76l0,.07-.24.89v0a26.72,26.72,0,0,0-.74,4l-1.78-.71h0l-.6-.24-.07,0-.57-.22-.12,0-.57-.22-.1,0-1.36-.52-.15-.06-.48-.18-.22-.08-.39-.14-.23-.08-.34-.12-.22-.07-.32-.11-.17-.06-.42-.13c-2.16-.62-5.12-1.37-8.24-2.17-7.33-1.87-16.44-4.2-21.21-6.29s-7.78-8.19-9.08-17.81c0-.24-4-25-4.86-25.44-1.51-.84-4-4.84-5.06-6.72l.29-.22.13,0h.06a.47.47,0,0,0,.28-.09l.91-.7,3.57,6.19a.45.45,0,0,0,.4.23.46.46,0,0,0,.4-.69l-3.62-6.29.48-.37.56-.42,2.83,4.24a.46.46,0,0,0,.39.21.5.5,0,0,0,.26-.08.45.45,0,0,0,.12-.64l-2.86-4.3,3.94-3a.46.46,0,0,0,.13-.18l0,0a.55.55,0,0,0,0-.22h0l.32-.24,2.66,4.5a.58.58,0,0,0,0,.19h0a.7.7,0,0,0,.06.19l.15.25a.47.47,0,0,0,.4.22.46.46,0,0,0,.23-.06.47.47,0,0,0,.17-.64l0-.07h0l.19-.06h0a.28.28,0,0,1,.13,0c.5.11,1.24,1,2.27,2.77,2.31,4,8.37,14.83,10.73,19.2,1.37,2.55,3.92,4.15,6.18,5.57a14.89,14.89,0,0,1,4.14,3.27,2.36,2.36,0,0,1,.2.31l.1.24.06.12.12.37s0,0,0,0a3.11,3.11,0,0,1,.1.46h0a11.44,11.44,0,0,1,.12,2.37v0a5.67,5.67,0,0,0,0,.92,37.93,37.93,0,0,1-1.43,7.35v.06a.45.45,0,0,0,.3.57.36.36,0,0,0,.14,0,.45.45,0,0,0,.44-.32,40.33,40.33,0,0,0,1.43-7v0l0,0c1.78.59,2.31,5.93,2.23,9.15a.46.46,0,0,0,.45.48h0a.46.46,0,0,0,.46-.46c0-.92.16-9-2.86-10a.39.39,0,0,0-.15,0l-.12,0h0a.49.49,0,0,0,0-.12h4l.53,0h.92l.37,0,.57,0,.38,0,.58,0,.39,0,.58,0,.4,0,.59.05.39,0,.6.05.38,0c.21,0,.41,0,.62.06l.34,0,.66.07.29,0,.92.12,1.64.25c3.89.61,10.3,1.63,15.76.4l-.11,2.64a.46.46,0,0,0,.43.48.46.46,0,0,0,.49-.42l.28-3.28h0l.23-2.83a36.09,36.09,0,0,1,14.24-4.28h.1c2.76-.25,4.42-.4,4.89,0,.09.08.21.26.2.8a18.82,18.82,0,0,0,.47,4.48c.08.44.16.85.21,1.24h0l-.48-.11-.24-.05-.34-.08-.3-.05-.31,0-.34,0-.29,0H250a2.43,2.43,0,0,0-.27,0,2.58,2.58,0,0,0-.39,0l-.25,0-.43.11a.8.8,0,0,0-.21.05,3.86,3.86,0,0,0-.64.25.46.46,0,0,0,.41.83c1.13-.56,3.68-.17,4.63,0h0l.37.07,1.56.26c.65.19,1.28.39,1.92.6,1.09.35,2.22.72,3.58,1.08,3.71,1,8,2.4,11.79,6.72,2.23,2.53,6.18,10.8,11.75,24.59l.32.79.31.81.11.3h0l.12.22,1.51,3.59c4.9,11.65,16.36,38.93,19.13,46.43a21.91,21.91,0,0,1,.75,2.93,12.27,12.27,0,0,1-2,8.95,14,14,0,0,1-9.26,5.15,39.9,39.9,0,0,1-6.82,0A9.33,9.33,0,0,1,282.21,228.87ZM164.68,84.15l.4,0,.66.07c.39,0,.71.07,1,.11h0a4.36,4.36,0,0,1,.62.13h0l.2.09h0a.83.83,0,0,1,.15.11h0l.12.13h0c0,.09.09.18.14.26l.08.15c0,.1.1.21.15.33l.07.13c0,.08.08.16.13.24a2.12,2.12,0,0,0,.11.21l.11.2.15.26a1.62,1.62,0,0,0,.1.18l.18.31.09.15.2.34a.75.75,0,0,1,.07.12l.22.35.07.13.2.31a.41.41,0,0,0,.05.09l-1.64,1.24-5.06,3.84h0c-.26-.31-.51-.61-.75-.88s-.48-.52-.71-.74a13.76,13.76,0,0,0-5.73-3.19c-2.77-.9-3.73-1.42-4.89-2.63a12,12,0,0,1-1.85-4.28c-.23-.76-.47-1.54-.75-2.3-.92-2.55-1.33-5.13-.93-5.88a.21.21,0,0,1,.18-.14c.2.07.46,1,.61,1.64.05.2.1.41.16.62a.13.13,0,0,0,0,.06c.08.28.16.57.26.86a59.87,59.87,0,0,0,2.65,5.6.47.47,0,0,0,.36.24,15.68,15.68,0,0,0,1.6.08l.83,0h.07l.52,0a16.75,16.75,0,0,1,3.79.54c1.51.31,3.23.66,5,.85l.25,0m-13.33-7.55a34.22,34.22,0,0,0,1.6,3.22c.21.36.49.83.79,1.3l.48.75-.85,0h-.07l-.32,0a56.61,56.61,0,0,1-2.48-5.24c-.08-.24-.15-.49-.22-.72a2.84,2.84,0,0,1,.1-.45.64.64,0,0,1,.22-.35C150,75.25,150.31,75.92,150.59,76.52Zm13.44.73a.45.45,0,0,1,.1,0c.62,0,1.58,2.48,2.21,4.12.29.73.58,1.48.89,2.19l-.12,0-.19,0-.29,0-.21,0h0l-.36,0-.22,0h0l-.65-.06-.54-.05c-1.26-4.39-.92-5.57-.65-5.9Zm140.2,153v0c0-.26,0-.54-.07-.83v0c0-.29-.06-.6-.1-.93h0l.39-.45,0,0c.12-.15.23-.29.32-.42A13.32,13.32,0,0,0,307,218a21.68,21.68,0,0,0-.8-3.2c-2.78-7.51-14.25-34.81-19.15-46.46L285,163.38h0v0h0l-.31-.76c-5.61-13.89-9.62-22.25-11.91-24.86-4-4.51-8.41-6-12.25-7-1.34-.36-2.46-.72-3.54-1.07s-2.15-.7-3.37-1c-.06-.44-.15-.89-.24-1.35a17.63,17.63,0,0,1-.44-4.28,1.93,1.93,0,0,0-.5-1.51c-.77-.72-2.28-.58-5.6-.28h-.1a35.77,35.77,0,0,0-14.85,4.54.47.47,0,0,0-.21.36l-.23,2.73c-5.36,1.33-11.88.3-15.8-.32l-1.66-.25a101.74,101.74,0,0,0-13.57-.72,6.86,6.86,0,0,0-.91-4.19,15.64,15.64,0,0,0-4.4-3.51c-2.26-1.42-4.6-2.89-5.86-5.22-2.36-4.37-8.42-15.25-10.75-19.23-1.25-2.13-2-3-2.86-3.21a1.46,1.46,0,0,0-.87.09L172,87.67a.45.45,0,0,0-.31-.21.42.42,0,0,0-.36.08l-.64.48c-.21-.35-.41-.67-.59-1l0-.06-.48-.82,0-.07-.37-.68h0q-.17-.31-.27-.54s0,0,0,0v0h0a2.6,2.6,0,0,0-.22-.41.32.32,0,0,0-.09-.16c-.49-1-.94-2.15-1.38-3.28-1-2.63-1.83-4.7-3.08-4.7a1.12,1.12,0,0,0-.44.09,1.05,1.05,0,0,0-.39.27,1.3,1.3,0,0,0-.15.23c0,.07-.09.12-.13.2a4.43,4.43,0,0,0-.12.43s0,.1,0,.16a6,6,0,0,0-.05.63s0,.08,0,.12c0,.26,0,.54,0,.84v.08c0,.32.09.67.16,1v0q.21,1.17.63,2.7c-1.66-.18-3.31-.51-4.77-.81a16.64,16.64,0,0,0-4.06-.56l-.27,0-.37-.58,0,0c-.12-.2-.26-.41-.39-.61a.16.16,0,0,0,0-.07l-.37-.6s0,0,0-.05c-.13-.2-.24-.39-.33-.55a33.67,33.67,0,0,1-1.56-3.13c-.72-1.59-1-2.12-1.47-2.12a1.12,1.12,0,0,0-.81.33h0a2.11,2.11,0,0,0-.1-.3l0-.1-.08-.24-.06-.14c0-.09-.09-.18-.14-.26a1.4,1.4,0,0,0-.1-.16l-.08-.09a.34.34,0,0,0-.12-.12l-.08-.07a1.29,1.29,0,0,0-.16-.09l-.09,0a.87.87,0,0,0-.28,0,1.07,1.07,0,0,0-.25,0,1.14,1.14,0,0,0-.74.6c-.72,1.35.21,4.81.88,6.64.26.74.5,1.51.73,2.25.58,1.88,1.12,3.65,2.06,4.65,1.29,1.35,2.33,1.91,5.28,2.87a12.84,12.84,0,0,1,5.37,3c.2.18.4.39.6.61l.12.13c.21.24.43.49.64.76l-.55.42a.46.46,0,0,0-.13.59c.14.25,3.31,6,5.49,7.35.57,1.69,3.84,19.88,4.53,24.84,1.34,10,4.67,16.36,9.61,18.53s14,4.45,21.36,6.33c3.12.8,6.07,1.55,8.21,2.16,1.9.56,7.05,2.64,8.25,3.13,0,.13,0,.27,0,.41l0,.19c0,.16,0,.32,0,.48a.19.19,0,0,0,0,.08l.12,1.71a34.27,34.27,0,0,0,2,10.61A23.57,23.57,0,0,1,223,181.31a14.58,14.58,0,0,0,.05,3c.43,2.48,7.23,7.11,18.72,7.12h.05c12,0,18.05-3.15,18.28-3.27l.38-.17c4-1.77,3.92-6.2,3.87-9.76,0-.75,0-1.47,0-2.12,0-.85.05-1.75.07-2.7a71.66,71.66,0,0,1,.56-8.67c1.82,4.74,7.44,22,10.33,47.57,1.29,11.36,5.66,16.58,6.25,17.22h0a10.17,10.17,0,0,0,6.31,3.49l.78.06v.38a.76.76,0,0,0,0,.15V234a2.18,2.18,0,0,0,0,.25v.15l0,.28c0,.05,0,.1,0,.16s0,.19,0,.29l0,.15c0,.1,0,.2.06.3l0,.16.09.3c0,.05,0,.1.05.15s.07.2.11.3l.06.15.15.28.08.15a2.4,2.4,0,0,0,.18.26.71.71,0,0,0,.1.14,2.41,2.41,0,0,0,.21.24l.12.13.26.21.15.11a3,3,0,0,0,.3.18l.17.09c.12.06.25.1.38.15l.17.06a3.76,3.76,0,0,0,.62.14,9.18,9.18,0,0,0,1.2.08,13.46,13.46,0,0,0,2.75-.31,22.56,22.56,0,0,0,4.88-1.73c.2-.09.39-.18.57-.28l.38-.21.12-.07.39-.26.06,0,.37-.3,0,0a2.57,2.57,0,0,0,.33-.33h0a3.37,3.37,0,0,0,.29-.37h0a3.38,3.38,0,0,0,.24-.41h0c.07-.14.14-.29.2-.44h0c.06-.16.11-.32.16-.49h0a4.52,4.52,0,0,0,.11-.53v0c0-.18,0-.37.07-.57v0c0-.2,0-.41,0-.63V231C304.26,230.73,304.25,230.48,304.23,230.21Z"/><path d="M234.64,126.8a.47.47,0,0,0-.46.47s0,5.61-.53,7.26a.47.47,0,0,0,.31.58.32.32,0,0,0,.14,0,.47.47,0,0,0,.44-.32c.56-1.78.57-7.31.57-7.55A.47.47,0,0,0,234.64,126.8Z"/><path d="M237.83,129.52a.46.46,0,0,0-.43.49,31.36,31.36,0,0,1,.06,5.4.46.46,0,0,0,.16.63.44.44,0,0,0,.24.07.47.47,0,0,0,.4-.22c.36-.62.19-4,.06-5.94A.45.45,0,0,0,237.83,129.52Z"/></g><g style="clip-path:url(#e)"><rect x="0.35" y="0.83" width="22.5" height="18.75"/></g><g style="clip-path:url(#f)"><path d="M12.17,6.68V6.8A32.82,32.82,0,0,0,12,10.73c0,.39,0,1,0,1.76s0,1.37,0,1.76c0,.17-.07.25-.22.25l-.63,0h-.61c-.14,0-.21,0-.21-.16s0-.91.09-2.44c0-.74,0-1.83,0-3.25,0-.1,0-.15-.07-.15a1.86,1.86,0,0,0-.5.1,1.66,1.66,0,0,1-.51.11c-.1,0-.15,0-.15-.08s0-.13,0-.24a2.27,2.27,0,0,0,0-.24,1.87,1.87,0,0,0,0-.21,2,2,0,0,1,0-.22c0-.06.05-.11.14-.15a3,3,0,0,0,.82-.54l.36-.4a1.71,1.71,0,0,1,.33-.32l.55.12c.14,0,.34,0,.6.09A.12.12,0,0,1,12.17,6.68Z" style="fill:#fff"/></g><g style="clip-path:url(#g)"><path d="M95.4,75a4.06,4.06,0,0,0,0-1.7Z" style="fill:#fff"/><path d="M146.11,99.89a1.73,1.73,0,0,1-2.16.66,1.8,1.8,0,0,1-.74-2.09,2.23,2.23,0,0,1,.91-1.2.47.47,0,0,1,.69,0,.48.48,0,0,1,0,.75c-.25.26-.58.46-.59.86s0,.56.23.68a.59.59,0,0,0,.76-.21,2,2,0,0,0,.47-1.58c-.1-.91-.21-1.84-.35-2.76,0-.38,0-.77.43-.83s.54.29.6.65l.14.83c.08.67.16,1.33.22,2A3.14,3.14,0,0,1,146.11,99.89Zm-9-16.68c-.19.47-.58.33-.91.17a9.39,9.39,0,0,0-6.53-.56c-.39.1-.77.11-.88-.34s.29-.58.66-.68a11.31,11.31,0,0,1,2.86-.34,9.37,9.37,0,0,1,4.29,1C136.91,82.58,137.28,82.75,137.1,83.21Zm-3.95,8.35a1.11,1.11,0,0,1-1.12.89c-.54,0-.81-.34-1-.81a3.85,3.85,0,0,1-.26-1.62,9.49,9.49,0,0,1,.14-1,1.21,1.21,0,0,1,1.17-.94c.62-.06.86.36,1,.85A4.62,4.62,0,0,1,133.15,91.56Zm-3.29,15a13.19,13.19,0,0,1-4,1.22,9.6,9.6,0,0,1-5.63-1.52c-.31-.2-.66-.43-.42-.85s.62-.26,1,0c2.68,1.82,5.44,1.65,8.28.41.13,0,.23-.1.36-.15.38-.17.85-.53,1.11.09S130.21,106.35,129.86,106.51ZM119.33,82.7c-.07.4-.41.45-.72.34a7.74,7.74,0,0,0-6.1.62.5.5,0,0,1-.77-.23c-.14-.36.08-.57.39-.73a9.88,9.88,0,0,1,3.78-1.1,9.53,9.53,0,0,1,2.92.45C119.15,82.16,119.41,82.31,119.33,82.7Zm-1.55,9.59a1.13,1.13,0,0,1-1.1.82,1.06,1.06,0,0,1-1.06-.94,5,5,0,0,1,0-2.52,1.09,1.09,0,0,1,1.16-.93,1.2,1.2,0,0,1,1.09,1.13c0,.34,0,.66,0,.94A3.87,3.87,0,0,1,117.78,92.29Zm5.6,2.94a3.15,3.15,0,0,0,.18-1.59c0-.44,0-.87-.07-1.32s0-.65.41-.71.57.28.6.64.07.92.1,1.39a3.94,3.94,0,0,1-.23,1.9,4.77,4.77,0,0,0-.16,3.81c.12.43.56,1.12-.18,1.31s-.67-.65-.82-1.1A5.36,5.36,0,0,1,123.38,95.23Zm-17,5.21a1.94,1.94,0,0,1-2.84-.65,4.21,4.21,0,0,1-.44-2.29c.09-.66.2-1.6.34-2.55,0-.31.18-.63.58-.59s.51.39.45.76a20.37,20.37,0,0,0-.31,2.68,3,3,0,0,0,.2,1.28.93.93,0,0,0,1.16.65c.32-.08.43-.89.17-1.31-.16-.23-.39-.4-.57-.62a.48.48,0,0,1-.06-.64.5.5,0,0,1,.67-.13A2.38,2.38,0,0,1,106.4,100.44Zm41.65-7.5a2,2,0,0,0-2.16-1.11,2.16,2.16,0,0,0-1.56.88,17.36,17.36,0,0,0-1.68,3.12c-.15.33-.34.64-.74.48s-.39-.58-.17-.91a1.49,1.49,0,0,0,.09-1.62,2.63,2.63,0,0,1-.15-.76,11.47,11.47,0,0,1,.43-4.43c.08-.24.26-.51,0-.8a7.36,7.36,0,0,1-1.56-4.36c-.07-1.08-.23-1.83-1.52-1.78a2,2,0,0,1-.93-.36,7.74,7.74,0,0,1-3.53-3.21c-.16-.28-.24-.61-.7-.17a7.3,7.3,0,0,1-10.09-.19c-.36-.37-.68-1-1.07-1s-.78.65-1.17,1a4.55,4.55,0,0,1-6.29,0c-.3-.24-.57-.51-1-.83a37.77,37.77,0,0,1-2.75,6,7.15,7.15,0,0,1-1.88,2.32,1.88,1.88,0,0,1-1.33.54c-.54-.08-.52.17-.4.56a12.09,12.09,0,0,1,.37,4.36c-.06,1-.26,1.92-1.36,2.29a.23.23,0,0,0-.17.34.46.46,0,0,1-.24.65c-.31.12-.54-.05-.73-.29a8,8,0,0,0-1.11-1.29,1.57,1.57,0,0,0-2,0,4.17,4.17,0,0,0-1.37,2.82c-1.08,4.69,1.34,8.66,5.89,9.78a10.05,10.05,0,0,0,2.45.26,1.4,1.4,0,0,1,1.38.91,39.76,39.76,0,0,0,2.33,4.25,13.29,13.29,0,0,0,10.52,6.42,12.66,12.66,0,0,0,12-5.3,33.22,33.22,0,0,0,2.82-4.95,1.74,1.74,0,0,1,1.55-1.07,16.47,16.47,0,0,0,2-.31C148.31,104,151.09,98.06,148.05,92.94Z" style="fill:#fff"/><path d="M132.42,116.07a14.72,14.72,0,0,1-14.8-.27c0,3,0,5.84,0,8.71.09,4.72.26,9.44.37,14.14a2,2,0,0,0,1,1.72c2.39,1.78,5.12,2,7.93,1.82a8.53,8.53,0,0,0,3.72-1.19,2.49,2.49,0,0,0,1.42-2.29c.14-7.44.34-14.89.51-22.33C132.54,116.27,132.61,116.13,132.42,116.07Z" style="fill:#fff"/><path d="M142.31,105.15a18.76,18.76,0,0,1-2,.31,1.73,1.73,0,0,0-1.55,1.06,32.25,32.25,0,0,1-2.82,5,12.69,12.69,0,0,1-12,5.31,13.34,13.34,0,0,1-10.52-6.42,38.22,38.22,0,0,1-2.33-4.25,1.39,1.39,0,0,0-1.37-.92,10.71,10.71,0,0,1-2.46-.26c-4.55-1.11-7-5.09-5.89-9.78a4.11,4.11,0,0,1,1.37-2.81,1.55,1.55,0,0,1,2,0,6.76,6.76,0,0,1,1.11,1.28c.19.25.4.42.73.3a.47.47,0,0,0,.25-.65c-.07-.19,0-.28.16-.34,1.1-.38,1.3-1.32,1.36-2.29a12.63,12.63,0,0,0-.37-4.37c-.11-.4-.12-.63.4-.55a1.83,1.83,0,0,0,1.33-.54,7.88,7.88,0,0,0,1.88-2.33,37.43,37.43,0,0,0,2.75-6c.37.33.66.59,1,.84a4.57,4.57,0,0,0,6.29,0c.4-.36.71-1,1.18-1s.71.68,1.06,1a7.28,7.28,0,0,0,10.09.19c.45-.43.54-.11.7.17a7.65,7.65,0,0,0,3.53,3.22,2,2,0,0,0,.93.35c1.29,0,1.45.7,1.52,1.78a7.43,7.43,0,0,0,1.56,4.36c.23.28.05.56,0,.81a11.4,11.4,0,0,0-.43,4.42,2.77,2.77,0,0,0,.15.76,1.51,1.51,0,0,1-.09,1.63c-.2.3-.28.72.17.91s.59-.16.74-.48a17.79,17.79,0,0,1,1.68-3.13,2.14,2.14,0,0,1,1.56-.88,2.05,2.05,0,0,1,2.16,1.12C151.09,98.06,148.31,104,142.31,105.15Zm-9.77,11.23q-.25,11.16-.51,22.33a2.48,2.48,0,0,1-1.42,2.29,8.41,8.41,0,0,1-3.71,1.19c-2.81.16-5.56,0-7.94-1.82a2.06,2.06,0,0,1-1-1.72c-.11-4.72-.28-9.43-.37-14.14-.06-2.87,0-5.77,0-8.71a14.7,14.7,0,0,0,14.79.27C132.61,116.13,132.54,116.27,132.54,116.38Zm21-36.42a9,9,0,0,0-3-5.47,1.93,1.93,0,0,0-1.2-.64c-.73,0-.67-.43-.47-.91a15.09,15.09,0,0,0,.88-3.42,9.35,9.35,0,0,0-2.57-8.24c-3.69-3.93-8.18-5.79-13.61-4.38-.71.18-1,.05-1.31-.62a9.9,9.9,0,0,0-8.06-5.71c-.15,0-.34,0-.39-.17h-1.85c-.58.44-1.29.3-2,.44-3.84.8-7.22,2.35-9.73,5.55a7.59,7.59,0,0,0-1.72,5.44c0,.55-.06.72-.63.67-3.29-.28-5.89,1.28-8.29,3.28a10.66,10.66,0,0,0-4,6.42c0,.14,0,.32-.23.34v.77a4.06,4.06,0,0,1,0,1.7V76.1c.31.09.22.37.26.57a11.36,11.36,0,0,0,1.75,4.73c.18.26.07.4,0,.61a6.59,6.59,0,0,0,2.78,9.57c1.09.56,1.09.56.66,1.72-1.54,4.11-.69,8.1,2.32,10.75a9.77,9.77,0,0,0,6.2,2.18.93.93,0,0,1,1,.65,37.07,37.07,0,0,0,2.93,5.07,11.2,11.2,0,0,0,2.69,2.76,1,1,0,0,1,.51.94c.18,7.73.31,15.47.58,23.19a2.63,2.63,0,0,0,1.12,2.16,9.81,9.81,0,0,0,5,2.12c.28,0,.62-.06.8.28h2.94a11.73,11.73,0,0,1,1.88-.46c1.43-.51,2.88-1,3.79-2.32a2.77,2.77,0,0,0,.5-1.5c.15-7.72.34-15.46.51-23.18,0-.31,0-.58.29-.8a16.56,16.56,0,0,0,4.72-5.91,8.68,8.68,0,0,1,1.38-2.47c.64-.59,1.76-.35,2.65-.58a12.21,12.21,0,0,0,2.13-.66c4.31-1.89,6.13-5.35,5.23-10a9,9,0,0,0-1-3c-.16-.26-.13-.38.15-.52.48-.23,1-.5,1.42-.77A3.54,3.54,0,0,0,152,86.44c-.13-.24-.22-.41,0-.68a9,9,0,0,0,1.66-3.94s.11-.09.16-.12V80.3C153.56,80.23,153.58,80.09,153.56,80Z"/><path d="M129.41,105.58c-.12,0-.23.11-.35.15-2.83,1.23-5.61,1.41-8.29-.41-.31-.22-.69-.37-.94,0s.11.65.41.85a9.63,9.63,0,0,0,5.64,1.52,13.07,13.07,0,0,0,4-1.22c.36-.16.9-.3.67-.85S129.8,105.41,129.41,105.58Z"/><path d="M105.75,97a.48.48,0,0,0-.67.13.47.47,0,0,0,.06.64c.18.22.41.39.57.62.26.42.15,1.25-.17,1.31a1,1,0,0,1-1.16-.65,3.15,3.15,0,0,1-.2-1.28,26.47,26.47,0,0,1,.31-2.68c.06-.37,0-.69-.45-.76s-.54.28-.58.59c-.14,1-.25,1.89-.34,2.55a4.21,4.21,0,0,0,.44,2.29,1.93,1.93,0,0,0,2.84.65A2.38,2.38,0,0,0,105.75,97Z"/><path d="M146.46,95.71c0-.28-.09-.56-.14-.83s-.17-.72-.6-.65-.49.43-.43.83c.12.91.23,1.84.35,2.75a2,2,0,0,1-.47,1.58.62.62,0,0,1-.76.22c-.26-.14-.25-.43-.23-.68,0-.4.34-.61.59-.87a.5.5,0,0,0,0-.74.47.47,0,0,0-.69,0,2.21,2.21,0,0,0-.91,1.21,1.79,1.79,0,0,0,.74,2.09,1.74,1.74,0,0,0,2.16-.67,3,3,0,0,0,.58-2.18C146.62,97,146.54,96.36,146.46,95.71Z"/><path d="M124,100.66c.74-.2.3-.9.18-1.31a4.77,4.77,0,0,1,.16-3.81,3.91,3.91,0,0,0,.23-1.9c0-.47,0-.93-.1-1.39s-.17-.7-.6-.64-.45.37-.41.71,0,.87.07,1.32a3.15,3.15,0,0,1-.18,1.59,5.36,5.36,0,0,0-.17,4.33C123.36,100,123.21,100.89,124,100.66Z"/><path d="M132.08,88.15a1.23,1.23,0,0,0-1.17.94,5.75,5.75,0,0,0-.14.94,3.9,3.9,0,0,0,.26,1.63c.19.46.48.82,1,.8a1.09,1.09,0,0,0,1.12-.88A4.58,4.58,0,0,0,133.1,89C132.93,88.49,132.7,88.08,132.08,88.15Z"/><path d="M116.82,88.7a1.09,1.09,0,0,0-1.16.93,5.12,5.12,0,0,0,0,2.52,1.09,1.09,0,0,0,1.06.95,1.14,1.14,0,0,0,1.1-.82,4.33,4.33,0,0,0,.18-1.5c0-.28,0-.62,0-1A1.21,1.21,0,0,0,116.82,88.7Z"/><path d="M136.57,82.42a9.31,9.31,0,0,0-4.29-1,11.76,11.76,0,0,0-2.85.34c-.37.08-.77.22-.67.68s.48.45.88.34a9.38,9.38,0,0,1,6.53.56c.34.17.73.3.91-.17S136.91,82.58,136.57,82.42Z"/><path d="M118.83,82.07a9.48,9.48,0,0,0-2.92-.45,9.88,9.88,0,0,0-3.78,1.1c-.31.15-.53.35-.39.72s.47.39.77.24a7.61,7.61,0,0,1,6.1-.62c.31.11.65.06.72-.34S119.15,82.16,118.83,82.07Z"/></g><g style="clip-path:url(#h)"><path d="M70.84,190.07c.23-4.52.51-9,2.51-13.23,1.31-2.74,2.94-5.32,4.45-8,2.57-4.48,5.22-8.91,7.64-13.46.2-.38.33-.34.62-.13,3.25,2.31,6.48,4.6,9.74,6.87.35.24.33.42.13.73q-4.07,6.29-8.12,12.6a1,1,0,0,1-.69.46c-2.17.47-4.34.94-6.5,1.44a15.84,15.84,0,0,0-5.7,3.13c-.22.16-.36.4-.17.64s.52.16.75,0c2.53-2.16,5.57-3.06,8.78-3.71a88.39,88.39,0,0,0,17.54-5.36c1.5-.65,3-1.43,4.43-2.14a2.18,2.18,0,0,0,1.16-1.24c1-2.5,2.1-4.93,2.85-7.52a2.36,2.36,0,0,1,.42-.89,6.61,6.61,0,0,0,1.37-4,21.79,21.79,0,0,0,.17-2.68c0-.16-.06-.36.15-.44s.3.11.4.24a3.57,3.57,0,0,1,.65,1.6,10.93,10.93,0,0,1,0,4.11,1.35,1.35,0,0,0-.06.48,1.85,1.85,0,0,1-1.2,2.06,1.54,1.54,0,0,0-.31.21c-.22.16-.38.37-.19.64s.44.2.66.05a25.61,25.61,0,0,0,3.75-2.91c1.51-1.57,3-3.16,4.53-4.74a55.08,55.08,0,0,1,4.37-4c.26-.23.56-.55.9-.17s.05.63-.19.88c-2.5,2.75-4.69,5.74-7.07,8.6l-.36.44c-.22.28-.86.47-.36,1,1,1,1.16,1.24,2,.78,3-1.77,6-3.51,9-5.25a9.48,9.48,0,0,1,1.86-.86c.3-.1.64-.3.87.11s0,.64-.35.85c-2.89,2.08-5.88,4-8.82,6a1.92,1.92,0,0,0-.53,2.89.89.89,0,0,0,1,.3l7.39-1.16a7.28,7.28,0,0,1,2.42-.09c.6.1.74.56.87,1,.07.29-.24.23-.4.27l-7.43,1.61c-.79.18-1.59.33-2.37.5s-1,.53-.92,1.52c0,.82.22,1,1,1.16,3,.72,6,1.51,9,2.38a1.35,1.35,0,0,1,.43.22.63.63,0,0,1,.23.61c-.08.2-.33.12-.5.1-2.2-.13-4.36-.6-6.55-.93l-2.52-.43a3.49,3.49,0,0,0-2,.28,25.23,25.23,0,0,1-5.33,1.89c-.92.17-1.85.23-2.78.36a12.06,12.06,0,0,0-5,1.89c-2.41,1.54-4.69,3.24-7.07,4.82-.26.17-.5.43-.89.25a.27.27,0,0,0-.38.21c0,.55-.49.69-.84.91-3.36,2.24-6.57,4.72-10.09,6.7a56.37,56.37,0,0,1-12.75,5.26,4.56,4.56,0,0,1-5.43-4.26C70.85,191,70.84,190.56,70.84,190.07Z" style="fill:#fff"/><path d="M132.83,148.17c.19-.06.27.05.37.12a66.76,66.76,0,0,1,5.57,4.53,2.51,2.51,0,0,1,.56.8c.48,1,1,2,1.52,2.93,1,1.74,1.91,3.46,2.86,5.19.15.26.31.56.66.39s.21-.52.06-.8c-.68-1.24-1.37-2.48-2-3.72-.1-.18-.18-.35-.33-.64,1.44.73,2.66,1.45,2.87,3.13.07.51.25,1,.33,1.53a10.56,10.56,0,0,0,1.81,4.46c1,1.45,2,2.91,2.88,4.46a1.61,1.61,0,0,0,.45.41,14.73,14.73,0,0,0,6.21,2.74c4.19.85,8.34,1.94,12.56,2.59a9.18,9.18,0,0,1,5.69,3.18c.54.61,1.06,1.24,1.58,1.85.2.24.41.46.72.21s.12-.48,0-.71a20.45,20.45,0,0,0-3.6-3.72,10.46,10.46,0,0,0-4.93-1.77c-2.3-.36-4.57-.87-6.84-1.38a.64.64,0,0,1-.52-.44l-4.85-10.95c-.16-.35-.12-.51.25-.68,3.55-1.74,7.08-3.51,10.6-5.27.28-.14.46-.3.63.17,2.83,8.55,6.93,16.52,11.06,24.48a89.57,89.57,0,0,1,3.72,8.31,3.64,3.64,0,0,1-.24,3.53,2.18,2.18,0,0,1-2,1.14,24.48,24.48,0,0,1-12.18-3.32c-3.35-2-6.46-4.41-9.69-6.61-2.93-2-5.92-3.86-8.94-5.7a20.24,20.24,0,0,0-3.81-1.84,12.78,12.78,0,0,1-8-8,12.35,12.35,0,0,0-4.2-5.4A25.72,25.72,0,0,1,129.7,160c-.12-.15-.46-.25-.25-.53s.4-.16.66-.05a19.2,19.2,0,0,1,7.39,5.38l.17.19c.18.17.4.26.61.06s.12-.4,0-.62a23.85,23.85,0,0,0-5.72-7.07.46.46,0,0,1-.16-.43c0-1.19-.3-1.53-1.44-1.64a1.43,1.43,0,0,1-.88-.54c-.75-.78-1.46-1.6-2.19-2.4a1.05,1.05,0,0,1-.23-.36c-.07-.2-.12-.45.08-.58s.28.12.4.22c2.42,1.87,4.78,3.82,7.11,5.81a14.67,14.67,0,0,1,3,3.75c.1.16.19.32.29.47s.33.34.59.19a.41.41,0,0,0,.12-.6l-.08-.16a24.35,24.35,0,0,1-1.42-2.67,14.2,14.2,0,0,0-3.7-5.12,16.1,16.1,0,0,1-3.45-4.64,1.49,1.49,0,0,1-.24-.83c0-.15,0-.3.18-.37s.27.05.37.15a11,11,0,0,1,1.21,1.25,34.68,34.68,0,0,0,3.39,3.67,28.23,28.23,0,0,1,5.33,7.49l.14.28c.17.29.27.76.73.52s.14-.61,0-.91a30.35,30.35,0,0,0-6.67-9.06c-.59-.59-1.16-1.2-1.73-1.8A2,2,0,0,1,132.83,148.17Z" style="fill:#fff"/><path d="M126.53,227.93h0q11,.13,21.9.25c.91,0,1-.16.71-1q-4.24-11.55-8.49-23.12a1.17,1.17,0,0,0-1.24-.88q-12.66-.09-25.33-.21a.91.91,0,0,0-1,.65L104,226.89c-.25.63-.1.83.6.83Q115.57,227.84,126.53,227.93Zm.41,5.31c-9.78-.13-19.55-.14-29.34-.38-1.36,0-1.67-.35-1.51-1.72.37-3.14.77-6.28,1.16-9.43.55-4.4,1.11-8.81,1.56-13.21.42-4.17.85-8.33,1.19-12.51.31-3.83.51-7.66.66-11.49a1.13,1.13,0,0,1,.57-1.06c2.29-1.53,4.56-3.07,6.79-4.66a13.56,13.56,0,0,1,7.1-2.44,11.26,11.26,0,0,0,3.56-.87c.43-.18.62-.12.82.33,1.17,2.72,2.37,5.41,3.58,8.11.4.9.69,1,1.61.69,6.5-2.31,13-4.59,19.47-7a2.1,2.1,0,0,1,1.78.1,41.83,41.83,0,0,1,6.42,3.56.69.69,0,0,1,.36.65c.05,5.61.25,11.21.54,16.82q.42,8.19,1.58,16.29c.78,5.55,1.72,11.08,2.59,16.61.25,1.59.25,1.57-1.33,1.6C146.37,233.39,136.66,233.24,126.94,233.24Z" style="fill:#bfb3dd"/><path d="M119.27,127.87a57.84,57.84,0,0,0-5.24-3.32c-.2-.11-.4-.23-.6-.33a.4.4,0,0,0-.41.69,3.24,3.24,0,0,0,.54.33,46.92,46.92,0,0,1,8.51,6,15.61,15.61,0,0,1,2.84,3.23c.55.84,1.13.84,1.64,0,1.5-2.39,3.72-4,5.89-5.71a44.72,44.72,0,0,1,5.51-3.52,3.82,3.82,0,0,0,.48-.29c.17-.14.29-.32.15-.54a.38.38,0,0,0-.54-.16c-.16.07-.34.17-.5.26-1.61.9-3.17,1.88-4.69,2.9-.17-.11-.12-.25-.12-.36,0-3.48,0-7-.08-10.45,0-.47.11-.57.58-.56a20.38,20.38,0,0,1,6.56,1.66,35.71,35.71,0,0,1,5.52,2.62,2.33,2.33,0,0,1,1.25,2.43,32.79,32.79,0,0,1-2.91,10.59.89.89,0,0,1-.73.6c-1.93.29-3.87.56-5.78.93-.46.09-.6-.49-1-.3s-.4.54-.87.58c-1,.07-2,.27-2.95.42-.13,0-.25,0-.38.06s-.45.18-.41.47.27.4.55.36c1-.14,2-.28,3-.44s.83-.15.86.69c.09,2.13.17,4.25.26,6.44-.2-.11-.21-.27-.26-.4-.58-1.47-1.14-3-1.72-4.41-.5-1.27-.88-1.45-2.14-1q-8.16,2.69-16.32,5.4c-.49.17-.66.15-.69-.45,0-2-.15-3.91-.27-5.87,0-.57.17-.6.62-.52,1.24.2,2.46.39,3.7.57a.27.27,0,0,0,.12,0c.32,0,.63,0,.68-.37s-.26-.43-.54-.48l-2.64-.4c-2.69-.42-5.39-.84-8.07-1.24a1,1,0,0,1-.8-.59,32.16,32.16,0,0,1-2.92-10.79,2.11,2.11,0,0,1,1.08-2.14,35.84,35.84,0,0,1,11.17-4.31c.48-.1,1-.1,1.48-.18s.43.06.43.39C119.11,120.11,119.19,123.91,119.27,127.87Z" style="fill:#bfb3dd"/><path d="M152.44,171.31c-.81-.6-1.59-.91-2.06-1.7a32.27,32.27,0,0,0-2.09-3.18,12.21,12.21,0,0,1-2.39-5.82c-.07-.41-.18-.81-.28-1.21a3.59,3.59,0,0,0-1.57-2.24,10.14,10.14,0,0,0-1.44-.86A4.45,4.45,0,0,1,140.4,154c-1.4-2.8-2.32-5.78-3.49-8.67-.17-.39.18-.66.16-1.06-.14-2.64-.21-5.3-.34-7.94,0-.45.05-.63.56-.7,1.88-.25,3.74-.57,5.61-.85a1.81,1.81,0,0,0,1.51-1.12c.61-1.39,1.14-2.82,1.61-4.26.11-.34.2-.51.62-.35,2,.78,4,1.52,6,2.27.29.11.46.22.46.61,0,6.92.18,13.84,0,20.77-.13,5.48-.43,11-.69,16.43C152.41,169.78,152.44,170.46,152.44,171.31Z" style="fill:#bfb3dd"/><path d="M100.93,163.88c-.06-1.92-.13-3.83-.18-5.76-.17-5.74-.5-11.48-.83-17.22-.16-2.91-.34-5.83-.54-8.73a.68.68,0,0,1,.47-.79c1.66-.7,3.31-1.44,5-2.19.37-.16.5-.15.64.27.45,1.38,1,2.74,1.54,4.07a1.88,1.88,0,0,0,1.64,1.24c1.63.23,3.25.52,4.87.74.32.05.42.14.43.46.1,2.26.21,4.5.35,6.75,0,.37-.15.45-.43.54L109,144.91a1.43,1.43,0,0,0-.92.69,1,1,0,0,0,0,1c1.11,2.49,2.17,5,3.25,7.49a2.86,2.86,0,0,1,0,1.3c0,.73-.16,1.45-.26,2.17a3.56,3.56,0,0,1-.79,1.81,4.06,4.06,0,0,0-.78,1.48c-.72,2.55-1.86,4.94-2.8,7.41a1.51,1.51,0,0,1-.76.85c-1.43.68-2.85,1.36-4.26,2.07-.46.23-.5.05-.51-.35C101.07,168.55,101,166.21,100.93,163.88Z" style="fill:#bfb3dd"/><path d="M130.64,158.71a23.66,23.66,0,0,1,4.33,2.47c.07-.3-.13-.4-.24-.52-.62-.66-1.26-1.34-1.91-2C131.82,157.68,131.81,157.7,130.64,158.71Zm2.92,5.81c0-.19-.14-.27-.24-.35a30,30,0,0,1-4.46-3.9c-.25-.28-.42-.11-.63,0l-2.8,1.88-2.86,1.9c-.56.36-.22.82-.12,1.23s.42.21.67.17c1.06-.16,2.12-.39,3.2-.5C128.73,164.73,131.09,163.84,133.56,164.52Zm-6.79-13c-2.73,3-5.12,6.19-7.65,9.28-.12.16-.47.29-.19.61s.49.14.76,0l8.46-4.93c.53-.3,1-.57,1.58-.86a16.15,16.15,0,0,0-1.23-1.38C127.84,153.43,126.85,152.8,126.77,151.57Zm33.63,22.09c-2.21-5-4.37-9.89-6.53-14.77-.16,1.52-.25,3-.3,4.5-.1,2.63-.33,5.24-.33,7.86a.67.67,0,0,0,.47.74,17.4,17.4,0,0,0,2.62.76C157.64,173.06,159,173.34,160.4,173.66ZM88.86,175.4l.2,0a110.25,110.25,0,0,0,10.72-3.39.72.72,0,0,0,.53-.83c-.14-4.14-.25-8.28-.39-12.42,0-.11.06-.25-.14-.35Zm44.74-10.83c0,.27.3.38.38.61s.22.5.29.75c.25.76.09,1.08-.71,1.25-2.06.47-4.13.92-6.21,1.37l-3.72.77c-.35.08-.5.24-.47.6s0,.42.34.5l6.81,1.75c.86.23,1.73.47,2.56.77a1.65,1.65,0,0,1,.91,1.86c-.21.74-.85.6-1.39.62-.13,0-.25,0-.38,0-2.27-.24-4.53-.62-6.77-1-1.61-.3-3.17-.56-4.69.37-.4.26-.46.38-.29.78,1.15,2.57,2.3,5.13,3.41,7.71.25.57.5.7,1.1.47L143.31,177c.15-.05.37,0,.44-.29-.49-.26-1-.5-1.43-.77a12.67,12.67,0,0,1-4.83-5.9,13.55,13.55,0,0,0-3.37-5.24C134,164.73,133.9,164.49,133.6,164.57ZM154,145.68c.05,3.58,0,7.17-.1,10.75a1.1,1.1,0,0,0,0,.62,40.49,40.49,0,0,1,1.7,3.74c.2.45.36.47.78.27,3.5-1.76,7-3.51,10.55-5.24.36-.18.47-.34.32-.75-.59-1.63-1.16-3.25-1.68-4.89A46.68,46.68,0,0,0,160.22,139a11.48,11.48,0,0,0-5.61-4.57c-.64-.25-.64-.27-.64.42Zm-54.14,7.1h-.11c-.22-4.12-.45-8.25-.67-12.36q-.18-3.16-.38-6.31c0-.24,0-.45-.35-.29-1.76.85-3.58,1.65-4.82,3.26a30.68,30.68,0,0,0-4.67,9,67.26,67.26,0,0,1-2.66,7.86c-.17.38,0,.48.28.63q4.88,3.44,9.74,6.88c.36.25.51.24.75-.14.87-1.38,1.77-2.73,2.67-4.07a1.4,1.4,0,0,0,.21-.82C99.83,155.19,99.83,154,99.83,152.78Zm1.1,11.1c.07,2.34.13,4.67.18,7,0,.4,0,.58.51.35,1.41-.72,2.83-1.39,4.26-2.08a1.45,1.45,0,0,0,.76-.85c.94-2.47,2.08-4.86,2.8-7.41a4,4,0,0,1,.78-1.48,3.53,3.53,0,0,0,.79-1.81c.1-.73.21-1.44.26-2.17a2.85,2.85,0,0,0,0-1.3c-1.06-2.5-2.14-5-3.25-7.49a1,1,0,0,1,0-1,1.58,1.58,0,0,1,.92-.69l4.83-1.65c.28-.09.44-.18.43-.54-.14-2.25-.25-4.49-.35-6.74,0-.33-.13-.42-.43-.47-1.62-.23-3.24-.51-4.87-.73a1.94,1.94,0,0,1-1.64-1.24c-.57-1.34-1.1-2.71-1.54-4.08-.14-.42-.27-.43-.64-.27q-2.46,1.14-5,2.19a.66.66,0,0,0-.47.79c.2,2.92.38,5.82.54,8.74.33,5.74.66,11.47.83,17.22Zm51.51,7.43c0-.85,0-1.53,0-2.2.26-5.48.56-11,.68-16.43.15-6.92,0-13.84,0-20.77,0-.39-.18-.5-.46-.62-2-.75-4-1.48-6-2.26-.42-.16-.51,0-.62.35-.48,1.44-1,2.87-1.61,4.25a1.79,1.79,0,0,1-1.51,1.13c-1.88.28-3.74.6-5.61.85-.51.06-.59.25-.56.7.12,2.64.2,5.3.33,7.94,0,.38-.32.67-.16,1.06,1.18,2.89,2.1,5.87,3.5,8.67a4.43,4.43,0,0,0,2.21,2.3,10.9,10.9,0,0,1,1.43.87,3.56,3.56,0,0,1,1.58,2.24c.1.4.21.81.27,1.21a12.37,12.37,0,0,0,2.4,5.82,33.5,33.5,0,0,1,2.09,3.18C150.85,170.4,151.61,170.71,152.44,171.31Zm-33.17-43.44c-.07-4-.16-7.77-.22-11.59,0-.34-.1-.44-.42-.39-.5.08-1,.09-1.49.18A36.13,36.13,0,0,0,106,120.38a2.11,2.11,0,0,0-1.09,2.14,32.5,32.5,0,0,0,2.92,10.79,1,1,0,0,0,.8.59c2.7.4,5.38.82,8.07,1.24l2.64.4c.28,0,.58.12.54.48s-.36.39-.67.37l-.13,0-3.69-.57c-.44-.08-.67-.05-.63.52.13,2,.23,3.92.28,5.87,0,.6.18.62.68.45l16.32-5.4c1.26-.41,1.64-.23,2.14,1,.58,1.46,1.15,2.94,1.72,4.41a.65.65,0,0,0,.26.4c-.08-2.19-.18-4.31-.26-6.44,0-.83,0-.83-.86-.69s-2,.3-3,.44c-.27,0-.51,0-.55-.36s.18-.4.41-.47l.38-.06c1-.15,2-.35,3-.42.46,0,.56-.43.86-.58s.52.39,1,.3c1.93-.36,3.86-.63,5.79-.93a.89.89,0,0,0,.72-.6,32.79,32.79,0,0,0,2.91-10.59,2.31,2.31,0,0,0-1.25-2.43,37.17,37.17,0,0,0-5.52-2.62A20.32,20.32,0,0,0,133.2,116c-.48,0-.59.09-.59.56,0,3.48.06,7,.09,10.45,0,.11,0,.25.11.36q2.28-1.53,4.69-2.9l.5-.26a.38.38,0,0,1,.54.16c.14.22,0,.4-.15.54a4.57,4.57,0,0,1-.47.29,44.84,44.84,0,0,0-5.52,3.52c-2.16,1.69-4.4,3.33-5.88,5.71-.53.83-1.11.83-1.65,0a15.91,15.91,0,0,0-2.84-3.23,46.58,46.58,0,0,0-8.51-6,4.34,4.34,0,0,1-.54-.33.36.36,0,0,1-.12-.54.38.38,0,0,1,.53-.15c.2.1.42.22.6.33C115.78,125.56,117.51,126.61,119.27,127.87Zm13.56,20.3a1.72,1.72,0,0,0,.52.88c.57.6,1.13,1.21,1.73,1.8a30.83,30.83,0,0,1,6.67,9.06c.14.3.47.68,0,.92s-.56-.25-.74-.53a1.75,1.75,0,0,1-.13-.28,27.89,27.89,0,0,0-5.34-7.49,31.76,31.76,0,0,1-3.38-3.67,11.87,11.87,0,0,0-1.21-1.25c-.1-.1-.21-.24-.38-.15s-.16.23-.17.38a1.48,1.48,0,0,0,.24.82,16.39,16.39,0,0,0,3.44,4.65,14.08,14.08,0,0,1,3.71,5.11,22.6,22.6,0,0,0,1.41,2.67l.09.16c.11.24.11.45-.12.6s-.44,0-.59-.19a4.57,4.57,0,0,1-.29-.47,14.45,14.45,0,0,0-3-3.74c-2.32-2-4.68-3.94-7.1-5.82-.13-.09-.24-.31-.4-.21s-.15.37-.09.57a1.08,1.08,0,0,0,.24.36c.72.8,1.44,1.62,2.19,2.41a1.35,1.35,0,0,0,.88.53c1.14.1,1.45.46,1.44,1.64a.51.51,0,0,0,.16.43,24.17,24.17,0,0,1,5.72,7.07c.11.22.19.42,0,.62s-.43.12-.62-.06a1.46,1.46,0,0,1-.16-.19,19.35,19.35,0,0,0-7.39-5.38c-.26-.11-.49-.18-.66.05s.12.39.25.53a25.72,25.72,0,0,0,3.87,3.34,12.17,12.17,0,0,1,4.19,5.41,12.78,12.78,0,0,0,8,8,19.58,19.58,0,0,1,3.8,1.84c3,1.84,6,3.7,8.94,5.71,3.24,2.2,6.35,4.56,9.69,6.6a24.44,24.44,0,0,0,12.19,3.32,2.15,2.15,0,0,0,2-1.14,3.72,3.72,0,0,0,.24-3.53c-1.13-2.81-2.34-5.61-3.72-8.31-4.14-8-8.23-15.93-11.07-24.47-.16-.48-.35-.32-.62-.18q-5.3,2.65-10.6,5.27c-.38.19-.4.34-.25.69q2.43,5.46,4.84,10.95a.66.66,0,0,0,.53.43c2.27.5,4.54,1,6.84,1.38a10.47,10.47,0,0,1,4.93,1.78,20.4,20.4,0,0,1,3.6,3.71c.17.23.33.48,0,.72s-.53,0-.73-.22l-1.57-1.85a9.16,9.16,0,0,0-5.69-3.18c-4.24-.65-8.38-1.74-12.56-2.59a14.56,14.56,0,0,1-6.21-2.74,1.62,1.62,0,0,1-.45-.41c-.87-1.54-1.88-3-2.88-4.45a10.6,10.6,0,0,1-1.81-4.47c-.08-.51-.27-1-.33-1.53-.2-1.69-1.42-2.41-2.87-3.13.15.29.22.48.32.64.69,1.24,1.38,2.48,2.05,3.72.16.29.34.6-.06.8s-.53-.13-.66-.39c-.95-1.73-1.91-3.45-2.86-5.19-.53-1-1-1.94-1.53-2.93a2.51,2.51,0,0,0-.56-.8,71.46,71.46,0,0,0-5.57-4.53C133.1,148.22,133,148.11,132.83,148.17Zm-62,41.9c0,.47,0,1,0,1.44a4.59,4.59,0,0,0,5.47,4.26,56.37,56.37,0,0,0,12.75-5.26c3.52-2,6.73-4.45,10.09-6.7.35-.24.8-.36.83-.91a.29.29,0,0,1,.39-.21c.39.18.63-.08.89-.25,2.37-1.58,4.65-3.3,7.06-4.82a12.06,12.06,0,0,1,5-1.89c.93-.13,1.86-.19,2.79-.36a25.43,25.43,0,0,0,5.33-1.89,3.48,3.48,0,0,1,2-.28l2.52.43c2.17.33,4.33.8,6.55.93.17,0,.42.12.49-.1a.6.6,0,0,0-.22-.61.84.84,0,0,0-.44-.22c-3-.87-5.95-1.66-9-2.38-.78-.19-1-.35-1-1.16,0-1,.18-1.36.91-1.52l2.38-.5,7.42-1.61c.17,0,.47,0,.4-.27-.11-.46-.25-.91-.86-1a7.28,7.28,0,0,0-2.42.09l-7.39,1.16a.87.87,0,0,1-1-.3,1.91,1.91,0,0,1,.52-2.89c3-2,5.93-3.93,8.83-6,.31-.22.59-.42.35-.85s-.57-.21-.87-.11a9,9,0,0,0-1.86.86c-3,1.76-6,3.48-9,5.25-.78.46-1,.18-1.94-.78-.5-.5.13-.69.36-1s.24-.29.36-.44c2.37-2.86,4.57-5.85,7.07-8.6.22-.25.47-.54.18-.88s-.63-.06-.89.17a59.18,59.18,0,0,0-4.37,4c-1.53,1.58-3,3.17-4.54,4.74a24.51,24.51,0,0,1-3.74,2.91c-.23.16-.48.22-.66-.05s0-.48.18-.64a1.36,1.36,0,0,1,.32-.21,1.85,1.85,0,0,0,1.19-2.06,2,2,0,0,1,.07-.48,10.93,10.93,0,0,0,0-4.11,3.62,3.62,0,0,0-.65-1.6c-.1-.13-.22-.3-.4-.24s-.15.28-.15.44a21.8,21.8,0,0,1-.18,2.68,6.6,6.6,0,0,1-1.36,4,2.22,2.22,0,0,0-.42.89c-.74,2.59-1.89,5-2.85,7.52a2.18,2.18,0,0,1-1.16,1.24c-1.49.71-2.93,1.49-4.43,2.14a87.83,87.83,0,0,1-17.55,5.36c-3.21.65-6.24,1.55-8.77,3.71-.24.2-.52.36-.75,0s-.05-.48.17-.64a15.69,15.69,0,0,1,5.7-3.13c2.16-.5,4.33-1,6.5-1.44a1,1,0,0,0,.69-.46q4-6.3,8.11-12.6c.2-.31.23-.48-.12-.73q-4.89-3.41-9.74-6.87c-.3-.21-.43-.25-.62.13-2.43,4.55-5.07,9-7.65,13.46-1.51,2.64-3.13,5.21-4.44,8C71.37,181,71.07,185.55,70.84,190.07Zm56.1,43.17c9.72,0,19.43.15,29.16,0,1.57,0,1.58,0,1.33-1.6-.87-5.53-1.81-11.05-2.59-16.61q-1.16-8.1-1.58-16.29-.44-8.4-.54-16.81a.67.67,0,0,0-.36-.66,41.92,41.92,0,0,0-6.42-3.56,2.06,2.06,0,0,0-1.78-.1c-6.46,2.4-13,4.68-19.47,7-.92.33-1.21.22-1.61-.69-1.2-2.69-2.41-5.39-3.58-8.1-.19-.45-.38-.53-.82-.34a11.26,11.26,0,0,1-3.56.87,13.47,13.47,0,0,0-7.1,2.44c-2.23,1.59-4.52,3.13-6.79,4.66a1.16,1.16,0,0,0-.57,1.06c-.15,3.83-.35,7.66-.66,11.49-.34,4.18-.77,8.35-1.19,12.51-.45,4.42-1,8.82-1.56,13.22-.39,3.14-.8,6.28-1.16,9.42-.16,1.39.15,1.7,1.51,1.73C107.38,233.11,117.16,233.13,126.94,233.24ZM138,151s.09,0,.12.07,0-.1,0-.17c-1.56-4.08-3.11-8.17-4.68-12.25-.33-.84-.35-.84-1.18-.56q-10,3.32-20,6.67c-1,.32-1.92.65-2.88,1-.29.1-.62.19-.42.65q1.27,2.91,2.53,5.84c.08.2.12.39.42.2a1.05,1.05,0,0,1,1.45.27A3,3,0,0,1,114,154a9.7,9.7,0,0,1,.31,4,9.6,9.6,0,0,0-.2,2.08c.3-.25.55-.43.76-.64l4.6-4.77a56.69,56.69,0,0,1,5.11-4.68,1.29,1.29,0,0,1,2.11.58,3.15,3.15,0,0,1,.08.71c.47-1.1.83-1.17,1.75-.46q3.33,2.59,6.54,5.32c.15.12.27.31.57.27a1.94,1.94,0,0,0-.48-.79,24.74,24.74,0,0,0-1.82-1.87,17.75,17.75,0,0,1-3.65-5.11,1.53,1.53,0,0,1,.32-1.94c.52-.37.93-.26,1.72.48.14.12.22.36.5.15s.82-.21,1.25.1C135,148.58,136.49,149.78,138,151Zm-2.22,5.73.1.07s0-.09-.05-.13-.08-.15-.17,0S135.73,156.65,135.76,156.68Zm48.2,34.9c-.23.14-.18.39-.24.6-.48,1.6-1.45,3.07-3.79,2.91a25.73,25.73,0,0,1-12.68-3.8c-2.41-1.56-4.79-3.19-7.11-4.86-2-1.43-4-2.76-6.07-4.06-.13-.08-.25-.22-.45-.2-.13.17-.06.35-.06.53.14,6.94.35,13.89.84,20.81.34,4.78.95,9.53,1.68,14.28.7,4.5,1.44,9,2.15,13.51a6.78,6.78,0,0,1,.09,1.8c-.08.59-.36,1-1,1-.44,0-.88.05-1.31.07H132.65L119.79,234l-21.48-.26c-.54,0-1.09-.08-1.62-.08a1.24,1.24,0,0,1-1.23-.87,3,3,0,0,1-.23-1.47q.55-4.65,1.13-9.31c.55-4.38,1.14-8.75,1.56-13.15.4-4.1.82-8.21,1.18-12.32s.56-8,.72-12c-.3,0-.45.17-.62.3-3.25,2.18-6.37,4.55-9.78,6.47a53.68,53.68,0,0,1-12.75,5.27,5.33,5.33,0,0,1-6.53-3.81,6.81,6.81,0,0,1-.17-1.49,44,44,0,0,1,1.33-11.32,26.31,26.31,0,0,1,2.83-6.37c2.78-4.83,5.53-9.69,8.36-14.49a48.29,48.29,0,0,0,5.32-12.53A32.63,32.63,0,0,1,92,137.59a12.38,12.38,0,0,1,5.91-4.52c.47-.21.7-.44.6-.95a5.22,5.22,0,0,1,0-.69.62.62,0,0,1,.47-.65c1.94-.69,3.76-1.65,5.66-2.43.41-.16.3-.41.22-.68a26.5,26.5,0,0,1-.85-5.3,2.73,2.73,0,0,1,1.43-2.65,35.24,35.24,0,0,1,11.92-4.53,14.74,14.74,0,0,1,1.49-.15.87.87,0,0,1,1,.93c.08,4.06.16,8.13.21,12.2a.6.6,0,0,0,.27.56c.35.26.69.54,1,.83.8.7,1.6,1.4,2.37,2.12a14.75,14.75,0,0,1,2,2.52c1.5-2.51,3.76-4.19,6-5.92.27-.21.21-.48.21-.73q0-5.56-.09-11.13c0-1.17.15-1.28,1.3-1.24,3.41.12,6.44,1.49,9.5,2.79,1.05.45,2.05,1,3.05,1.56a3.11,3.11,0,0,1,1.74,3.24,27.84,27.84,0,0,1-.82,4.8c-.11.42,0,.57.37.71,2,.75,4.08,1.53,6.13,2.28a1.11,1.11,0,0,1,.88,1.34c-.13,1.32-.1,1.36,1.13,1.83a12.2,12.2,0,0,1,5.82,4.8,47.22,47.22,0,0,1,5.76,12.26,179.75,179.75,0,0,0,13.25,30.58,71.72,71.72,0,0,1,3.46,7.75c.24.6.4,1.24.6,1.86A5.82,5.82,0,0,1,184,191.58Z"/><path d="M138,151c-1.49-1.17-2.95-2.37-4.47-3.49a1,1,0,0,0-1.25-.1c-.27.21-.36,0-.5-.15-.79-.74-1.2-.85-1.72-.47a1.51,1.51,0,0,0-.31,1.94,17.3,17.3,0,0,0,3.64,5.1,20.16,20.16,0,0,1,1.82,1.88,1.78,1.78,0,0,1,.48.79c-.29,0-.41-.15-.56-.28-2.15-1.81-4.32-3.59-6.55-5.32-.92-.72-1.28-.64-1.74.47a5.05,5.05,0,0,0-.09-.72,1.3,1.3,0,0,0-2.11-.57,56.57,56.57,0,0,0-5.11,4.68c-1.52,1.59-3.06,3.17-4.59,4.76-.22.22-.46.39-.76.64a8.49,8.49,0,0,1,.2-2.08,9.87,9.87,0,0,0-.32-4,3.19,3.19,0,0,0-.76-1.34,1,1,0,0,0-1.45-.26c-.3.18-.33,0-.42-.2-.84-2-1.67-3.91-2.52-5.85-.2-.46.13-.55.41-.65,1-.35,1.92-.67,2.88-1l20.06-6.67c.83-.27.86-.27,1.17.56l4.68,12.25C138,150.89,138,150.93,138,151Z" style="fill:#a6a4d6"/><path d="M99.83,152.78v3.63a1.33,1.33,0,0,1-.21.82c-.91,1.36-1.81,2.71-2.67,4.07-.24.38-.4.4-.75.14-3.23-2.3-6.49-4.59-9.74-6.88-.22-.15-.45-.25-.27-.63a74.11,74.11,0,0,0,2.66-7.86,30,30,0,0,1,4.67-9c1.23-1.61,3-2.42,4.82-3.26.32-.15.33.06.35.29.12,2.1.26,4.2.37,6.31.22,4.11.45,8.24.67,12.36Z" style="fill:#a6a4d6"/><path d="M154,145.68V134.87c0-.69,0-.66.64-.42a11.32,11.32,0,0,1,5.61,4.57,46.68,46.68,0,0,1,5.37,11.16c.53,1.64,1.09,3.28,1.68,4.89.15.42,0,.57-.32.75-3.52,1.74-7,3.49-10.55,5.24-.42.2-.58.18-.78-.27a40.49,40.49,0,0,0-1.7-3.74,1.1,1.1,0,0,1,0-.62C154,152.85,154,149.28,154,145.68Z" style="fill:#a6a4d6"/><path d="M133.6,164.57c.3-.09.38.16.52.27a13.51,13.51,0,0,1,3.37,5.25,12.72,12.72,0,0,0,4.83,5.89c.47.27,1,.51,1.43.77-.07.25-.28.23-.44.29-6.18,2.22-12.36,4.41-18.54,6.65-.6.21-.85.1-1.1-.48-1.11-2.58-2.25-5.14-3.41-7.71-.19-.41-.11-.53.29-.77,1.52-.95,3.08-.69,4.69-.38,2.25.43,4.5.82,6.77,1.05a2.43,2.43,0,0,0,.38,0c.54,0,1.17.12,1.39-.61a1.66,1.66,0,0,0-.91-1.87c-.83-.3-1.7-.54-2.56-.76-2.27-.6-4.54-1.19-6.81-1.75-.32-.08-.32-.25-.34-.51s.12-.52.47-.6l3.72-.77c2.08-.45,4.15-.9,6.21-1.37.8-.17,1-.48.71-1.25-.09-.26-.2-.5-.29-.75S133.63,164.84,133.6,164.57Z" style="fill:#a6a4d6"/><path d="M126.77,151.57c.08,1.23,1.07,1.86,1.73,2.7a17.69,17.69,0,0,1,1.23,1.37c-.53.29-1.07.57-1.58.87l-8.46,4.93c-.27.15-.49.32-.76,0s.06-.45.19-.61C121.65,157.76,124,154.57,126.77,151.57Z" style="fill:#a6a4d6"/><path d="M133.56,164.52c-2.47-.68-4.83.21-7.24.46-1.08.11-2.14.34-3.2.5-.25,0-.59.23-.67-.17s-.44-.87.12-1.23l2.86-1.9,2.8-1.88c.2-.14.38-.31.63,0a30,30,0,0,0,4.46,3.9C133.42,164.25,133.57,164.33,133.56,164.52Z" style="fill:#a6a4d6"/><path d="M130.64,158.71c1.18-1,1.18-1,2.18,0,.65.64,1.29,1.32,1.91,2,.11.13.31.23.24.51A25.85,25.85,0,0,0,130.64,158.71Z" style="fill:#a6a4d6"/><path d="M138.08,150.85c0,.05,0,.1,0,.17s-.08,0-.12-.07S138,150.89,138.08,150.85Z" style="fill:#a6a4d6"/><path d="M135.76,156.68a.44.44,0,0,1-.1-.11c.07-.11.11,0,.16,0Z" style="fill:#a6a4d6"/><path d="M135.82,156.61a.26.26,0,0,0,.05.12s-.08,0-.1-.06Z" style="fill:#a6a4d6"/></g><g style="clip-path:url(#f)"><path d="M291.71,185.23H.76V.76h291V185.23M0,0V186H292.49V0H0"/></g></svg>