<svg xmlns="http://www.w3.org/2000/svg" xmlns:xlink="http://www.w3.org/1999/xlink" viewBox="0 0 292.17 186.06"><defs><clipPath id="a"><polyline points="-156.66 -676.49 1283.34 -676.49 1283.34 141.01 -156.66 141.01" style="fill:none"/></clipPath><clipPath id="b"><polyline points="-156.66 -676.49 1283.34 -676.49 1283.34 133.51 -156.66 133.51" style="fill:none"/></clipPath><clipPath id="c"><rect x="92.78" y="0.83" width="199.5" height="171.62" style="fill:none"/></clipPath><clipPath id="d"><rect x="156.97" y="42.69" width="135.31" height="129.75" style="fill:none"/></clipPath><clipPath id="f"><polyline points="-519.22 -460.91 920.78 -460.91 920.78 349.09 -519.22 349.09" style="fill:none;clip-rule:evenodd"/></clipPath><clipPath id="g"><rect x="0.59" y="2.24" width="48" height="138.75" style="fill:none"/></clipPath><clipPath id="h"><rect x="0.03" y="0.83" width="22.5" height="18.75" style="fill:none"/></clipPath></defs><title>how_to_4</title><rect x="0.03" y="0.25" width="291.71" height="185.23" style="fill:#f8f4fc"/><g style="clip-path:url(#c)"><path d="M665.93,84.58V102c0,4.29-5.57,15.44-14.58,20.59s-46.72,10.72-58.72,10.72l-4.51.38c0-.39,0-.79,0-1.19a47.92,47.92,0,1,0-95.22,7.66l-2.34,0H244.4a48.53,48.53,0,0,0,.62-7.68,47.92,47.92,0,1,0-94.74,10.18l-2.64.07s-54,4.29-49.73-32.17,11.15-54.91,42.87-61.77S230,27.81,243.24,23.1s45.87-29.18,64.31-38.19S351.7-31,398.86-31s94.74-.43,130.74,9.87,70.31,40.33,80.17,40.33h29.58c5.57,0,11.58,3,11.58,14.58V70.28s15,8,15,14.3" style="fill:#fabd0b"/></g><g style="clip-path:url(#d)"><path d="M580.11,132.53a39.88,39.88,0,1,1-39.88-39.9,39.89,39.89,0,0,1,39.88,39.9m-187.84-79c-1.66-3.16-6.43-5.45-12-5.45s-10.39,2.29-12.05,5.45Zm-24.09,4.94c1.66,3.16,6.42,5.44,12.05,5.44s10.38-2.28,12-5.44Zm164-10.14c-1.66-3.16-6.43-5.44-12.05-5.44s-10.38,2.28-12,5.44Zm-24.09,5c1.66,3.16,6.42,5.44,12,5.44s10.39-2.28,12.05-5.44Zm-311,39.36A39.91,39.91,0,1,0,237,132.53,39.88,39.88,0,0,0,197.1,92.63Zm56.24,20,10.84-.07-.31-10.19-10.74.21Zm21.36-10.48L275,112.3l10.83-.21-.32-10.2Zm.63,20.39L275,112.3l-10.84.22.32,10.19Zm10.52-10.41.32,10.19,10.83-.21-.34-10.19Zm10.51-10.41.3,10.2,10.88-.22-.35-10.19Zm22.3,20-.32-10.2-10.8.22.29,10.19ZM318,101.25l.31,10.19,10.84-.21L328.86,101Zm22.3,20L340,111l-10.83.22.13,10.2Zm-.64-20.39L340,111l10.83-.21-.31-10.19Zm22.31,20-.32-10.19-10.84.21.32,10.19Zm-.64-20.39.32,10.2,10.83-.22-.32-10.19Zm22.37,20-.39-10.19-10.83.21.32,10.18ZM383,100l.32,10.2,10.83-.22-.31-10.19Zm22.7,20-.23-10.19-11.32.22.32,10.2Zm-.63-20.38.4,10.19,10.75-.21-.32-10.2Zm22,9.76-10.83.22.31,10.15,10.84-.18Zm-.32-10.19.32,10.19,10.83-.21-.31-10.2Zm22.3,20-.31-10.2-10.84.22.25,10.19Zm-.8-20.38.49,10.18,10.83-.21-.44-10.19Zm22.47,19.95-.32-10.2-10.83.22.32,10.19Zm-.64-20.39.32,10.19,10.83-.21L480.92,98Z" style="fill:#3e3b39"/></g><g style="clip-path:url(#c)"><path d="M402.09,39.69,258.53,43.8s9.72-16.52,43.26-37.4c29-18.06,63.58-23.55,109.48-25.09l-9.18,58.38m50-58.92c-10.2,0-19.91.06-29.18.24l-9.17,58.34,123.6-3.54V23.21C537.37,16.48,519.31-19.23,452.12-19.23Z" style="fill:#fbe68c"/><path d="M540.23,104.62a27.91,27.91,0,1,0,27.9,27.91,27.9,27.9,0,0,0-27.9-27.91m0,50a22.14,22.14,0,1,1,22.13-22.14A22.15,22.15,0,0,1,540.23,154.67Zm17.44-22.14a17.44,17.44,0,1,1-17.44-17.45A17.46,17.46,0,0,1,557.67,132.53ZM152.2,60.26V80.67l-44.8,1.65S111,66.67,121.62,61Zm62.34,72.27a17.44,17.44,0,1,1-17.44-17.45A17.46,17.46,0,0,1,214.54,132.53ZM197.1,104.62A27.91,27.91,0,1,0,225,132.53,27.9,27.9,0,0,0,197.1,104.62Zm0,50a22.14,22.14,0,1,1,22.13-22.14A22.15,22.15,0,0,1,197.1,154.67ZM324.18,38.15l-24.57,1.2L347.08-3.09a170.13,170.13,0,0,1,24.58-4.66ZM398-9.22,351.36,36.83l-20.71,1L378.8-8.49A190.47,190.47,0,0,1,398-9.22Zm52.42,41.63-24.57,1.2,47-47.1a125.54,125.54,0,0,1,19.82,4.26Z" style="fill:#fef7d2"/><path d="M399.58-31l4.71-26.13a6.34,6.34,0,0,1,6.24-5.22H417a6.34,6.34,0,0,1,6.24,5.22L428-30.91C418.55-31,409.06-31,399.58-31m-176,123.55,300.87-5.34a48,48,0,0,1,29.93-.54l113.47-2v-.16c0-2.53,0-6.51-4.21-7.79l-461,8.13A47.6,47.6,0,0,1,223.61,92.59ZM97.67,94.78l71.54-1.23a47.67,47.67,0,0,1,20.53-8.4l-87.82,1.56C98.27,87.78,97.67,92.21,97.67,94.78ZM624.9,61.26h23.18V32.66S624.9,30.59,624.9,61.26Z" style="fill:#e73f35"/></g><g style="clip-path:url(#f)"><path d="M291.4,185.23H.44V.76h291V185.23M-.32,0V186H292.17V0H-.32"/></g><g style="clip-path:url(#g)"><path d="M36.91,72.41c-.17-8.59-1.37-24.73-2-41.94-.5-14.77-5-70.18-5.55-77l.07.68c0-.29,0-.58-.08-.87,0,0,0,.1,0,.15a.89.89,0,0,1,0-.27s0,.06,0,.1a1.87,1.87,0,0,0,0-.25.15.15,0,0,0,0-.07,0,0,0,0,1,0,0,.09.09,0,0,0,0,0c-1.18-12.7-2.78-38.68-4-49.34s-3.6-33.88-3.6-33.88-46.11,1.34-53.83.66c0,0-4.3,47.41-3.62,57S-36.93-2.59-35.81,7-35,25.57-33,30c.12.28.25.56.38.83-.27,1.94,0,6.16,1.06,12V43h0c0-.11,0-.22-.07-.34s-.07-.37-.1-.54l.17.89c0,4.5,0,10.71,0,14.16C-31.43,63-28.06,112-28.06,112c3.39.65,6.79,1.38,10.19,1.69,1.05.09,2.09.14,3.14.14,5,0,6.87,0,9-.4,1.07-.2,2.19-.51,3.79-1,0,0-4.61-134.17-3.93-141.16s1.2-25.36,1.2-25.36,6.26,46,6.94,52.51,2.57,20.4,3.08,27c.3,3.88,8.38,81.82,8.83,86.88.05.49,2.54.73,5.24.84,2.38.11,4.92.13,6.12.19.62,0,3.24-.21,6-.57,3.52-.45,7.3-1.09,7.53-1.63C39.07,111.08,37.08,81,36.91,72.41Z" style="fill:#fff"/><path d="M21.13,113.41v10.36s8,3.26,10.43-.86c.17-3.12,0-9.77,0-9.77S26,113.53,21.13,113.41Z" style="fill:#fff"/><path d="M34,67.47C33.5,46.35,31.17,18.7,29.71-4.3s-2.48-32.8-4.89-58.55-1.72-20.78-3.26-40.87c-1.15-15.19-2.29-23.46-2.65-26.61h-51l-1.55,18.93-1.92,48.2s-.6,57.87-.6,64.39,1.12,15,1.42,19.22S-31.53,43-31.53,43l-.17,17.44L-28.07,112l15.45,1.83a28.86,28.86,0,0,0,8.92-1.07v-8.33L-5.19,50.3-7.6-3.79l.35-28.67L-6-57.53l3.48,19L4.2,14.59,10.29,74l3.89,38.26,9.13,1,13.46-1.35c-.09-.08-.26-.65-.37-3.89C36.26,103.67,34.43,88.58,34,67.47Z" style="fill:#a6a4d6"/><path d="M36.77,111.87s0,0,0,0Z" style="fill:#a6a4d6"/><path d="M26.43,41a.53.53,0,0,0,.34-.65.52.52,0,0,0-.65-.33c-1.76.56-3.07.57-3.8,0a1.76,1.76,0,0,1-.64-1.08c3.07-.83,7.48-3.92,8.53-8.73a.52.52,0,1,0-1-.22c-1,4.6-5.38,7.47-8.17,8.05a.51.51,0,0,0-.41.48,2.87,2.87,0,0,0,1.07,2.31,3.33,3.33,0,0,0,2.11.63A8.71,8.71,0,0,0,26.43,41Z"/><path d="M25.66,112.76h-.1l-2-.05c-1.22,0-2.71-.06-4.15-.13-3.53-.15-4.5-.42-4.76-.54-.08-.84-.29-2.93-.59-5.92a56.3,56.3,0,0,0,9,.7,50.55,50.55,0,0,0,15-2.17c.2,3.16.35,5.46.4,6.21-.51.25-2.43.74-7.07,1.34C28.77,112.55,26.4,112.76,25.66,112.76Zm5.44,8.1a7.86,7.86,0,0,0-2.13-.27,4.09,4.09,0,0,0-3.08,1.85,3.53,3.53,0,0,1-1.24,1.1,3,3,0,0,1-1,.18,2.3,2.3,0,0,1-2-1.43v-8.35c3.81.07,7.94-.16,9.39-.25C31.07,115,31.14,118.25,31.1,120.86ZM10.88,74.73C8.61,52.58,6,27.47,5.87,25.33c-.32-4-1.17-11-1.92-17C3.48,4.47,3,.86,2.78-1.64,2.11-8.1-4.1-53.71-4.16-54.17a.52.52,0,0,0-.54-.44.51.51,0,0,0-.49.5c0,.18-.52,18.44-1.2,25.33C-7-22.74-3.7,75.79-2.72,104.7c-10.75,1.13-23-.75-25.4-1.14-1-14.25-2.81-42.12-2.87-46.4,0-2.15,0-5.31,0-8.67l0,.18a.51.51,0,0,0,.5.43h.08a.53.53,0,0,0,.44-.59s0-.08-.05-.24l0-.22L-31,43a.71.71,0,0,0,0-.16,62.25,62.25,0,0,1-1.14-10,25.67,25.67,0,0,1,1.94,5.78.52.52,0,0,0,.52.52.51.51,0,0,0,.51-.52c0-1.31-1.66-5.48-3.09-8.66a.53.53,0,0,0-.3-.27c-1.23-2.86-1.55-7.59-1.91-13.06-.21-3.07-.42-6.24-.8-9.57-.61-5.27-.31-26.46,0-45.15.23-15.51.44-30.16.13-34.5-.63-8.93,3.12-51.31,3.58-56.44,1.59.1,4.35.16,8.23.16,14.52,0,40.8-.73,44.66-.84.35,3.36,2.43,23.61,3.56,33.41.23,2,.48,4.68.74,7.66h0c-.64-.08-15-.69-15.53.76a28.1,28.1,0,0,0-.6,4.84.59.59,0,0,0-.05.23.47.47,0,0,0,0,.17c-.15,3.61.2,8.23,2.31,11.16a7,7,0,0,0,6,3c4.63,0,7.74-.59,9.31-1.73l.15,2c.6,8.15,1.17,15.86,1.68,21.29a.28.28,0,0,0,0,.09.57.57,0,0,0,0,.13v.12c0,.08,0,.15,0,.23l0,.35C30.42-27.49,34,17.37,34.44,30.49c.3,8.92.77,17.46,1.18,25,.37,6.87.69,12.8.77,16.93.12,5.82,1.08,21.66,1.68,31.18-10.84,3.49-21.8,1.86-24.09,1.46C13.26,97.94,12.09,86.56,10.88,74.73ZM-2.47,112c-1.38.38-2.39.66-3.36.83-2.08.4-3.94.4-8.9.4-1,0-2,0-3.09-.15a81.7,81.7,0,0,1-8.5-1.36l-1.26-.24c-.06-.93-.24-3.45-.47-6.9a121,121,0,0,0,17.94,1.47,70.49,70.49,0,0,0,7.42-.37C-2.58,108.86-2.51,111.06-2.47,112Zm-8.06,10.89a2.33,2.33,0,0,1-2,1.44,3.08,3.08,0,0,1-1-.19,3.61,3.61,0,0,1-1.24-1.1,4.11,4.11,0,0,0-3.17-1.85h0a7.89,7.89,0,0,0-2,.26c0-2.6,0-5.89.07-7.16,1.45.09,5.57.31,9.39.25ZM26-83.43H10.45a29.15,29.15,0,0,1,.49-4.06c1.53-.46,12.7-.6,14.71-.2C25.77-86.33,25.88-84.9,26-83.43Zm.9,11.78c-.56.76-2.5,2-9.21,2a6,6,0,0,1-5.13-2.48C10.65-74.74,10.3-79,10.41-82.4H26.08C26.35-79,26.63-75.33,26.9-71.65ZM44.22,132.17a25.76,25.76,0,0,1-5.9-3.29,28.4,28.4,0,0,1-4.91-5.42c-.3-.43-.59-.84-1-1.3a1.76,1.76,0,0,1-.2-.34,2.39,2.39,0,0,0-.13-.21c.08-3.25-.06-8-.07-8.45,7.08-.93,7.34-1.52,7.49-1.88a.37.37,0,0,0,0-.23c0-.3-2-30.18-2.16-38.65-.08-4.15-.4-10.09-.77-17-.41-7.53-.88-16.06-1.18-25-.45-13-4-57.37-5.5-76.28,0,0,0-.07,0-.1l-.07-.78s0,0,0-.06a.46.46,0,0,0,0-.21v0s0,0,0-.06a.45.45,0,0,0,0-.11.13.13,0,0,0,0-.06c-.5-5.41-1.07-13.09-1.68-21.22-.07-1-.14-2-.22-3a1.77,1.77,0,0,0,.14-1.37.51.51,0,0,0-.26-.28c-.69-9.25-1.39-18.21-2-23.46-1.22-10.65-3.58-33.64-3.6-33.88a.52.52,0,0,0-.53-.46c-.29,0-29.5.85-45.11.85-4.31,0-7.22-.06-8.66-.19a.52.52,0,0,0-.55.47c-.18,1.94-4.3,47.57-3.63,57.11.31,4.3.1,18.93-.13,34.42-.28,19.64-.57,39.94,0,45.28.39,3.3.6,6.46.8,9.52.37,5.71.7,10.63,2.08,13.64.08.18.17.37.26.55l.06.15c-.25,2.15.1,6.25.92,11.12a.57.57,0,0,0,0,.13l.16.85c0,5.14,0,10.83,0,14.12.07,5.79,3.41,54.32,3.44,54.81a.51.51,0,0,0,.42.47l1.65.33c1.82.35,3.7.71,5.57,1,0,.26-.15,5.17-.07,8.48l-.13.22a1.71,1.71,0,0,1-.2.33c-.37.46-.66.88-1,1.31a29,29,0,0,1-4.91,5.42,26.43,26.43,0,0,1-5.89,3.29c-3.59,1.66-6.69,3.1-6.52,4.94.14,1.41,2.18,2.54,6.63,3.65a23,23,0,0,0,5.56.73c5,0,8.21-1.95,11.08-3.66.75-.45,1.46-.88,2.17-1.25a16.91,16.91,0,0,1,2.87-.91,10.84,10.84,0,0,0,2.3-.74c1.81-1.11,1.39-2.73.95-4.45a9.61,9.61,0,0,1-.37-4.55c.37-1.8.29-3-.23-3.62a1.35,1.35,0,0,0-.85-.47v-8.23a24.33,24.33,0,0,0,3.87-.37c1.09-.2,2.23-.51,3.83-1a.51.51,0,0,0,.38-.51C-1.48,111.07-6-21.81-5.37-28.68c.43-4.36.8-13.24,1-19.25C-2.64-35.2,1.23-6.54,1.75-1.53,2,1,2.46,4.59,2.93,8.41c.75,6.08,1.59,13,1.91,17,.16,2.15,2.74,27.27,5,49.43,1.22,11.89,2.4,23.35,3.12,30.46a.59.59,0,0,0,0,.08.5.5,0,0,0,.09.4c.35,3.44.58,5.77.65,6.51s.5,1.1,5.72,1.32l1.22,0v8.19a1.37,1.37,0,0,0-.85.47c-.52.64-.59,1.82-.22,3.62a9.74,9.74,0,0,1-.37,4.55c-.44,1.72-.86,3.34.94,4.45a11.12,11.12,0,0,0,2.29.74,17.22,17.22,0,0,1,2.89.91c.71.37,1.42.8,2.17,1.25,2.87,1.71,6.12,3.66,11.07,3.66a23.06,23.06,0,0,0,5.57-.73c4.44-1.11,6.49-2.24,6.62-3.65C50.9,135.27,47.8,133.84,44.22,132.17Z"/></g><g style="clip-path:url(#h)"><rect x="0.03" y="0.83" width="22.5" height="18.75"/></g><g style="clip-path:url(#f)"><path d="M13.34,12.72c0,.08-.05.12-.14.12l-.68,0a.48.48,0,0,0-.18,0s-.06.09-.06.19,0,.38,0,.7,0,.54,0,.7-.06.15-.17.17a4.66,4.66,0,0,1-.77,0q-.93,0-.93-.15a6.08,6.08,0,0,1,.07-.73,6.14,6.14,0,0,0,.07-.79c0-.1,0-.15-.11-.15-.36,0-.89,0-1.61,0l-1.6,0c-.27,0-.4-.27-.4-.82A1.4,1.4,0,0,1,7,11.28c.3-.35.74-.89,1.31-1.6Q9.42,8.18,10,7.28l.57-.86a.26.26,0,0,1,.21-.14,4.6,4.6,0,0,1,1.4.34.26.26,0,0,1,.2.25c0,.22,0,.56-.05,1s-.05.79-.05,1v1c0,.44,0,.79,0,1v.54l.51,0,.5,0s.05,0,.05.11,0,.31,0,.56ZM10.87,8a.09.09,0,0,0,0-.08s-.09.08-.17.23-.09.19-.14.28c-.76,1-1.53,2.06-2.29,3.1,0,.05.2.08.54.08H9c.73,0,1.28,0,1.65,0,0-.54,0-1.08,0-1.63a11.52,11.52,0,0,1,.11-1.59C10.85,8.13,10.87,8,10.87,8Z" style="fill:#fff"/></g></svg>