<svg xmlns="http://www.w3.org/2000/svg" xmlns:xlink="http://www.w3.org/1999/xlink" viewBox="0 0 292.34 186"><defs><clipPath id="a"><rect x="-5.27" y="-69.99" width="94.5" height="39" style="fill:none"/></clipPath><clipPath id="b"><rect x="146.6" y="-145.29" width="145.5" height="113.25" style="fill:none"/></clipPath><clipPath id="c"><rect x="70.79" y="-102.98" width="114" height="71.25" style="fill:none"/></clipPath><clipPath id="d"><rect x="0.22" y="11.73" width="106.24" height="81" style="fill:none"/></clipPath><clipPath id="e"><rect x="-0.88" y="74.71" width="174" height="111.75" style="fill:none"/></clipPath><clipPath id="f"><rect x="-0.41" y="0.83" width="22.5" height="18.75" style="fill:none"/></clipPath><clipPath id="g"><polyline points="-518.5 -198.41 921.5 -198.41 921.5 611.59 -518.5 611.59" style="fill:none;clip-rule:evenodd"/></clipPath><clipPath id="h"><polyline points="-155.94 -247.31 1284.06 -247.31 1284.06 570.19 -155.94 570.19" style="fill:none"/></clipPath><clipPath id="i"><polyline points="-155.94 -247.31 1284.06 -247.31 1284.06 562.69 -155.94 562.69" style="fill:none"/></clipPath></defs><title>how_to_2</title><rect x="0.74" y="0.12" width="291.71" height="185.23" style="fill:#f8f4fc"/><g style="clip-path:url(#a)"><path d="M77.4-34.79S87,22.33,86,26.44s-.63,5.62-.63,5.62,3.2,8.3,1.25,10-11,3.12-12.18,1.87-1.78-9.81-2.67-11.15a18.63,18.63,0,0,1-1.51-3.22s.8-45.07,1.78-48.55,1.15-14.28,2.31-14.9A10.25,10.25,0,0,1,77.4-34.79Z" style="fill:#ffe500"/><path d="M70.74,29.38a11.39,11.39,0,0,0,1.42,3A22.68,22.68,0,0,1,73.4,37.6c.45,2.41.89,5.35,1.42,6,.8,1,9.52-.27,11.56-2,1.34-1.07-.18-6.33-1.33-9.46,0-.09-.45-1.69.62-5.89.8-3.12-5.24-40.79-8.53-60.6a11,11,0,0,0-2.49.71c-.45.45-.89,4.47-1.16,7.41a50.51,50.51,0,0,1-1,7.23C71.54-15.6,70.74,27.24,70.74,29.38Zm6,15.45c-1.33,0-2.31-.18-2.67-.63-.62-.71-1.06-3-1.6-6.43A23.84,23.84,0,0,0,71.45,33a17.78,17.78,0,0,1-1.51-3.3v-.18c0-1.87.8-45.16,1.77-48.64a47.73,47.73,0,0,0,.89-7c.54-5.44.8-7.67,1.6-8.12a11.44,11.44,0,0,1,3.2-.89l.45-.09.09.44c.35,2.32,9.6,57.3,8.62,61.41-1,3.84-.62,5.35-.62,5.35.35.81,3.29,8.57,1.06,10.45C85.31,43.58,80.07,44.83,76.78,44.83Z"/><path d="M5-33.81S-3.14,23.94-2.16,28.05s.62,5.62.62,5.62-3.2,8.3-1.24,10,11,3.12,12.17,1.87,1.78-9.82,2.67-11.16a18.71,18.71,0,0,0,1.51-3.21s-.8-45.07-1.77-48.55S10.64-31.66,9.48-32.29A23.77,23.77,0,0,0,5-33.81Z" style="fill:#ffe500"/><path d="M5.31-33.27c-2.85,20.08-7.83,58-7,61.14,1.07,4.1.62,5.71.62,5.8-1.24,3.12-2.66,8.48-1.33,9.55,2.05,1.69,10.67,2.85,11.56,2,.53-.62,1.07-3.57,1.42-6s.8-4.46,1.25-5.17a16,16,0,0,0,1.42-3c0-2.14-.8-45-1.78-48.37a52.22,52.22,0,0,1-1-7.23c-.26-2.95-.62-7-1.15-7.41A30,30,0,0,0,5.31-33.27ZM7,46.34c-3.28,0-8.53-1.16-10-2.5C-5.27,42-2.34,34.29-2,33.4c0,0,.26-1.52-.63-5.26-1.06-4.11,6.76-59.71,7.12-62l.08-.45.45.09a28.86,28.86,0,0,1,4.71,1.52c.8.44,1.07,2.67,1.6,8.12a64.58,64.58,0,0,0,.89,7.05c1,3.48,1.78,46.77,1.78,48.64v.18a13.77,13.77,0,0,1-1.51,3.3,25.3,25.3,0,0,0-1.07,4.82c-.53,3.39-1,5.62-1.6,6.43A5.59,5.59,0,0,1,7,46.34Z"/><path d="M25.84-57.1s-1,.71-4.27,3.57-4.44,8.39-8.35,11.6-6.14,4.64-8,6.7c-1.34,1.42,2.93,8,3.46,9.37,5.6,13.92,3.47,30.08,4.09,44.71.18,5.27.45,10.45.63,15.71v.27s4.26.36,5.6,0,13.51,1.34,16.71.18,10-2.06,12.45-1.25,10,2.14,15.37,1.69S70,34,70,34s-.17-43.11,3.29-54.45,5.34-14,3.74-15.44S68.42-42.73,64.78-50s-4.89-6.07-7.11-6S25.84-57.1,25.84-57.1Z" style="fill:#fff"/><path d="M45.67,33a11.87,11.87,0,0,1,2.75.27A50.43,50.43,0,0,0,63.62,35a21.33,21.33,0,0,0,6.14-1.16c0-3.93,0-43.38,3.29-54.36,1.06-3.66,2-6.42,2.75-8.48,1.51-4.46,2-5.8,1.07-6.51-.18-.18-.53-.45-.89-.8-2.49-2.15-8.27-7.06-11.56-13.48-3.11-6.16-4.26-6-5.86-5.8-.27,0-.54.09-.8.09-2.14.17-29.16-1-31.74-1.16-.36.26-1.51,1.16-4.09,3.48A20.62,20.62,0,0,0,18.37-48a19.59,19.59,0,0,1-4.71,6.43c-1.42,1.16-2.58,2.14-3.64,2.94A39.32,39.32,0,0,0,5.75-35c-.8.81,1.69,5.45,2.67,7.14.44.81.71,1.34.89,1.7C13.48-15.69,13.4-4,13.31,7.25c0,3.84-.09,7.77.09,11.51L14,34.38a23.62,23.62,0,0,0,5.06,0c.54-.18,2.14-.09,5.07.18,4.09.27,9.69.72,11.65,0A35.4,35.4,0,0,1,45.67,33Zm15.55,3A53.42,53.42,0,0,1,48.07,34.2c-2.23-.71-9,.18-12.18,1.25-2.14.72-7.65.36-12,0a35.92,35.92,0,0,0-4.81-.17,30.94,30.94,0,0,1-5.77,0H13L12.86,34l-.62-15.18c-.18-3.75-.09-7.67-.09-11.51.09-11.25.18-22.85-3.91-33-.09-.27-.45-.9-.8-1.61-2-3.66-3.65-7-2.49-8.21a38.74,38.74,0,0,1,4.36-3.75c1.06-.8,2.22-1.78,3.64-3,2.05-1.69,3.29-4,4.53-6.24a22.08,22.08,0,0,1,3.74-5.36c3.2-2.85,4.27-3.57,4.27-3.66l.08-.09h.18c.27,0,29.61,1.25,31.83,1.16.27,0,.53-.09.71-.09,2.13-.26,3.56-.08,6.84,6.25S74-39.07,76.43-37c.35.36.71.63.88.8,1.34,1.25.72,2.95-.8,7.5-.62,2.14-1.6,4.82-2.66,8.39C70.47-9.17,70.65,33.58,70.65,34v.17l-.18.18c-.09.09-1.33,1-6.76,1.52C62.91,35.9,62.11,36,61.22,36Z"/><path d="M20.77,34.92c0-.36-3.55-39.81-4.09-53.91-.53-13.92-7.2-19.37-7.29-19.46l.54-.71c.27.27,7,5.8,7.64,20.08C18.2-5,21.66,34.38,21.66,34.83Z"/><path d="M74-38.45s-7.55,6.07-8.17,20.35-2.23,53.46-2.23,53.46" style="fill:#fff"/><path d="M64.07,35.45h-.89S64.87-3.73,65.4-18s8-20.44,8.36-20.7l.53.71c-.09.09-7.38,6.16-8,20.08C65.76-3.82,64.07,35.45,64.07,35.45Z"/></g><g style="clip-path:url(#b)"><path d="M304.05,41.85c.06-.14.17-.35.21-.46A1.78,1.78,0,0,1,304.05,41.85ZM232.41-85.47l.14-3,.12-.07ZM301.52,18.38a17.1,17.1,0,0,1-4.78,1.7l-.69.12.68-.12a22.41,22.41,0,0,0,4.78-1.7c2.9-1.32,3.56-2.75,2.9-8.08l-.09,0a9.2,9.2,0,0,0,.92-1.09A12.72,12.72,0,0,0,307.36,0a23,23,0,0,0-.78-3c-3.36-9.07-19.49-47.25-21.14-51.22-.07-.19-.11-.29-.05-.14-1.19-2.9-8.5-21.37-12.15-25.52-4-4.54-8.53-5.93-12-6.86-2.81-.75-4.63-1.51-7.21-2.16a31.33,31.33,0,0,1-.73-6c0-1.84-1.22-1.71-5.7-1.3a35.48,35.48,0,0,0-14.64,4.47l-.25,3.06c-6.34,1.7-14.24.05-18-.48a105.73,105.73,0,0,0-14-.71,7.27,7.27,0,0,0-.8-4.38c-2.2-3-8-4.5-10.29-8.78s-8.4-15.2-10.74-19.22c-1.87-3.18-2.62-3.34-3.51-2.73l-3-5-.91.69-.13.1a38.38,38.38,0,0,1-2.09-3.65l-.26-.48c-1.62-3.17-2.83-8.43-4.36-7.77s.07,5.74.4,6.85l-.55-.06c-3.7-.39-7.32-1.54-8.86-1.39l-.55,0c-.48-.69-1.27-2-1.72-2.73-1.33-2.28-2.24-5-2.62-5-.63,0-.85.7-.91,1.33-.41-1.49-.6-2.82-1.37-2.63-1.26.3-.46,4.08.47,6.63s1.47,5.44,2.69,6.73,2.24,1.83,5.09,2.75a13.59,13.59,0,0,1,5.55,3.09,17.42,17.42,0,0,1,1.7,1.93l-.94.7s3.36,6.09,5.44,7.25c.37.2,4,20.13,4.63,25.1,1.34,9.91,4.61,16.1,9.35,18.17,6.86,3,22.31,6.41,29.5,8.48,2.19.64,8.56,3.24,8.56,3.24,0,.36.07.72.11,1.07v.08c.31,3.65.13,6.85,2.13,12.5,2.55,7.18,1.06,10.53,1.53,13.32.38,2.22,6.9,6.73,18.25,6.74,12,0,18.14-3.23,18.14-3.23l.39-.18c4.49-2,3.45-7.7,3.61-11.47.14-3.61,0-8.39.88-12.94.28,0,7.55,18.59,11,49.11,1.35,11.9,6.1,16.93,6.13,17a9.76,9.76,0,0,0,6,3.34c.66.08,1.33.12,2,.14l-.8.26c-.06,1.52-.11,4.87,3,5.34h0a41.61,41.61,0,0,0-.78,4.13c-.46,4.16-.61,8.18,2,10.18s3.54,5.09,4.31,5.25-.35-4.44-1.89-7.1c-1.42-2.45-.42-5.7.35-4.17s4.47,8.65,4.62,10.18c.12,1.26.56,4.1.87,4.34a.06.06,0,0,0,.05,0h0s0,.07,0,.06A4,4,0,0,0,304,41.94l.05-.08c0,.1-.06.16,0,.11a6.86,6.86,0,0,0,1.86-4.12,59.93,59.93,0,0,0-1.7-13.26C303.62,22.2,302.58,20.63,301.52,18.38Z" style="fill:#fff"/><path d="M232.41-85.47l.14-3,.12-.07ZM306.18.47s-.65-2.9-1-3.93c-3.4-9.19-19-44.61-20.3-47.7,1.06,2.83-1.14-2.84-.92-2.24-1.19-2.91-8.29-21.15-11.94-25.3-4-4.54-7.61-5.54-11.1-6.47-2.81-.75-5.59-1.2-8.16-1.85-.05-.45-.13-1-.23-1.68l1.52,0-.27-.07c-.41-.1-.85-.21-1.3-.3a50.85,50.85,0,0,1-.57-5.86c0-.65-1.46-.31-5.7.23-2.64.34-13.32,4-13.32,4l-.16,2c-6.34,1.7-14.23.05-18-.48a105.66,105.66,0,0,0-14-.71,7.2,7.2,0,0,0-.8-4.38c-2.2-3-8-4.5-10.29-8.78s-8.39-15.2-10.74-19.22c-1.87-3.18-2.62-3.34-3.5-2.73l-3-5-.91.69-6,4.58-1.33,1-1.09.81s3.36,6.09,5.44,7.25c.37.2,4,20.13,4.63,25.1,1.34,9.91,4.61,16.1,9.35,18.17C189.35-69.46,204.8-66,212-64c2.19.64,8.55,3.24,8.55,3.24,0,.35.07.7.11,1.05,0,.11,0,.22,0,.33v0c.3,3.58.15,6.76,2.12,12.32,2.56,7.18,1.07,10.53,1.53,13.32.38,2.22,6.9,6.73,18.26,6.74,12,0,18.13-3.23,18.13-3.23l.39-.18c4.49-2,3.45-7.7,3.61-11.47.14-3.58,0-8.3.86-12.81l0,.17a2.34,2.34,0,0,0,0-.26c.6.88,7.59,19.3,11,49.07,1.35,11.9,6.09,16.94,6.13,17a9.71,9.71,0,0,0,6,3.34c.72.09,1.46.13,2.19.15l-1,.25c-.06,1.52-.11,4.87,3,5.34a10.13,10.13,0,0,0,3.11-.1l.69-.12h0c1.7-.34,5.61-.92,6.14-2.46.29-.84.79-1.57-.13-5.91a11.91,11.91,0,0,0,2.47-2.46C306.73,7.19,306.68,4.67,306.18.47Z" style="fill:#fdfdf3"/><path d="M296.64,19.63a10.62,10.62,0,0,1-3.63.21,3.65,3.65,0,0,1-.79-.21h0a2.51,2.51,0,0,1-.6-.36l0,0a2.79,2.79,0,0,1-.44-.47l0,0a3,3,0,0,1-.3-.56l0-.06a4.21,4.21,0,0,1-.2-.63s0,0,0-.06q-.07-.33-.12-.69v-.06c0-.23,0-.48-.05-.72v0c0-.26,0-.51,0-.75l1.65,0c2,0,3.55-.14,3.66-.15.41,0,.81-.11,1.21-.19l.31-.07c.33-.07.66-.16,1-.25l.16,0c.36-.12.71-.24,1.05-.38l.24-.09c.29-.12.57-.25.84-.38l.16-.08c.32-.16.63-.33.92-.5l.1-.06.79-.51.09-.06A13.63,13.63,0,0,0,304,11.24h0c0,.19,0,.37.05.55a2.64,2.64,0,0,1,0,.28c0,.16,0,.31,0,.46s0,.2,0,.29,0,.27,0,.4v.27c0,.13,0,.24,0,.35a2.17,2.17,0,0,1,0,.26,3,3,0,0,1,0,.31l0,.23a2.33,2.33,0,0,1-.05.28,1.55,1.55,0,0,1,0,.21l-.06.24-.06.2-.08.21c0,.06-.05.12-.08.17a1.14,1.14,0,0,1-.1.19.86.86,0,0,1-.1.16,1,1,0,0,1-.11.17l-.12.15-.13.15-.15.13a1.85,1.85,0,0,1-.14.14l-.18.13-.15.11-.21.13-.16.1-.27.15-.15.08-.45.21A22.43,22.43,0,0,1,296.64,19.63ZM283,10.89c-.05-.05-4.68-5.06-6-16.69a245.66,245.66,0,0,0-6.69-36.06L270.3-42v0a.57.57,0,0,1,0-.14l0-.07-.06-.19v0l-.06-.22,0-.1-.09-.32v0l-.38-1.31a1,1,0,0,0-.05-.16l-.09-.33-.06-.21-.09-.3c0-.08-.05-.15-.07-.23l-.09-.32c0-.08-.05-.16-.08-.25l-.09-.31c0-.08-.05-.17-.08-.25s-.07-.25-.11-.37l-.06-.21c-.06-.19-.12-.37-.17-.56s-.07-.2-.1-.3l-.09-.29c0-.1-.06-.21-.1-.31a2.76,2.76,0,0,0-.08-.27c0-.11-.07-.21-.1-.32l-.09-.26c0-.11-.07-.21-.1-.32a2.58,2.58,0,0,1-.08-.26c0-.1-.07-.21-.11-.31a2.25,2.25,0,0,0-.08-.24c0-.11-.07-.22-.11-.33l-.06-.18-.41-1.15-.06-.16c0-.1-.08-.2-.11-.29a.87.87,0,0,0-.07-.17l-.1-.27c0-.05-.05-.1-.07-.16l-.1-.24-.06-.14c0-.08-.07-.16-.1-.23l-.06-.12-.09-.2a.41.41,0,0,1-.05-.09c0-.07-.07-.13-.1-.19h0a24.13,24.13,0,0,0,.24-3.85v-.32c.09-8.8-2.2-11.12-2.29-11.22a.47.47,0,0,0-.65,0,.47.47,0,0,0,0,.66s2.1,2.24,2,10.54v.32a28.44,28.44,0,0,1-.2,3.53.46.46,0,0,0-.07.16,62.92,62.92,0,0,0-.82,10.34c0,.94,0,1.83-.07,2.67,0,.67,0,1.41,0,2.17,0,3.46.1,7.39-3.33,8.9l-.41.19c-.06,0-6.16,3.18-17.87,3.18h0c-11.58,0-17.51-4.61-17.81-6.35a14,14,0,0,1,0-2.78,24.67,24.67,0,0,0-1.5-10.62,33.46,33.46,0,0,1-2-10.35c0-.68-.08-1.35-.14-2v-.12h0a22.56,22.56,0,0,1,1.15-6.76l.09-.27.22-.66c.11-.29.22-.55.31-.78C224.55-72,226-75.73,226-75.77a.47.47,0,0,0-.27-.6.46.46,0,0,0-.59.27s-1.42,3.73-3.07,7.54c-.08.17-.16.37-.24.58a.69.69,0,0,1-.05.13c-.08.22-.16.44-.24.68a.14.14,0,0,1,0,.06c-.08.25-.16.5-.24.77a.25.25,0,0,1,0,.07c-.08.29-.17.58-.25.89v0a24.39,24.39,0,0,0-.74,4l-1.78-.71h0l-.6-.24-.07,0-.57-.23-.12,0-.58-.23-.1,0-1.36-.52-.14-.05-.48-.18-.23-.08-.38-.14-.23-.08-.34-.12-.22-.08-.33-.11-.16-.05-.43-.13C210-65,207-65.8,203.88-66.6c-7.32-1.87-16.44-4.2-21.21-6.28s-7.77-8.19-9.07-17.81c0-.25-4-25-4.87-25.44-1.5-.84-4-4.85-5.06-6.72l.3-.22a.28.28,0,0,0,.12,0h.07a.48.48,0,0,0,.28-.1l.91-.69,3.57,6.18a.46.46,0,0,0,.4.24.41.41,0,0,0,.23-.07.47.47,0,0,0,.17-.63l-3.63-6.29.49-.36.56-.43,2.83,4.25a.48.48,0,0,0,.39.21.49.49,0,0,0,.25-.08.47.47,0,0,0,.13-.64l-2.86-4.3,3.93-3a.49.49,0,0,0,.14-.18s0,0,0,0a.39.39,0,0,0,0-.21h0l.31-.24,2.67,4.5a.37.37,0,0,0,0,.18h0a.43.43,0,0,0,.06.18l.15.25a.45.45,0,0,0,.4.23.39.39,0,0,0,.23-.07.46.46,0,0,0,.16-.63l0-.07h0a.52.52,0,0,1,.19-.06h.15c.49.11,1.23,1,2.26,2.77,2.32,4,8.38,14.84,10.74,19.21,1.37,2.54,3.92,4.15,6.17,5.56a15.29,15.29,0,0,1,4.15,3.27,2.46,2.46,0,0,1,.19.32c0,.07.07.15.11.24l.06.12c0,.11.08.24.11.36s0,0,0,0,.07.3.1.46h0a11.47,11.47,0,0,1,.13,2.38h0a4.83,4.83,0,0,0,0,.93,39.81,39.81,0,0,1-1.43,7.35v0a.46.46,0,0,0,.3.58l.14,0a.47.47,0,0,0,.44-.33,41.44,41.44,0,0,0,1.43-7v0l.06,0c1.78.59,2.31,5.92,2.22,9.15a.47.47,0,0,0,.45.47h0a.46.46,0,0,0,.46-.45c0-.92.15-9.05-2.86-10.05a.39.39,0,0,0-.15,0l-.13,0h0s0-.08,0-.13h4.85l.55,0H207l.56,0h.38l.59,0,.38,0,.59,0,.4,0,.58,0,.4,0,.6,0,.37,0,.63.06.34,0,.66.07.29,0,.92.13c.48.06,1,.15,1.64.25,3.89.61,10.3,1.62,15.76.4L232-85.5a.47.47,0,0,0,.44.49.48.48,0,0,0,.49-.43l.27-3.28h0l.23-2.82a36,36,0,0,1,14.25-4.28h.1c2.75-.25,4.42-.41,4.89,0,.09.09.21.27.2.81a18.44,18.44,0,0,0,.46,4.48c.09.43.16.84.22,1.24h0L253-89.4l-.24,0-.35-.07-.3,0-.31-.05-.34,0-.28,0h-.64l-.39,0-.25,0a3.48,3.48,0,0,0-.44.1l-.21,0a4.19,4.19,0,0,0-.63.26.46.46,0,0,0-.21.62.46.46,0,0,0,.62.21c1.13-.56,3.68-.17,4.63,0h0l.37.07,1.56.27,1.91.59c1.1.36,2.23.73,3.59,1.09,3.7,1,8,2.39,11.79,6.72,2.22,2.52,6.18,10.8,11.75,24.59l.31.79.31.81a2,2,0,0,1,.11.3h0a1.45,1.45,0,0,0,.12.22L287-49.34c4.89,11.65,16.35,38.93,19.13,46.43A23.63,23.63,0,0,1,306.9,0a12.25,12.25,0,0,1-2,9,13.89,13.89,0,0,1-9.26,5.15,40.39,40.39,0,0,1-6.82,0A9.32,9.32,0,0,1,283,10.89ZM165.51-133.84l.39,0,.67.06,1,.11h0a4.36,4.36,0,0,1,.62.13h0l.21.09h0l.16.1h0a.8.8,0,0,1,.13.13h0l.13.26.09.15a3,3,0,0,0,.15.32l.07.14.12.24a1.28,1.28,0,0,1,.11.2l.12.21.14.26.11.18a3.49,3.49,0,0,0,.18.31l.08.14.21.35.07.12.21.35.08.13c.07.1.13.21.19.31l.06.09-1.64,1.24-5.07,3.84h0c-.25-.32-.5-.62-.74-.88s-.49-.52-.72-.74a13.81,13.81,0,0,0-5.72-3.2c-2.77-.9-3.74-1.41-4.89-2.62a12,12,0,0,1-1.85-4.28c-.24-.77-.48-1.55-.75-2.3-.93-2.55-1.34-5.13-.93-5.88a.21.21,0,0,1,.18-.14c.2.06.45,1.05.6,1.63.05.2.11.41.16.62a.64.64,0,0,0,0,.07c.07.28.16.56.26.85a58.62,58.62,0,0,0,2.65,5.6.45.45,0,0,0,.35.25s.69.08,1.61.08l.82,0h.07l.52,0a16.75,16.75,0,0,1,3.79.54c1.52.31,3.23.66,5,.84l.25,0m-13.34-7.55c.43,1,1,2.13,1.6,3.22l.79,1.29.48.76-.85,0h-.06l-.32,0a55.59,55.59,0,0,1-2.48-5.25c-.08-.24-.15-.48-.22-.72a2.87,2.87,0,0,1,.09-.44.64.64,0,0,1,.22-.35A15.06,15.06,0,0,1,151.41-141.46Zm13.45.73.09-.06c.62,0,1.58,2.48,2.22,4.12.29.74.58,1.49.88,2.19l-.12,0-.18,0-.3,0-.2,0h0l-.36,0-.22,0h0l-.65-.06-.54-.05c-1.26-4.39-.92-5.57-.65-5.9Zm140.2,153v0c0-.27,0-.55-.07-.84v0c0-.3-.07-.61-.1-.93h0q.22-.24.39-.45l0,0q.18-.21.33-.42A13.28,13.28,0,0,0,307.82,0a22.41,22.41,0,0,0-.8-3.2C304.23-10.75,292.77-38,287.87-49.7l-2.06-4.91h0v0h0l-.31-.76c-5.6-13.89-9.61-22.26-11.9-24.86-4-4.52-8.42-6-12.25-7-1.34-.36-2.46-.72-3.54-1.07s-2.15-.7-3.37-1c-.06-.44-.15-.89-.24-1.36a18,18,0,0,1-.45-4.27,2,2,0,0,0-.49-1.51c-.77-.72-2.29-.58-5.61-.28h-.09a35.6,35.6,0,0,0-14.85,4.54.45.45,0,0,0-.22.35l-.22,2.74c-5.37,1.32-11.88.3-15.81-.32l-1.65-.26a105.38,105.38,0,0,0-13.58-.72,6.85,6.85,0,0,0-.91-4.18,15.64,15.64,0,0,0-4.4-3.51c-2.26-1.42-4.59-2.89-5.85-5.22-2.36-4.38-8.43-15.26-10.75-19.23-1.25-2.13-2.05-3-2.86-3.21a1.46,1.46,0,0,0-.87.09l-2.74-4.63a.5.5,0,0,0-.31-.22.49.49,0,0,0-.37.09l-.63.48-.59-1a.21.21,0,0,1,0-.06c-.18-.3-.34-.57-.48-.82l0-.07c-.14-.25-.27-.48-.37-.68h0c-.11-.21-.2-.39-.27-.55v0h0a3.87,3.87,0,0,0-.21-.41.56.56,0,0,0-.09-.17c-.49-1-.94-2.14-1.38-3.27-1-2.63-1.83-4.71-3.08-4.71a1,1,0,0,0-.45.1,1.1,1.1,0,0,0-.38.27,1.7,1.7,0,0,0-.15.22c0,.07-.09.13-.13.21a2.32,2.32,0,0,0-.12.42c0,.06,0,.11,0,.17a4,4,0,0,0-.05.63s0,.08,0,.12c0,.25,0,.54.05.84v.07c0,.33.09.68.15,1.06v0c.13.78.35,1.69.63,2.71-1.67-.18-3.31-.52-4.77-.82a17.09,17.09,0,0,0-4.06-.55h-.27l-.38-.57,0,0-.39-.62,0-.06-.37-.61,0,0-.33-.55a34.72,34.72,0,0,1-1.55-3.13c-.73-1.59-1-2.13-1.47-2.13a1.13,1.13,0,0,0-.81.34v0l-.09-.3,0-.09c0-.08-.06-.17-.09-.24l-.06-.14c0-.09-.09-.18-.13-.26s-.07-.11-.1-.16l-.08-.09-.12-.13-.09-.06a.51.51,0,0,0-.16-.09l-.08,0a1.27,1.27,0,0,0-.29,0,1,1,0,0,0-.24,0,1.13,1.13,0,0,0-.75.6c-.72,1.34.22,4.8.88,6.63.27.74.51,1.51.74,2.26.57,1.88,1.12,3.65,2.06,4.65,1.29,1.34,2.32,1.9,5.28,2.86a13,13,0,0,1,5.37,3c.19.18.39.39.6.61l.12.14c.21.23.42.48.64.75l-.55.42a.47.47,0,0,0-.13.6c.13.25,3.31,6,5.48,7.35.57,1.69,3.85,19.88,4.53,24.83,1.35,10,4.67,16.37,9.62,18.53s14,4.46,21.36,6.34c3.11.79,6.06,1.55,8.2,2.16,1.9.55,7.06,2.63,8.26,3.12,0,.14,0,.28,0,.42l0,.19c0,.16,0,.32,0,.48l0,.08c0,.58.08,1.14.12,1.71a33.92,33.92,0,0,0,2,10.6,23.62,23.62,0,0,1,1.45,10.27,13.93,13.93,0,0,0,.05,3c.42,2.48,7.22,7.11,18.71,7.12h.06c12,0,18-3.15,18.27-3.27l.39-.18c4-1.76,3.92-6.19,3.87-9.75,0-.75,0-1.47,0-2.13,0-.84.05-1.74.07-2.69a69.84,69.84,0,0,1,.56-8.68c1.82,4.75,7.43,22,10.32,47.58,1.29,11.36,5.67,16.57,6.25,17.21h0A10.26,10.26,0,0,0,288.68,15c.26,0,.52,0,.78.06v.19a1.15,1.15,0,0,0,0,.19V16c0,.08,0,.16,0,.25v.15c0,.09,0,.18,0,.27s0,.11,0,.16a2.89,2.89,0,0,0,0,.29s0,.11,0,.16l.06.3a.83.83,0,0,1,0,.15,2.8,2.8,0,0,0,.09.31c0,.05,0,.1,0,.15l.12.3.06.15a1.91,1.91,0,0,0,.15.28,1.09,1.09,0,0,0,.08.15c.05.09.11.17.17.26l.1.14.22.24.12.13.26.2.14.12a3.07,3.07,0,0,0,.31.17,1,1,0,0,0,.17.1l.38.14.16.07a5.84,5.84,0,0,0,.63.13,7.51,7.51,0,0,0,1.2.09,14.37,14.37,0,0,0,2.75-.31,23,23,0,0,0,4.88-1.74l.56-.27a3.44,3.44,0,0,0,.38-.22l.13-.07c.14-.08.26-.17.39-.26l.06,0a3.51,3.51,0,0,0,.36-.29l0,0q.18-.16.33-.33l0,0c.1-.11.2-.24.29-.36v0a3.26,3.26,0,0,0,.24-.4h0a4.68,4.68,0,0,0,.19-.45h0a3.37,3.37,0,0,0,.15-.48h0c0-.17.08-.35.11-.53v0a5.22,5.22,0,0,0,.07-.57v0q0-.3,0-.63v0c0-.23,0-.46,0-.7v0C305.09,12.75,305.08,12.49,305.06,12.23Z"/></g><g style="clip-path:url(#c)"><path d="M127.36,10h0l21.9.25c.91,0,1-.16.71-1Q145.71-2.4,141.48-14a1.16,1.16,0,0,0-1.24-.88L114.91-15a.91.91,0,0,0-1,.65L104.86,8.91c-.25.63-.1.83.6.83Zm.41,5.31c-9.78-.13-19.56-.14-29.34-.38-1.37,0-1.68-.35-1.52-1.73.38-3.14.78-6.28,1.17-9.42.55-4.4,1.11-8.81,1.56-13.21.42-4.17.85-8.34,1.18-12.52.31-3.83.51-7.65.66-11.48a1.17,1.17,0,0,1,.58-1.07c2.28-1.52,4.56-3.06,6.79-4.65a13.38,13.38,0,0,1,7.09-2.44,11.14,11.14,0,0,0,3.56-.88c.44-.17.63-.11.83.34,1.17,2.72,2.37,5.41,3.58,8.11.4.9.69,1,1.61.69,6.49-2.32,13-4.6,19.47-7a2.14,2.14,0,0,1,1.78.1,43.25,43.25,0,0,1,6.42,3.57.69.69,0,0,1,.36.65c0,5.6.25,11.21.54,16.82q.41,8.17,1.57,16.29c.79,5.54,1.72,11.07,2.6,16.6.25,1.59.25,1.58-1.34,1.61C147.2,15.41,137.48,15.26,127.77,15.26Z" style="fill:#bfb3dd"/><path d="M131.46-59.27a23.71,23.71,0,0,1,4.34,2.46c.07-.3-.13-.4-.24-.51-.63-.66-1.26-1.34-1.91-2C132.65-60.3,132.64-60.29,131.46-59.27Zm2.93,5.8c0-.18-.14-.26-.24-.35a29.41,29.41,0,0,1-4.46-3.89c-.25-.29-.42-.11-.64,0l-2.79,1.87c-1,.64-1.9,1.28-2.86,1.91-.56.36-.23.82-.13,1.22s.43.21.68.18c1.06-.17,2.12-.39,3.19-.5C129.55-53.25,131.91-54.14,134.39-53.47Zm-6.8-13c-2.72,3-5.12,6.2-7.64,9.29-.12.16-.47.28-.2.61s.5.14.76,0L129-61.46c.52-.3,1.05-.58,1.57-.87a17.56,17.56,0,0,0-1.22-1.37C128.67-64.55,127.68-65.18,127.59-66.42Zm33.64,22.1c-2.21-5-4.37-9.9-6.53-14.78-.16,1.53-.25,3-.3,4.51-.1,2.62-.34,5.24-.34,7.86a.68.68,0,0,0,.48.73,18.3,18.3,0,0,0,2.62.77C158.47-44.92,159.78-44.65,161.23-44.32ZM89.69-42.58l.2,0a111.12,111.12,0,0,0,10.72-3.39.71.71,0,0,0,.52-.83c-.13-4.14-.24-8.28-.38-12.43,0-.11.06-.25-.14-.35Zm44.73-10.84c0,.28.3.39.39.62s.21.5.29.75c.25.76.08,1.07-.71,1.25l-6.21,1.36-3.72.78a.51.51,0,0,0-.48.6c0,.24,0,.41.34.5,2.27.57,4.55,1.16,6.82,1.75.86.23,1.72.46,2.56.76a1.67,1.67,0,0,1,.91,1.87c-.21.74-.85.6-1.4.61l-.37,0c-2.28-.24-4.54-.63-6.77-1-1.61-.3-3.17-.57-4.7.37-.39.25-.46.38-.28.78,1.15,2.56,2.3,5.13,3.41,7.71.25.57.5.7,1.1.47q9.27-3.34,18.54-6.64c.15,0,.37,0,.43-.29-.48-.26-1-.5-1.42-.78a12.53,12.53,0,0,1-4.83-5.89c-.86-1.93-1.7-3.86-3.37-5.24C134.81-53.25,134.72-53.49,134.42-53.42ZM154.8-72.3c0,3.58,0,7.17-.1,10.75a1.07,1.07,0,0,0,.05.61c.67,1.2,1.15,2.49,1.7,3.74.2.45.36.48.77.28,3.51-1.76,7-3.52,10.55-5.24.37-.18.48-.34.33-.75-.59-1.63-1.16-3.26-1.69-4.9A46.11,46.11,0,0,0,161-79a11.51,11.51,0,0,0-5.6-4.57c-.64-.25-.64-.26-.64.43Zm-54.14,7.1h-.11q-.35-6.18-.68-12.37c-.11-2.1-.25-4.2-.37-6.3,0-.24,0-.45-.35-.29-1.76.85-3.58,1.65-4.82,3.25a30.62,30.62,0,0,0-4.67,9A67.89,67.89,0,0,1,87-64c-.17.37,0,.47.28.62,3.24,2.29,6.5,4.58,9.73,6.88.37.26.52.24.75-.13.88-1.38,1.78-2.73,2.68-4.07a1.43,1.43,0,0,0,.21-.83C100.66-62.79,100.66-64,100.66-65.2Zm1.1,11.09c.06,2.34.12,4.67.17,7,0,.4,0,.59.52.35,1.41-.71,2.83-1.39,4.25-2.07a1.45,1.45,0,0,0,.77-.86c.93-2.46,2.08-4.85,2.79-7.4a4,4,0,0,1,.79-1.48,3.61,3.61,0,0,0,.79-1.81c.1-.73.21-1.44.26-2.17a3,3,0,0,0,0-1.3c-1.07-2.5-2.14-5-3.25-7.5a1,1,0,0,1,0-1,1.61,1.61,0,0,1,.93-.69l4.83-1.65c.27-.09.44-.18.42-.54-.13-2.25-.25-4.49-.35-6.75,0-.32-.12-.41-.42-.46-1.62-.24-3.25-.51-4.87-.74a1.92,1.92,0,0,1-1.65-1.24c-.56-1.34-1.1-2.7-1.53-4.08-.14-.41-.28-.42-.64-.26-1.65.75-3.3,1.49-5,2.19-.41.18-.48.36-.46.79q.3,4.36.54,8.73c.32,5.75.66,11.48.82,17.22C101.63-57.93,101.7-56,101.76-54.11Zm51.5,7.44c0-.85,0-1.53,0-2.2.27-5.49.57-11,.69-16.43.15-6.92,0-13.84,0-20.78,0-.38-.18-.5-.47-.61-2-.75-4-1.49-6-2.26-.43-.17-.51,0-.63.35a43.61,43.61,0,0,1-1.61,4.25,1.78,1.78,0,0,1-1.51,1.13c-1.87.27-3.73.6-5.6.85-.52.06-.59.25-.57.7.13,2.64.2,5.29.34,7.93,0,.39-.32.68-.16,1.07,1.17,2.89,2.1,5.86,3.5,8.67a4.43,4.43,0,0,0,2.21,2.3,9.86,9.86,0,0,1,1.43.86,3.53,3.53,0,0,1,1.57,2.24c.1.4.22.82.28,1.22a12.37,12.37,0,0,0,2.4,5.82,33.25,33.25,0,0,1,2.08,3.17A6.68,6.68,0,0,0,153.26-46.67ZM120.1-90.12c-.07-3.95-.16-7.77-.22-11.58,0-.34-.1-.44-.43-.39-.5.07-1,.08-1.48.17A36.3,36.3,0,0,0,106.8-97.6a2.09,2.09,0,0,0-1.08,2.14,32.16,32.16,0,0,0,2.92,10.79.93.93,0,0,0,.8.58c2.7.4,5.38.83,8.06,1.24l2.65.4c.28,0,.58.13.54.49s-.36.39-.68.36h-.12l-3.7-.57c-.43-.08-.66,0-.62.52.12,2,.22,3.92.27,5.87,0,.6.19.61.69.45q8.14-2.72,16.32-5.41c1.26-.41,1.64-.22,2.13,1,.59,1.47,1.15,2.94,1.73,4.42a.61.61,0,0,0,.26.4c-.09-2.19-.19-4.32-.26-6.44,0-.83,0-.83-.86-.69s-2,.3-3,.44c-.28,0-.51,0-.55-.37s.17-.4.41-.46l.37-.06c1-.15,2-.35,3-.43.47,0,.57-.42.86-.57s.53.38,1,.3c1.92-.37,3.86-.63,5.78-.93a.89.89,0,0,0,.73-.6,32.78,32.78,0,0,0,2.91-10.6,2.33,2.33,0,0,0-1.25-2.43,37.6,37.6,0,0,0-5.52-2.61A20.65,20.65,0,0,0,134-102c-.47,0-.58.09-.58.57.05,3.48.06,7,.08,10.45,0,.11-.05.25.12.36,1.52-1,3.08-2,4.69-2.9l.5-.27a.39.39,0,0,1,.54.17.37.37,0,0,1-.15.53,2.92,2.92,0,0,1-.48.29,47.78,47.78,0,0,0-5.52,3.53c-2.16,1.69-4.39,3.33-5.88,5.71-.52.82-1.11.82-1.64,0a16.44,16.44,0,0,0-2.84-3.22,47,47,0,0,0-8.51-6,4.8,4.8,0,0,1-.54-.32c-.19-.14-.28-.33-.13-.54a.4.4,0,0,1,.54-.15c.2.1.41.21.6.33C116.61-92.42,118.34-91.37,120.1-90.12Zm13.56,20.31a1.74,1.74,0,0,0,.51.88c.58.6,1.14,1.21,1.74,1.8a30.7,30.7,0,0,1,6.67,9.06c.13.3.47.67,0,.91s-.57-.25-.74-.52c-.05-.09-.1-.19-.14-.28a28.08,28.08,0,0,0-5.33-7.49A32.6,32.6,0,0,1,133-69.12a11.87,11.87,0,0,0-1.21-1.25c-.1-.1-.22-.24-.38-.15s-.16.22-.17.37a1.57,1.57,0,0,0,.23.83,16.23,16.23,0,0,0,3.45,4.64,14.11,14.11,0,0,1,3.71,5.12A21.71,21.71,0,0,0,140-56.9a1.4,1.4,0,0,0,.09.17.42.42,0,0,1-.13.6c-.25.15-.44,0-.59-.19a2.87,2.87,0,0,1-.28-.48,15,15,0,0,0-3-3.74c-2.32-2-4.68-3.94-7.1-5.82-.13-.08-.24-.31-.4-.21s-.15.38-.09.58a1.08,1.08,0,0,0,.24.36c.72.8,1.43,1.61,2.18,2.4a1.45,1.45,0,0,0,.89.54c1.13.1,1.45.45,1.43,1.64a.52.52,0,0,0,.17.43,24,24,0,0,1,5.71,7.07c.12.22.19.42,0,.62s-.42.11-.61-.06-.11-.13-.16-.19A19.35,19.35,0,0,0,131-58.56c-.27-.11-.49-.19-.67.05s.13.39.25.53a26.3,26.3,0,0,0,3.88,3.34,12.27,12.27,0,0,1,4.19,5.4,12.78,12.78,0,0,0,8,8,19.39,19.39,0,0,1,3.81,1.84c3,1.83,6,3.7,8.94,5.7,3.23,2.2,6.34,4.57,9.69,6.61a24.4,24.4,0,0,0,12.19,3.31,2.16,2.16,0,0,0,2-1.13,3.69,3.69,0,0,0,.23-3.53c-1.12-2.82-2.33-5.61-3.72-8.31-4.13-8-8.23-15.93-11.06-24.48-.16-.47-.35-.31-.62-.17-3.54,1.76-7.07,3.53-10.61,5.27-.37.18-.4.33-.25.68,1.63,3.64,3.24,7.3,4.85,10.95a.65.65,0,0,0,.52.44c2.28.5,4.55,1,6.85,1.38a10.5,10.5,0,0,1,4.93,1.77A20.41,20.41,0,0,1,178-37.15c.18.23.34.48.05.71s-.52,0-.72-.21l-1.57-1.85a9.21,9.21,0,0,0-5.7-3.18c-4.23-.65-8.38-1.74-12.56-2.59a14.53,14.53,0,0,1-6.2-2.74,1.5,1.5,0,0,1-.45-.41c-.88-1.54-1.89-3-2.89-4.46a10.69,10.69,0,0,1-1.81-4.46c-.07-.52-.26-1-.32-1.53-.2-1.69-1.43-2.42-2.87-3.13.15.29.22.48.32.64l2.05,3.71c.16.29.34.61-.06.81s-.53-.13-.67-.39c-.95-1.73-1.91-3.46-2.86-5.2-.52-1-1-1.93-1.52-2.92a2.51,2.51,0,0,0-.56-.8,68.83,68.83,0,0,0-5.57-4.53C133.92-69.76,133.85-69.87,133.66-69.81Zm-62,41.89c0,.48,0,1,0,1.44a4.58,4.58,0,0,0,5.47,4.27,56.59,56.59,0,0,0,12.75-5.27c3.52-2,6.73-4.44,10.08-6.69.35-.24.8-.36.84-.92a.29.29,0,0,1,.39-.21c.38.19.62-.07.88-.25,2.38-1.57,4.66-3.29,7.07-4.82a12.15,12.15,0,0,1,5-1.89c.92-.12,1.86-.18,2.78-.36a25.32,25.32,0,0,0,5.34-1.89,3.4,3.4,0,0,1,2-.27c.83.13,1.67.29,2.52.42,2.17.34,4.33.8,6.54.94.18,0,.43.11.5-.1a.6.6,0,0,0-.22-.61,1,1,0,0,0-.44-.23q-4.46-1.29-9-2.37c-.77-.19-1-.36-1-1.17,0-1,.17-1.35.91-1.51s1.59-.34,2.37-.5l7.43-1.62c.16,0,.46,0,.4-.26-.11-.46-.25-.91-.86-1a7.84,7.84,0,0,0-2.42.09l-7.4,1.17a.86.86,0,0,1-.94-.31,1.91,1.91,0,0,1,.52-2.89c3-2,5.93-3.92,8.83-6,.31-.22.58-.42.35-.85s-.58-.21-.88-.11a9.22,9.22,0,0,0-1.86.86c-3,1.75-6,3.48-9,5.24-.79.47-1,.19-2-.77-.5-.5.14-.69.36-1l.37-.44c2.37-2.85,4.57-5.84,7.06-8.59.23-.25.48-.54.19-.88s-.64-.06-.9.16c-1.51,1.28-3,2.59-4.37,4-1.52,1.57-3,3.16-4.53,4.74a24.53,24.53,0,0,1-3.75,2.9c-.22.17-.47.23-.66,0s0-.47.19-.63a1.6,1.6,0,0,1,.31-.22,1.84,1.84,0,0,0,1.2-2,2.85,2.85,0,0,1,.06-.49,10.67,10.67,0,0,0,0-4.1,3.51,3.51,0,0,0-.65-1.6c-.1-.13-.21-.3-.4-.24s-.15.27-.15.44a19.74,19.74,0,0,1-.17,2.67,6.69,6.69,0,0,1-1.36,4,2.31,2.31,0,0,0-.43.89c-.73,2.59-1.88,5-2.84,7.52a2.27,2.27,0,0,1-1.16,1.24c-1.49.71-2.94,1.49-4.44,2.14a86.87,86.87,0,0,1-17.54,5.35c-3.21.65-6.24,1.55-8.78,3.72-.23.2-.51.36-.75,0s0-.48.18-.64a15.73,15.73,0,0,1,5.69-3.13Q84.72-41.34,88-42a1,1,0,0,0,.68-.46q4-6.32,8.12-12.6c.2-.32.22-.48-.13-.73q-4.87-3.42-9.73-6.87c-.3-.21-.43-.25-.63.13-2.42,4.55-5.07,9-7.64,13.46-1.51,2.64-3.13,5.21-4.44,8C72.19-36.95,71.89-32.43,71.67-27.92Zm56.1,43.18c9.71,0,19.43.15,29.15,0,1.58,0,1.59,0,1.34-1.6-.88-5.53-1.81-11-2.6-16.61-.76-5.4-1.3-10.84-1.57-16.29-.29-5.61-.48-11.21-.54-16.82a.67.67,0,0,0-.36-.65,42.85,42.85,0,0,0-6.42-3.57,2.09,2.09,0,0,0-1.78-.1c-6.46,2.41-13,4.68-19.47,7-.92.32-1.21.21-1.61-.69-1.2-2.69-2.41-5.39-3.58-8.11-.19-.45-.38-.52-.83-.34a10.89,10.89,0,0,1-3.56.88,13.3,13.3,0,0,0-7.09,2.44c-2.23,1.59-4.52,3.13-6.79,4.66a1.19,1.19,0,0,0-.58,1.06c-.15,3.83-.35,7.66-.66,11.49-.33,4.18-.76,8.34-1.18,12.51-.45,4.42-1,8.82-1.56,13.21-.39,3.14-.8,6.28-1.17,9.43-.16,1.38.15,1.7,1.52,1.72C108.2,15.13,118,15.14,127.77,15.26Zm11-82.29.12.06s0-.1,0-.16c-1.57-4.08-3.11-8.17-4.69-12.25-.32-.84-.35-.84-1.17-.56L113-73.28c-1,.33-1.93.66-2.89,1-.28.1-.61.18-.41.65q1.27,2.91,2.52,5.84c.09.2.13.39.43.2a1.06,1.06,0,0,1,1.45.26,3.14,3.14,0,0,1,.76,1.34,10.09,10.09,0,0,1,.31,4,9,9,0,0,0-.2,2.08c.3-.25.55-.43.76-.64l4.6-4.77a53.88,53.88,0,0,1,5.1-4.68,1.28,1.28,0,0,1,2.11.58,2.65,2.65,0,0,1,.09.71c.46-1.1.82-1.18,1.75-.46,2.22,1.72,4.39,3.5,6.54,5.31.15.13.26.32.56.28a1.76,1.76,0,0,0-.47-.79,24.88,24.88,0,0,0-1.82-1.88,17.71,17.71,0,0,1-3.65-5.1,1.54,1.54,0,0,1,.31-1.94c.53-.38.94-.26,1.72.47.14.13.23.37.5.16a.92.92,0,0,1,1.25.1C135.86-69.41,137.32-68.21,138.81-67Zm-2.23,5.73.1.06a.26.26,0,0,0-.05-.12c0-.07-.07-.15-.16,0A.32.32,0,0,1,136.58-61.3Zm48.21,34.9c-.24.14-.19.39-.25.6-.47,1.6-1.45,3.07-3.78,2.9a25.89,25.89,0,0,1-12.69-3.79c-2.41-1.56-4.78-3.19-7.1-4.87-2-1.42-4-2.75-6.07-4.05-.14-.09-.25-.23-.45-.2s-.06.35-.06.52c.14,7,.35,13.89.83,20.81.34,4.78.95,9.54,1.69,14.28.7,4.51,1.44,9,2.15,13.52a6.76,6.76,0,0,1,.09,1.8,1,1,0,0,1-1,1c-.43,0-.87.05-1.31.06l-4.37,0h-9.36l-9.62,0L120.61,16l-21.47-.26c-.54,0-1.09-.08-1.63-.08a1.23,1.23,0,0,1-1.22-.88,2.93,2.93,0,0,1-.24-1.46c.38-3.1.75-6.21,1.14-9.31.55-4.38,1.14-8.76,1.56-13.15.4-4.1.81-8.21,1.17-12.33s.57-8,.73-12c-.3,0-.45.18-.63.3-3.24,2.18-6.36,4.56-9.77,6.47A53.2,53.2,0,0,1,77.5-21.46,5.32,5.32,0,0,1,71-25.26a6.82,6.82,0,0,1-.18-1.49,43.7,43.7,0,0,1,1.34-11.33A26.6,26.6,0,0,1,75-44.44c2.79-4.83,5.53-9.69,8.37-14.5a48.72,48.72,0,0,0,5.32-12.52,32.83,32.83,0,0,1,4.22-8.94,12.38,12.38,0,0,1,5.9-4.51c.48-.22.7-.44.6-1,0-.23,0-.47,0-.69a.63.63,0,0,1,.48-.65c1.93-.69,3.76-1.65,5.66-2.43.41-.16.29-.41.22-.69a26.4,26.4,0,0,1-.85-5.29,2.71,2.71,0,0,1,1.42-2.65,35.16,35.16,0,0,1,11.93-4.53,12.16,12.16,0,0,1,1.48-.15.87.87,0,0,1,1,.92q.14,6.1.22,12.2a.6.6,0,0,0,.27.57c.35.26.69.53,1,.82.8.7,1.6,1.4,2.38,2.13a15.18,15.18,0,0,1,2,2.51c1.5-2.5,3.76-4.19,6-5.91.28-.22.22-.48.22-.73,0-3.72-.05-7.42-.09-11.14,0-1.16.15-1.27,1.3-1.24,3.41.13,6.44,1.49,9.5,2.79,1,.45,2,1,3,1.57a3.09,3.09,0,0,1,1.73,3.24,27.71,27.71,0,0,1-.81,4.79c-.11.43,0,.58.36.72l6.13,2.27a1.13,1.13,0,0,1,.89,1.34c-.14,1.33-.1,1.37,1.12,1.84a12.09,12.09,0,0,1,5.82,4.79,47,47,0,0,1,5.77,12.27,179.3,179.3,0,0,0,13.25,30.58,73.56,73.56,0,0,1,3.46,7.74c.23.6.4,1.24.6,1.87A5.82,5.82,0,0,1,184.79-26.4Z"/></g><g style="clip-path:url(#d)"><path d="M45.29,84c2.57,2.78,5.61,4.27,9.46,3.52A4.11,4.11,0,0,0,58,84.74a13.59,13.59,0,0,1,1.9-3.1,58.75,58.75,0,0,1,4.68-6.13,10.45,10.45,0,0,1,.83-.8,1.66,1.66,0,0,1,2.23-.13,22.29,22.29,0,0,0,7.49,3.36,6.05,6.05,0,0,0,4.35-.8,19.1,19.1,0,0,0,4.13-3.69c.8-.85,1.58-1.71,2.31-2.61A4.09,4.09,0,0,1,90,69.28a9.67,9.67,0,0,0,3.79-.2c1.59-.33,1.89-.66,1.94-2.24.1-3.49.15-7,.2-10.47a4.17,4.17,0,0,1,.6-2.26A16.54,16.54,0,0,0,98.63,47a15.83,15.83,0,0,0,.18-4.71c0-.18.09-.41-.15-.51s-.35.13-.48.25a19,19,0,0,1-3.65,2.54c.59.38,1.15.73,1.69,1.11a5.26,5.26,0,0,1,.86.77c.19.21.44.5.1.78s-.56.07-.78-.17a9.36,9.36,0,0,0-2.5-1.74,1.12,1.12,0,0,0-1.08-.05,21.19,21.19,0,0,1-7.16,1.48,30.9,30.9,0,0,1-14.47-2.69.9.9,0,0,0-1.29.61,4.59,4.59,0,0,1-.41,1,.54.54,0,0,1-.7.4c-.4-.12-.38-.44-.28-.75a4.29,4.29,0,0,0,0-2.58A4,4,0,0,0,64.79,40a2.47,2.47,0,0,0-1.88.7,6.63,6.63,0,0,0-2,3A14.08,14.08,0,0,0,60,51.5a8.72,8.72,0,0,0,1.82,3.29,3.09,3.09,0,0,0,.4.41c.8.92.8.9-.27,1.35a18.09,18.09,0,0,0-7.74,6.88c-.3.45,0,.61.26.8a6.31,6.31,0,0,0,4.6,1.26c3.16-.4,4.8-2.56,5.3-5.47a13.76,13.76,0,0,0-.92-7.64c-.18-.43-.12-.72.25-.9s.67.1.83.45a13.81,13.81,0,0,1,.92,3.16A13.48,13.48,0,0,1,65.09,62a6.79,6.79,0,0,1-7.74,4.58,7.35,7.35,0,0,1-3.62-1.42c-.46-.39-.55,0-.7.29a66.81,66.81,0,0,0-2.81,6.3,68.63,68.63,0,0,1-5,10.79A1,1,0,0,0,45.29,84ZM.81,81.51A35.54,35.54,0,0,1,11.6,63.9a99.43,99.43,0,0,1,11.46-8.65A71.46,71.46,0,0,0,36.27,44.17,15.51,15.51,0,0,0,39,40,60.31,60.31,0,0,1,49.59,23.15a38.09,38.09,0,0,1,13.55-9.94,21.36,21.36,0,0,1,9.11-1.35,39,39,0,0,1,28.58,13.65,22.84,22.84,0,0,1,5.48,13.22,18.83,18.83,0,0,1-1.7,10.56,9.29,9.29,0,0,1-5.46,4.8,3.4,3.4,0,0,1-.64.2,1.47,1.47,0,0,0-1.44,1.56c-.2,2.88-.1,5.75-.17,8.64,0,1.25-.07,2.5-.13,3.74a1.27,1.27,0,0,1-.7,1.18c-2.07,1.22-4.32,1.1-6.55,1a3.06,3.06,0,0,0-2.75,1.19c-1.36,1.68-2.91,3.19-4.39,4.77A8.83,8.83,0,0,1,77,79.15a10.06,10.06,0,0,1-5.06-1,22.75,22.75,0,0,1-4.67-2.49,1,1,0,0,0-1.46.18,37.85,37.85,0,0,0-4.67,5.9c-.38.62-.79,1.18-1.19,1.8a11.24,11.24,0,0,0-1.1,2.09,5.24,5.24,0,0,1-4.25,3.08c-4,.63-7.24-.95-10-3.78-.15-.14-.28-.33-.46-.53a23.3,23.3,0,0,1-2.29,2.73A11.91,11.91,0,0,1,32,89.82c-3.12-.45-6.17-1.31-9.31-1.66a33.4,33.4,0,0,0-7.21.15,19,19,0,0,0-6,1.43,8.5,8.5,0,0,0-2.53,1.69,2.62,2.62,0,0,1-4.11-.08,8.35,8.35,0,0,1-2.4-4.72c0-.12,0-.22-.17-.23V84.57C.41,83.52.56,82.51.81,81.51Z"/><path d="M65.34,49.45a.84.84,0,0,0,.17-1,13.11,13.11,0,0,0-1.28-1.5c-.17.28-.29.5-.4.72-.69,1.19-.59,1.49.65,1.94C64.81,49.7,65.13,49.77,65.34,49.45Zm-1.78.83a1.6,1.6,0,0,1-1.15-1.54,3.47,3.47,0,0,1,.32-1.16c.53-1.23,1.3-2.35,1.75-3.61.1-.28.31-.42.58-.28s.48.3.38.65a4.64,4.64,0,0,1-.61,1.41c-.17.21-.27.36.15.6a3.52,3.52,0,0,1,1.56,2,1.74,1.74,0,0,1-.6,1.91C65.19,51,64.36,50.63,63.56,50.28Z"/><path d="M89.54,49.9a.89.89,0,0,1,1.46.65c.32,1.45-1.21,4-2.66,4.44-.77.23-1.25-.12-1.25-.92A7.28,7.28,0,0,1,89.54,49.9Z"/><path d="M72.59,64.44c.36-.15.61,0,.78.37,1,2.09,2.51,3.29,5,2.74a.48.48,0,0,1,.64.37.57.57,0,0,1-.35.66,4.44,4.44,0,0,1-1.14.23,5.62,5.62,0,0,1-5.16-3.59C72.25,64.93,72.22,64.59,72.59,64.44Z"/><path d="M66.54,48.36a3.42,3.42,0,0,0-1.56-2c-.4-.23-.3-.37-.15-.6a4.54,4.54,0,0,0,.61-1.41c.1-.35-.13-.53-.38-.65a.41.41,0,0,0-.58.28c-.45,1.27-1.22,2.38-1.75,3.61a3.47,3.47,0,0,0-.32,1.16,1.59,1.59,0,0,0,1.15,1.55c.8.35,1.62.68,2.38,0A1.7,1.7,0,0,0,66.54,48.36Zm5.81,16.86a5.59,5.59,0,0,0,5.16,3.59,3.73,3.73,0,0,0,1.14-.23.55.55,0,0,0,.35-.66.47.47,0,0,0-.64-.37c-2.48.55-4-.66-5-2.74-.18-.37-.42-.53-.78-.37S72.25,64.93,72.35,65.22ZM88.36,55A4.82,4.82,0,0,0,91,50.55a.89.89,0,0,0-1.46-.65,7.16,7.16,0,0,0-2.44,4.17C87.11,54.87,87.59,55.22,88.36,55ZM45.16,82.61a69.05,69.05,0,0,0,5-10.79A62.36,62.36,0,0,1,53,65.52c.14-.26.21-.68.69-.3a7.27,7.27,0,0,0,3.62,1.43A6.8,6.8,0,0,0,65,62.07a13.06,13.06,0,0,0,.37-6.93A13,13,0,0,0,64.49,52c-.16-.35-.4-.67-.83-.45s-.42.47-.25.9a13.76,13.76,0,0,1,.92,7.64c-.5,2.91-2.14,5.07-5.3,5.47a6.13,6.13,0,0,1-4.6-1.26c-.23-.19-.56-.35-.26-.8a18,18,0,0,1,7.74-6.88c1.07-.47,1.07-.45.27-1.35a5.09,5.09,0,0,1-.4-.41A8.89,8.89,0,0,1,60,51.55a14.08,14.08,0,0,1,.89-7.86,6.63,6.63,0,0,1,2-3,2.58,2.58,0,0,1,1.88-.7,4,4,0,0,1,3.75,2.87,4.14,4.14,0,0,1,0,2.58c-.09.3-.12.63.28.75a.54.54,0,0,0,.7-.4,5.09,5.09,0,0,0,.41-1,.89.89,0,0,1,1.29-.61,30.9,30.9,0,0,0,14.47,2.69,21.19,21.19,0,0,0,7.16-1.48,1.12,1.12,0,0,1,1.08,0,9.84,9.84,0,0,1,2.5,1.74c.22.24.48.42.78.17s.09-.58-.1-.78a4.48,4.48,0,0,0-.86-.77c-.54-.38-1.1-.73-1.69-1.11a19.79,19.79,0,0,0,3.65-2.54c.13-.13.25-.33.48-.25s.12.33.15.51a15.19,15.19,0,0,1-.18,4.71,16.62,16.62,0,0,1-2.06,7.08,4.15,4.15,0,0,0-.6,2.26c0,3.49-.1,7-.2,10.47,0,1.59-.35,1.91-1.94,2.24a9.31,9.31,0,0,1-3.79.2,4.06,4.06,0,0,0-4.12,1.56c-.74.9-1.51,1.76-2.31,2.61a19.1,19.1,0,0,1-4.13,3.69,6.05,6.05,0,0,1-4.35.8,22.9,22.9,0,0,1-7.49-3.36,1.67,1.67,0,0,0-2.23.13,7.88,7.88,0,0,0-.83.8,61.64,61.64,0,0,0-4.68,6.13,14,14,0,0,0-1.9,3.1,4.08,4.08,0,0,1-3.25,2.75c-3.85.75-6.89-.74-9.46-3.52A1.09,1.09,0,0,1,45.16,82.61Z" style="fill:#fff"/><path d="M63.84,47.64l.4-.71a12.12,12.12,0,0,1,1.28,1.49c.25.44,0,.73-.16,1s-.55.25-.87.13C63.24,49.14,63.14,48.84,63.84,47.64Z" style="fill:#fff"/></g><g style="clip-path:url(#e)"><path d="M159.55,142.91a6.32,6.32,0,0,1-.15-.89A59,59,0,0,0,158,134.2a16,16,0,0,0-1.55-4.76,2.46,2.46,0,0,1-.24-2.11c.06-.15.06-.39.28-.4s.26.16.35.28a16,16,0,0,1,2.11,3.85c1.06,3.07,1.9,6.2,2.72,9.34a1.25,1.25,0,0,1-.2,1.12Q157.88,147,154,152.25a9.63,9.63,0,0,1-4.57,3.08c-.26.09-.35,0-.48-.18-1.34-2.11-2.66-4.21-4-6.31-.16-.25-.08-.38.06-.57A7.43,7.43,0,0,1,147.7,146c2.33-1,4.57-2.28,7.13-2.76.63-.12.8-.63.81-1.22a22.69,22.69,0,0,0-1-6.64c-.37-1.32-.76-2.65-1.14-4-.06-.21-.32-.52.07-.69a.7.7,0,0,1,.84.21,7.12,7.12,0,0,1,1.58,2.61,42.62,42.62,0,0,1,2.61,9.14c0,.14.07.3.09.45s.19.51.52.48S159.58,143.39,159.55,142.91Z" style="fill:#fff"/><path d="M162.44,139.68c-.28-1-.5-1.79-.73-2.61a.71.71,0,0,1,0-.32,13.12,13.12,0,0,0-.38-9.17,13.39,13.39,0,0,1-1-4.73c0-.37-.05-1,.31-1s.6.48.73.84c.4,1.08.67,2.21,1,3.3.4,1.31.75,2.65,1.12,4a12.73,12.73,0,0,1-.4,7.86C162.9,138.35,162.7,138.93,162.44,139.68Z" style="fill:#fff"/><path d="M168.32,121.67c-1,3-.52,6.06-1.3,9a23.72,23.72,0,0,1-2.24,5.17c0,.05-.1.06-.2.14a11.3,11.3,0,0,0,.25-2.61,7.14,7.14,0,0,1,.7-4.29,9.33,9.33,0,0,0,.52-2.34,15.81,15.81,0,0,1,1.32-4A2,2,0,0,1,168.32,121.67Z" style="fill:#fff"/><path d="M168.9,123.08c.09-.51.22-1,.28-1.54.06-.71-.36-1-1.05-.8a2.5,2.5,0,0,0-1.43,1.32,18.45,18.45,0,0,0-1.7,5.51,6.75,6.75,0,0,1-.62,2l-1-3.61a.78.78,0,0,1,.21-.67l3-4.43a1.21,1.21,0,0,1,.74-.51c1.4-.42,2.78-.87,4.37-1.38-1,1.49-1.8,2.81-2.66,4.12A.18.18,0,0,1,168.9,123.08Z" style="fill:#ffe500"/><path d="M163,124.49a1.35,1.35,0,0,1,.14-1.63c.74-1,1.43-2.09,2.13-3.15a1.75,1.75,0,0,1,1-.72c1.71-.51,3.41-1,5.13-1.43a3.73,3.73,0,0,1,.46-.09c.14,0,.32-.07.37.16s-.08.28-.24.33l-1.15.36c-1.38.43-2.75.87-4.14,1.28a1.55,1.55,0,0,0-.83.74c-.87,1.29-1.74,2.59-2.61,3.87C163.17,124.33,163.15,124.49,163,124.49Z" style="fill:#ffe500"/><path d="M154,136.8a1.35,1.35,0,0,1-.08,1.53c-1.05,1.51-2,3.07-3.06,4.61a2,2,0,0,1-.27.37c-.19.2-.37,0-.55,0s-.08-.25,0-.37C151.34,140.89,152.65,138.89,154,136.8Z" style="fill:#ffe500"/><path d="M154.51,139a14.24,14.24,0,0,1,.21,2.92c0,.25-.05.44-.33.49-.81.12-1.58.39-2.46.52Z" style="fill:#ffe500"/><path d="M161,129.23a16,16,0,0,1,.21,6c-.45-1.44-.85-2.75-1.27-4a.65.65,0,0,1,.19-.6C160.4,130.15,160.66,129.77,161,129.23Z" style="fill:#ffe500"/><path d="M160.19,127.33c.83,1.2-.35,1.68-.61,2.51-.58-.67-.58-.67-.18-1.3C159.66,128.16,159.91,127.77,160.19,127.33Z" style="fill:#ffe500"/><path d="M97.21,156.27c-.15-.45-.47-.42-.83-.22l-9.15,5c-.28.16-.49.36-.31.69s.5.23.76.08l9.14-5A.6.6,0,0,0,97.21,156.27ZM-2.3,160.11l3.87-.17,1.6-.1c.31,0,.55-.13.54-.46s-.29-.43-.57-.43H2.88l-7.6.36-3.06.16c-.28,0-.55.12-.54.47s.27.43.57.43l.8,0Zm11.13-5.85a2.43,2.43,0,0,1,.33,2.47c-.53,1.3-1,2.61-1.55,3.9-.07.16-.13.38-.27.46-.77.46-.77,1.23-.79,2Q6.16,186,5.74,208.9c0,2-.08,4-.14,6.08,0,1.31-.16,1.37-1.41,1.61-3,.56-6.06,1-9.1,1.45-.48.07-1-.13-1.47.18-.33.2-.36-.2-.37-.43-.12-1.34-.23-2.66-.34-4-.44-5.5-.86-11-1.29-16.51q-.57-7.32-1.13-14.65c-.37-4.93-.77-9.85-1.15-14.78-.38-5.27-.79-10.52-1.11-15.8A9.17,9.17,0,0,1-10.6,147c9-16.51,17.89-33.05,27.3-49.33.67-1.15,1.38-2.29,2.05-3.45a33.16,33.16,0,0,1,8.3-9,13,13,0,0,1,11.08-2.51,42.77,42.77,0,0,1,4.32.84,2.39,2.39,0,0,1,1.36.87,11.78,11.78,0,0,0,3.56,3.1,37.82,37.82,0,0,0,7.19,3,8.21,8.21,0,0,0,5.6-.52,2.68,2.68,0,0,0,1.23-1.1,24.9,24.9,0,0,0,1.49-2.6c.12-.23.23-.38.55-.36a19.53,19.53,0,0,1,14,6.36,29.25,29.25,0,0,1,4.39,7.15A88.36,88.36,0,0,1,87.71,116c3.29,11.91,6.37,23.87,9.5,35.83.14.56.33,1.11.52,1.65a2.5,2.5,0,0,0,1.13,1.35c1.46.87,1.58,1.49.51,2.85-.85,1.08-1.72,2.15-2.61,3.22-1.77,2.17-3.57,4.33-5.34,6.5-.1.12-.22.24-.3.36a.43.43,0,0,0,.66.56c.13-.12.24-.27.36-.4,2.73-3.33,5.45-6.64,8.15-10a1.4,1.4,0,0,1,.83-.5q20.8-4.6,41.62-9.22a.83.83,0,0,1,1.06.44c1.63,2.62,3.3,5.23,5,7.83.23.36.33.55-.2.74-17.81,6.41-35.61,12.91-53.5,19.12a15.8,15.8,0,0,1-4.75,1,3.7,3.7,0,0,1-3.5-1.91,20.82,20.82,0,0,1-2.06-4.62c-2.53-8-4.8-16.15-7.16-24.23-.11-.35-.11-.78-.6-.86,0,0-.12-.13-.12-.2-.07-2.15-.48-4.3.07-6.45s1.52-4.36,2.28-6.54A45.75,45.75,0,0,0,81,127a18,18,0,0,0-.15-7,95,95,0,0,0-3.4-12c-.09-.32-.22-.64-.64-.51s-.29.54-.2.84c1,3.13,2.08,6.24,2.84,9.45a21.6,21.6,0,0,1,.76,8.46,34.14,34.14,0,0,1-1.81,6c-.46,1.3-1,2.59-1.45,3.86a14.94,14.94,0,0,0-1.14,7.11c.2,2.09.17,4.18.2,6.28q.31,24.82.6,49.65c0,1.1,0,1.07-1.08,1.26-5.36.91-10.74,1.64-16.14,2.23a92.5,92.5,0,0,1-19.61.43,130.08,130.08,0,0,1-20.17-3.48,30.05,30.05,0,0,1-7.28-3.3c-.15-.08-.37-.09-.25-.43a31.72,31.72,0,0,0,1.12-4.93q2.67-13.31,5.3-26.62c1.37-7,2.62-14.09,3.55-21.18q.87-6.62,1.75-13.23a3.58,3.58,0,0,1,.45-1.31c1.05-1.83,2.08-3.68,3.13-5.52a3.48,3.48,0,0,0,.24-.47.45.45,0,0,0-.16-.59.43.43,0,0,0-.59.15c-.12.16-.2.35-.31.52-5.15,9.1-10.28,18.22-15.79,27.1-.85,1.37-1.74,2.69-2.66,4a2.06,2.06,0,0,1-2,.95,12.54,12.54,0,0,1-3.1-.75c-.34-.12-.67-.25-1-.38s-.72-.38-.91.12.28.58.59.72a16.77,16.77,0,0,0,3.1,1,9,9,0,0,0,1.06.18A2.84,2.84,0,0,0,8.83,154.26Z" style="fill:#fdfdf3"/><path d="M56.33,89.81a6.4,6.4,0,0,1-2.65-.58c-1.63-.59-3.22-1.29-4.8-2a14,14,0,0,1-4.32-3.31.86.86,0,0,1-.15-1c.9-2.3,1.78-4.6,2.89-6.81.17-.34.36-.53.76-.32,2.74,1.43,5.69,2.39,8.51,3.65,1.78.8,3.58,1.56,5.36,2.37A1.59,1.59,0,0,1,62.87,84a20.87,20.87,0,0,1-2.41,4.52,2.25,2.25,0,0,1-1.34.82A8.72,8.72,0,0,1,56.33,89.81Z" style="fill:#fdfdf3"/><path d="M-8.73,273.77l0,0,0,0a.05.05,0,0,0,0,0A.05.05,0,0,0-8.73,273.77ZM2.58,233c-.29.2-.72.33-.67.71,0,.17.49.46.73.32C3.06,233.71,2.57,233.33,2.58,233Zm.11,2.1c-.9.4-1.07.88-.9,2.36C2.11,236.59,2.4,235.84,2.69,235.06Zm157.5-107.73c-.28.44-.53.83-.79,1.21-.4.62-.4.63.18,1.3C159.84,129,161,128.53,160.19,127.33ZM-15.1,277c0,.07,0,.15,0,.22l.35.17,2.94,1.31c.11-.44.19-.85.29-1.26s0-.46-.38-.45C-13,277-14,277-15.1,277Zm10.9-3.19c-1.47.15-2.9.11-4.34.16,1.44.53,2.87,1.08,4.34,1.63ZM161,129.23c-.36.54-.62.92-.87,1.31-.12.18-.27.34-.19.6.42,1.29.82,2.6,1.27,4.05A16,16,0,0,0,161,129.23ZM.23,239a.93.93,0,0,0,.63-1.06,18.9,18.9,0,0,1,.06-2,1.65,1.65,0,0,1,.41-1c.08-.09.4-.17.13-.38s-.38-.31-.63-.06a3.71,3.71,0,0,1-1.24.87c-.22.08-.24.19-.19.4C-.31,236.78,0,237.85.23,239Zm-3.45,37h.27c.13-1.83.25-3.66.38-5.49a.32.32,0,0,0-.26-.39c-.55-.16-1.09-.33-1.81-.56C-3.27,271.57-3.3,273.77-3.22,276ZM154.51,139,151.93,143c.88-.12,1.65-.4,2.46-.52.28,0,.33-.24.33-.5A14.25,14.25,0,0,0,154.51,139Zm-.5-2.23c-1.36,2.09-2.67,4.09-4,6.1-.07.1-.25.26,0,.37s.36.23.55,0a2.33,2.33,0,0,0,.27-.37c1-1.54,2-3.09,3.06-4.61A1.33,1.33,0,0,0,154,136.8Zm9-12.31c.19,0,.22-.16.28-.26.87-1.3,1.74-2.6,2.61-3.88a1.57,1.57,0,0,1,.83-.73l4.14-1.29L172,118c.17,0,.29-.14.25-.33s-.23-.17-.38-.16a2.11,2.11,0,0,0-.45.09c-1.74.4-3.44.92-5.14,1.43a1.67,1.67,0,0,0-1,.72c-.71,1.06-1.39,2.13-2.14,3.16A1.29,1.29,0,0,0,163,124.49Zm5.93-1.41s.06,0,.1,0l2.66-4.11c-1.57.5-3,1-4.37,1.37a1.2,1.2,0,0,0-.73.51c-1,1.48-2,2.95-3,4.44a.81.81,0,0,0-.22.66l1,3.61a7,7,0,0,0,.63-2,18.22,18.22,0,0,1,1.7-5.5,2.56,2.56,0,0,1,1.43-1.33c.67-.24,1.11.1,1,.8A13.54,13.54,0,0,1,168.9,123.08Zm-.58-1.41a1.86,1.86,0,0,0-.94,1,15.74,15.74,0,0,0-1.32,4,8.37,8.37,0,0,1-.52,2.34,7.24,7.24,0,0,0-.7,4.29,10.42,10.42,0,0,1-.25,2.62c.11-.07.17-.09.2-.15a25.78,25.78,0,0,0,2.25-5.17C167.8,127.72,167.29,124.67,168.32,121.67Zm-5.88,18c.25-.74.45-1.31.67-1.89a12.81,12.81,0,0,0,.4-7.86c-.36-1.32-.71-2.64-1.13-4-.33-1.09-.61-2.21-1-3.3-.13-.37-.4-.91-.74-.84s-.32.67-.3,1a12.58,12.58,0,0,0,1,4.74,13.25,13.25,0,0,1,.37,9.16.7.7,0,0,0,0,.32C161.94,137.87,162.17,138.67,162.44,139.68ZM13.7,282.38c0-.09.06-.13.05-.17l-1.74-7a.46.46,0,0,0-.33-.37l-3.55-1.18c-.28-.09-.35,0-.32.28.23,2,.43,4,.64,6,0,.24.06.48.35.59Zm5.88,3.22L8.67,281.43a2.61,2.61,0,0,0,0,.4l.6,5.77a.77.77,0,0,0,.53.74c.69.27,1.34.59,2,.88a8.52,8.52,0,0,0,1.69.68c-.48-1.11-.95-2.14-1.39-3.18-.26-.6-.11-.87.44-.85C14.9,286,17.23,285.75,19.58,285.6ZM5.15,247.85H5c0,.32,0,.65.07,1,.33,3.12.68,6.25,1,9.36q.74,7,1.48,13.94c0,.21,0,.39.29.47,1.22.38,2.44.78,3.76,1.21C9.48,265.1,7.32,256.48,5.15,247.85ZM7.56,280c-.26-2.27-.48-4.41-.71-6.55,0-.28-.22-.36-.43-.43-2.55-.82-5.12-1.64-7.68-2.48-.38-.12-.45,0-.48.35-.08,1.4-.18,2.79-.26,4.19s-.07,1.25,1.12,1.7Zm15.82,6.32c.13-.17,0-.31,0-.45a10.53,10.53,0,0,1-.49-2.21c-.1-1.21.33-1.72,1.52-1.91a4,4,0,0,1,1.2,0c.82.11,1.63.23,2.45.31.48,0,1.32-.55,1.32-.93,0-.57-.52-.54-.87-.66-1.21-.47-2.48-.84-3.7-1.29-3.76-1.38-7.58-2.56-11.37-3.87-.37-.13-.46,0-.36.36.48,1.83,1,3.65,1.35,5.51a2.67,2.67,0,0,0,2,2.26A36.52,36.52,0,0,1,23.38,286.36Zm-15,1.32c-.22-2.19-.44-4.25-.65-6.3a.51.51,0,0,0-.4-.47l-16.88-6.43c-.33-.13-.44-.11-.52.27-.23,1.24-.48,2.48-.79,3.71-.12.48,0,.64.44.83q6.85,3,13.71,6.12Zm-11.81-44.4c-.33,1.55-.64,3-.93,4.42-1.73,8.19-3.44,16.4-5.18,24.59-.09.45,0,.53.42.56,1.11.08,2.22.13,3.34.12.51,0,.66-.13.54-.65-.2-.82-.34-1.66-.47-2.49s.31-1.31,1.15-1.18a11,11,0,0,1,1.22.32c.88.29.88.29.93-.68l.78-11.78c.22-3.49.46-7,.68-10.47,0-.19.12-.41-.13-.53A8.85,8.85,0,0,1-3.44,243.28Zm34.56,98.66c0-.25,0-.42,0-.6l-1.2-9.19c-.87-6.59-1.76-13.18-2.63-19.77-1-7.3-1.95-14.59-2.82-21.89a5,5,0,0,0-1.72-3c0,1.15.13,2.29.21,3.41.38,4.74.74,9.49,1.13,14.23q.69,8.75,1.43,17.5c.41,5.05.8,10.11,1.2,15.16a.66.66,0,0,0,.17.54c.47.39.89.81,1.33,1.21A24.62,24.62,0,0,0,31.12,341.94Zm128.43-199c0,.48-.08.7-.34.71s-.46-.19-.52-.48-.06-.31-.09-.46a41,41,0,0,0-2.61-9.14,7.34,7.34,0,0,0-1.58-2.6.71.71,0,0,0-.84-.22c-.39.18-.13.47-.07.7.37,1.32.75,2.64,1.14,4a22.59,22.59,0,0,1,1,6.64c0,.59-.18,1.09-.81,1.21-2.56.49-4.79,1.74-7.13,2.77a7.33,7.33,0,0,0-2.69,2.25.4.4,0,0,0-.06.57c1.35,2.1,2.67,4.2,4,6.31.12.2.22.27.48.17a9.57,9.57,0,0,0,4.57-3.07q3.87-5.28,7.48-10.73a1.33,1.33,0,0,0,.2-1.13c-.82-3.14-1.66-6.26-2.72-9.34a16.6,16.6,0,0,0-2.11-3.85c-.09-.13-.17-.29-.35-.28s-.22.26-.28.4a2.47,2.47,0,0,0,.24,2.12,15.86,15.86,0,0,1,1.55,4.75A59.26,59.26,0,0,1,159.4,142,5.94,5.94,0,0,0,159.55,142.91ZM6.71,272.21c-.1-1.06-.21-2-.3-3-.42-4-.85-7.88-1.26-11.82-.47-4.4-1-8.81-1.4-13.2A1.73,1.73,0,0,0,3,242.78,19.2,19.2,0,0,1,1.55,245c-.25.32-.51.74-.91.74-.83,0-.75.53-.77,1.07-.3,4.5-.59,9-.9,13.52-.19,2.86-.37,5.73-.57,8.59,0,.43.08.63.51.75,1,.3,2,.63,3,.95ZM56.33,89.81a8.72,8.72,0,0,0,2.82-.44,2.28,2.28,0,0,0,1.34-.82A21.77,21.77,0,0,0,62.89,84,1.59,1.59,0,0,0,62,81.84c-1.78-.81-3.59-1.57-5.37-2.37-2.82-1.26-5.76-2.22-8.5-3.65-.42-.21-.59,0-.76.32-1.11,2.21-2,4.51-2.89,6.81a.81.81,0,0,0,.15,1,13.91,13.91,0,0,0,4.3,3.32c1.58.71,3.17,1.4,4.8,2A6.47,6.47,0,0,0,56.33,89.81ZM3.73,242.17c-.2-.7.51-.59.54-1a4.25,4.25,0,0,1,.45-1.31c.54-1.21,1.11-2.41,1.57-3.64s.68-2.25,1-3.37c.65-2,.87-4-.27-5.92a.15.15,0,0,1,0-.07l-3.17-8.7c-.13-.36-.21-.52-.68-.44-2.68.45-5.36.85-8,1.24-.38.06-.51.18-.55.58q-.31,3.58-.75,7.16a64.91,64.91,0,0,1-1.44,6.5,4.15,4.15,0,0,0,.45,3.64c1.74,2.34,3.37,4.76,5.3,7a3.5,3.5,0,0,0,.89.78c1.11.63,1.34.59,2.05-.45.4-.61.76-1.26,1.15-1.87.08-.13.17-.24,0-.41a5.38,5.38,0,0,1-.95-2.45c-.75.31-1.08.75-.76,1.51a2.85,2.85,0,0,1,.11.65c0,.27-.06.5-.36.54s-.45-.15-.51-.42-.08-.3-.1-.45c-.26-1.71-.73-3.38-1.16-5.06a.91.91,0,0,0-.24-.54c-.47-.44-.2-.73.25-.85a5,5,0,0,0,2-1.23A13.63,13.63,0,0,1,2,232.21a.59.59,0,0,0,.23-.78c-.16-.54-.34-1.1-.47-1.67-.08-.34-.33-.8.21-.94s.55.34.65.68c.34,1.27.65,2.54,1,3.79a3.29,3.29,0,0,1-.11,2.1c-.29.79-.52,1.6-.88,2.38C1.87,239.44,2.56,240.75,3.73,242.17ZM32.14,342.26a1.6,1.6,0,0,0,.33-1v-3c0-.22,0-.45,0-.66a1.41,1.41,0,0,1,2-1.18,24.46,24.46,0,0,0,4.13,1.3c.56.09.79-.06.72-.66-.12-.92-.17-1.86-.31-2.78-1.12-7.63-2.5-15.22-3.89-22.81C33.58,303.2,32,295,30.46,286.78c-.26-1.45-.56-2.89-.85-4.43a2.44,2.44,0,0,1-2.19.59,14.91,14.91,0,0,0-2.65-.28c-.89,0-1.06.21-1,1.1a9.46,9.46,0,0,0,.5,2.07,20,20,0,0,1,1,3.86c.61,4.92,1.26,9.84,1.91,14.75q1.31,9.88,2.62,19.78Q31,333.25,32.14,342.26Zm-14.67-55.7v.24c-1.27,0-2.54,0-3.82,0-.52,0-.48.17-.3.53.29.62.56,1.26.83,1.9a7,7,0,0,1,.76,2.26L16,311.42q.63,11.85,1.26,23.68.66,12.47,1.31,24.95c0,.6.15.87.8,1.06,2.5.68,5,1.52,7.49,2.18.75.2.86.1.84-.67,0-.11,0-.23,0-.34-.15-2-.28-3.95-.43-5.93-.32-4.22-.66-8.43-1-12.66l-1.14-14.31q-.55-7.1-1.12-14.18c-.38-4.73-.78-9.45-1.15-14.18s-.74-9.31-1.1-14c0-.38-.15-.52-.56-.5C20,286.58,18.71,286.56,17.47,286.56Zm-34.53-9.27c0,2.36,0,4.65,0,6.95q.28,16.74.6,33.46c.19,9.8.4,19.59.58,29.39a1.56,1.56,0,0,0,.92,1.5q12.08,6.74,24.11,13.49c2.75,1.54,5.53,3.05,8.3,4.57.46.26.6.16.58-.33,0-.27,0-.54,0-.8q-.24-4.47-.47-8.94Q17,345.83,16.4,335.1c-.38-7-.78-14.05-1.15-21.07s-.78-14-1.1-21.08c-.05-1.32-.41-2.11-1.74-2.51a27.56,27.56,0,0,1-3-1.29c.12,1.18.23,2.25.34,3.31,0,.33.12.73-.34.8s-.49-.32-.53-.67c-.12-1.06-.28-2.13-.34-3.18a1,1,0,0,0-.69-1c-3.28-1.44-6.54-2.91-9.8-4.37-2.89-1.28-5.78-2.56-8.64-3.87-.52-.24-.68-.16-.74.38a11,11,0,0,1-.31,1.43c-.06.29-.18.54-.52.49s-.4-.38-.33-.69c.12-.61.25-1.21.39-1.83.05-.25.08-.45-.24-.58C-13.91,278.72-15.48,278-17.06,277.29Zm25.89-123a2.77,2.77,0,0,1-3,1.28c-.35,0-.71-.11-1-.17a17.15,17.15,0,0,1-3.11-1c-.3-.13-.77-.24-.59-.72s.58-.26.91-.12l1,.39a13.06,13.06,0,0,0,3.11.74,2,2,0,0,0,2-.94c.92-1.31,1.82-2.65,2.66-4,5.51-8.89,10.65-18,15.8-27.11a3.88,3.88,0,0,1,.3-.52.44.44,0,0,1,.75.44,4.16,4.16,0,0,1-.24.47c-1,1.85-2.07,3.69-3.13,5.52a3.23,3.23,0,0,0-.44,1.31Q23,136.42,22.08,143c-.94,7.1-2.17,14.15-3.56,21.18q-2.62,13.32-5.29,26.62a33.06,33.06,0,0,1-1.13,4.94c-.12.33.11.33.26.42a30.16,30.16,0,0,0,7.27,3.3A127.68,127.68,0,0,0,39.81,203a92.5,92.5,0,0,0,19.61-.43c5.4-.59,10.77-1.32,16.14-2.23,1.08-.19,1.09-.17,1.08-1.26q-.3-24.81-.6-49.64c0-2.1,0-4.19-.2-6.29A15.06,15.06,0,0,1,77,136c.51-1.28,1-2.56,1.46-3.86a33,33,0,0,0,1.81-6,21.6,21.6,0,0,0-.77-8.46c-.76-3.2-1.81-6.33-2.83-9.45-.11-.31-.27-.7.2-.84s.53.18.64.5A97.29,97.29,0,0,1,80.88,120a18.11,18.11,0,0,1,.15,7,50.34,50.34,0,0,1-1.77,5.59c-.76,2.17-1.72,4.29-2.29,6.53s-.13,4.3-.06,6.46c0,.06.06.2.12.2.51.08.51.5.6.85,2.34,8.09,4.63,16.2,7.15,24.23a21.31,21.31,0,0,0,2.06,4.63,3.7,3.7,0,0,0,3.51,1.91,15.39,15.39,0,0,0,4.74-1c17.9-6.21,35.68-12.69,53.51-19.12.53-.19.42-.37.2-.73q-2.51-3.91-5-7.84a.82.82,0,0,0-1-.44q-20.81,4.63-41.62,9.22a1.45,1.45,0,0,0-.83.5c-2.71,3.34-5.44,6.65-8.16,10a2.25,2.25,0,0,1-.36.4.4.4,0,0,1-.6,0,.42.42,0,0,1,0-.6,3.26,3.26,0,0,1,.29-.36l5.35-6.49c.88-1.07,1.75-2.14,2.61-3.23,1.06-1.36.94-2-.51-2.84a2.52,2.52,0,0,1-1.14-1.35c-.18-.55-.37-1.1-.52-1.66C94.1,139.86,91,127.9,87.74,116a89.67,89.67,0,0,0-5.87-16.62,29.25,29.25,0,0,0-4.39-7.15,19.54,19.54,0,0,0-14-6.36c-.32,0-.42.13-.54.36-.46.89-.95,1.76-1.49,2.6a2.78,2.78,0,0,1-1.23,1.1,8.22,8.22,0,0,1-5.6.52,38.74,38.74,0,0,1-7.2-3,11.61,11.61,0,0,1-3.55-3.1,2.55,2.55,0,0,0-1.37-.87,41.71,41.71,0,0,0-4.32-.84,13,13,0,0,0-11.07,2.51,33.29,33.29,0,0,0-8.3,9c-.67,1.15-1.38,2.29-2.05,3.45C7.33,113.9-1.59,130.44-10.58,147A9.21,9.21,0,0,0-11.74,152c.32,5.27.72,10.53,1.11,15.8.36,4.93.76,9.85,1.15,14.78s.75,9.77,1.12,14.65q.64,8.25,1.3,16.51c.11,1.34.21,2.66.34,4,0,.23,0,.63.37.43.49-.3,1-.11,1.47-.18,3-.44,6.07-.89,9.09-1.45,1.26-.23,1.38-.3,1.42-1.61,0-2,.1-4.05.14-6.08Q6.19,186,6.58,163c0-.78,0-1.53.79-2,.13-.08.2-.3.27-.46.52-1.3,1-2.6,1.55-3.9A2.45,2.45,0,0,0,8.83,154.26ZM23.9,277.88s.07.08.09.06.06-.1,0-.16a1.3,1.3,0,0,0-.1-.25Q15.26,258.2,6.59,238.87c0-.13,0-.33-.28-.33-.32.71-.68,1.39-.95,2.13a5.69,5.69,0,0,0-.24,3.26c2.45,9.92,5,19.82,7.44,29.72a.89.89,0,0,0,.67.71c1,.33,2.07.68,3.1,1C18.84,276.2,21.37,277,23.9,277.88Zm-35.83-4.16c.06,0,.07-.07,0-.09s0,0-.06,0l.08.08a2.21,2.21,0,0,0,.34.77c.11.24.26.47.42.76C-10.72,274-10.84,273.75-11.93,273.72Zm-5.87,21.37c-.06-4.44-.13-8.86-.2-13.3,0-1.63-.05-3.25-.08-4.88,0-.75.12-.83.86-.69a4.16,4.16,0,0,0,.79,0c1.37-.05,2.75-.11,4.14-.15.44,0,.5-.13.28-.49-.38-.72-.76-1.46-1.12-2.19-.13-.28-.27-.6,0-.88s.58-.12.86,0l.37.13c1.27.47,1.27.48,1.55-.83q3.06-14.49,6.1-29a1.09,1.09,0,0,0-.22-1c-1.06-1.37-2.06-2.79-3.12-4.17a5.26,5.26,0,0,1-.78-5,60.58,60.58,0,0,0,2.06-12.54c0-.25,0-.5.06-.74s-.06-.24-.26-.27c-.83-.09-1-.29-1.09-1.11q-.29-3.22-.54-6.45-.59-7.4-1.16-14.78c-.34-4.29-.66-8.57-1-12.86l-1-13.12c-.33-4.43-.65-8.84-1-13.26-.1-1.48-.14-3-.32-4.46a16.91,16.91,0,0,1,.43-5,1.18,1.18,0,0,1,.15-.36c9-16.58,17.94-33.17,27.34-49.53.9-1.57,1.84-3.1,2.76-4.65a32.88,32.88,0,0,1,9.33-9.79,12.81,12.81,0,0,1,9.4-2.24,34.87,34.87,0,0,1,6.35,1.19c.47.15.49-.16.58-.4.83-2.15,1.68-4.31,2.7-6.38a2.61,2.61,0,0,1,1.07-1.27h.4a72.4,72.4,0,0,0,7.29,3.18c2.33,1,4.68,1.94,7,3,1.69.8,2.15,2,1.49,3.75a2,2,0,0,1-.1.28,23.71,23.71,0,0,1,5.08.79c4.88,1.58,9,4.22,11.62,8.74a69.47,69.47,0,0,1,7,16.39c3.83,13.43,7.27,27,10.81,40.49.13.45.27.9.39,1.35a2.11,2.11,0,0,0,1.27,1.52,2,2,0,0,1,1.26,1.83c0,.5.21.47.56.41,3.08-.7,6.17-1.38,9.24-2.06l31.64-7a3.44,3.44,0,0,0,.78-.2.62.62,0,0,1,.91.26c.12.2.24.32.42.05,1.15-1.63,2.91-2.36,4.63-3.15l.44-.23a2,2,0,0,0-.25-.16c-.71-.29-.76-.41-.34-1.06,1.47-2.27,2.95-4.55,4.46-6.81a1.22,1.22,0,0,0,.18-1.15c-.36-1.16-.69-2.34-1-3.52-.16-.57-.19-1.09.44-1.44a1.56,1.56,0,0,1,1.8.12,7,7,0,0,1,1.05,1.2c.1.14.14.47.4.34s.07-.4,0-.59l-.77-1.63a3.14,3.14,0,0,1,0-2.71,1,1,0,0,1,1.84-.3c.43.52.79,1.13,1.22,1.75.43-.65.83-1.29,1.24-1.92.14-.2,0-.38,0-.58a8.86,8.86,0,0,1-.31-3.55c.06-.21.1-.44.18-.64a.91.91,0,0,1,1.59-.4,4.47,4.47,0,0,1,1,1.35c.68-1,1.35-1.94,2-2.92a3.34,3.34,0,0,1,2-1.48c1.71-.47,3.41-1,5.15-1.39,1.06-.23,1.22-.17,1.7.72v.94c-1.46,2.36-3,4.69-4.52,7a1.14,1.14,0,0,0-.16.7c.06,4.31-1.51,8.08-3.72,11.66-.08.13-.2.33-.29.33-.71,0-.67.56-.81,1a14.37,14.37,0,0,1-1.71,3.47c-2.28,3.49-4.68,6.89-7.13,10.25a9.6,9.6,0,0,1-4.58,3.3c-.43.18-.68.27-.32.79s.17.87-.54,1.13l-16,5.8c-12.5,4.49-25,9-37.55,13.36a21,21,0,0,1-4.84,1.2,4.84,4.84,0,0,1-5.07-2.46,28.34,28.34,0,0,1-2.52-6.14c-2.17-7.1-4.22-14.22-6.28-21.36a.65.65,0,0,0-.25-.4v.61q.32,25.38.64,50.77v.4c.1,1.22.1,1.25-1.12,1.45-4.76.81-9.54,1.51-14.34,2.07-4.4.51-8.81.95-13.25,1.07a92.3,92.3,0,0,1-15-1,115.46,115.46,0,0,1-14.15-2.73,31.76,31.76,0,0,1-8.17-3.73c-.63-.39-.68-.65-.27-1.24a2.66,2.66,0,0,0,.36-1.07c2.6-12.76,5.2-25.53,7.54-38.34,1.19-6.52,2.09-13.09,3-19.66.18-1.43.37-2.87.56-4.3,0-.15.08-.3-.11-.5l-.39.62c-3.89,6.73-7.71,13.52-12,20-.49.76-.84,1.34-.2,2.21a2.38,2.38,0,0,1,.13,2.24q-.78,2.21-1.71,4.35a.91.91,0,0,1-.26.45c-.81.47-.65,1.23-.66,1.95q-.47,24.91-.92,49.84c0,.82-.06,1.64-.14,2.47A1.37,1.37,0,0,1,5,217.34c-.45.09-.45.24-.3.62,1.28,3.37,2.38,6.79,3.75,10.12a6.09,6.09,0,0,1,0,3.8,36.36,36.36,0,0,1-1.49,5,1.21,1.21,0,0,0,0,1q9,20.1,18,40.2a1,1,0,0,0,.66.58c1.22.42,2.43.86,3.64,1.31,1,.38.91.42,1,1.49a30.15,30.15,0,0,0,.55,3.08c1.42,7.47,2.85,14.94,4.22,22.42q1.83,9.9,3.56,19.81c.58,3.33,1.14,6.67,1.49,10,0,.24,0,.5,0,.74,0,.73-.28,1-1,1.12a5.93,5.93,0,0,1-2.54-.44c-.77-.26-1.52-.54-2.26-.8s-1-.12-1,.72,0,1.77,0,2.67a5.83,5.83,0,0,1-.23,1.71c-.3,1-.84,1.23-1.77.78A11.4,11.4,0,0,1,29,341.46c-.69-.6-1.36-1.24-2.15-2,.12,1.6.23,3.06.35,4.51q.5,6.53,1,13.05c.12,1.48.24,3,.33,4.46a8.67,8.67,0,0,1,0,1.61c-.11,1.05-.63,1.37-1.64,1.12-2.57-.64-5.08-1.47-7.61-2.22l-.63-.17c.07,1.4.11,2.76.19,4.11a2.51,2.51,0,0,1-.59,2h-.54c0-.06,0-.1-.08-.13-8.5-4.56-16.87-9.33-25.3-14-2.7-1.51-5.37-3-8.07-4.55a1.73,1.73,0,0,1-1.07-1.73c0-1.07-.07-2.14-.11-3.2,0-.23,0-.44,0-.67,0-1.91,0-3.83-.12-5.74,0-.23,0-.44,0-.67,0-2,0-4-.12-6,0-.26,0-.53,0-.8,0-2.1,0-4.18-.12-6.28,0-.23,0-.44,0-.67,0-2.13,0-4.27-.12-6.41,0-.23,0-.44,0-.67,0-2.18,0-4.37-.12-6.55,0-.22,0-.44,0-.67,0-2.23,0-4.45-.12-6.68,0-.23,0-.44,0-.67C-17.65,299.54-17.69,297.32-17.8,295.09Z"/><path d="M-2.3,160.11l-4.67.24c-.26,0-.53,0-.8,0s-.55-.08-.56-.43.25-.45.54-.47l3.06-.16L2.86,159h.27c.29,0,.56.09.56.43s-.24.45-.53.46l-1.61.1Z"/><path d="M97.21,156.27a.58.58,0,0,1-.39.54l-9.14,5c-.26.15-.57.25-.76-.08s0-.53.31-.69l9.15-5C96.74,155.85,97.07,155.81,97.21,156.27Z"/></g><g style="clip-path:url(#f)"><rect x="-0.41" y="0.83" width="22.5" height="18.75"/></g><g style="clip-path:url(#g)"><path d="M13.24,13.3c0,.13,0,.33,0,.59s0,.47,0,.6-.08.15-.22.15l-.63-.06c-.46,0-1.16-.05-2.07-.05l-1.43,0-1.42,0a.18.18,0,0,1-.2-.13l-.17-1c0-.05.16-.1.47-.15a1.57,1.57,0,0,0,.64-.21A14.92,14.92,0,0,0,10,11.23a4.16,4.16,0,0,0,1.15-2.16,1.21,1.21,0,0,0-.49-1,1.69,1.69,0,0,0-1.07-.36,3.13,3.13,0,0,0-1.18.23,4.72,4.72,0,0,0-.8.42l-.35.24H7.17s-.07-.1-.08-.23,0-.26,0-.46c-.09-.4-.14-.57-.14-.49s0-.08.1-.13a4.31,4.31,0,0,1,1.36-.66,5.32,5.32,0,0,1,1.51-.24,3.32,3.32,0,0,1,2,.57,2.09,2.09,0,0,1,.9,1.82c0,.85-.78,2.06-2.34,3.6q-.25.3-.81.87h.43c.87,0,1.86-.05,3-.16h.06C13.19,13.09,13.24,13.16,13.24,13.3Z" style="fill:#fff"/><path d="M291.68,185.23H.72V.76h291V185.23M0,0V186H292.45V0H0"/></g></svg>