<svg xmlns="http://www.w3.org/2000/svg" xmlns:xlink="http://www.w3.org/1999/xlink" viewBox="0 0 292.18 186.17"><defs><clipPath id="a"><rect x="-2.16" y="-138.77" width="174" height="111.75" style="fill:none"/></clipPath><clipPath id="b"><polyline points="-157.22 -460.79 1282.78 -460.79 1282.78 356.71 -157.22 356.71" style="fill:none"/></clipPath><clipPath id="c"><polyline points="-157.22 -460.79 1282.78 -460.79 1282.78 349.21 -157.22 349.21" style="fill:none"/></clipPath><clipPath id="e"><rect x="189.81" y="29.01" width="70.5" height="62.25" transform="translate(129.06 272.4) rotate(-80.62)" style="fill:none"/></clipPath><clipPath id="h"><rect x="0.35" y="0.94" width="22.5" height="18.75" style="fill:none"/></clipPath><clipPath id="i"><rect x="155.95" y="78.85" width="133.5" height="107.25" style="fill:none"/></clipPath><clipPath id="j"><polyline points="-157.22 -460.79 1282.78 -460.79 1282.78 349.21 -157.22 349.21" style="fill:none;clip-rule:evenodd"/></clipPath><clipPath id="k"><rect x="92.23" y="216.52" width="199.5" height="171.62" style="fill:none"/></clipPath><clipPath id="m"><rect x="0.03" y="217.93" width="48" height="138.75" style="fill:none"/></clipPath></defs><title>how_to_3</title><rect x="0.46" y="0.94" width="291.71" height="185.23" style="fill:#f8f4fc"/><g style="clip-path:url(#a)"><path d="M95.93-57.2c-.15-.46-.47-.43-.83-.23l-9.15,5c-.28.16-.49.36-.3.69s.49.23.76.09l9.13-5A.58.58,0,0,0,95.93-57.2Zm-99.5,3.83,3.86-.17,1.61-.1c.3,0,.54-.13.53-.46s-.28-.43-.56-.43H1.6L-6-54.16-9.06-54c-.28,0-.54.12-.53.47s.27.43.56.43.54,0,.8,0ZM7.55-59.22a2.43,2.43,0,0,1,.34,2.47c-.54,1.3-1,2.61-1.55,3.9-.07.16-.14.38-.27.46-.78.46-.78,1.23-.79,2Q4.88-27.5,4.46-4.58c0,2-.08,4.05-.13,6.08,0,1.31-.16,1.37-1.42,1.61-3,.56-6.06,1-9.09,1.45-.48.07-1-.13-1.47.18C-8,4.94-8,4.54-8,4.31c-.12-1.34-.22-2.66-.33-4Q-9-7.94-9.66-16.2q-.55-7.32-1.12-14.65c-.38-4.93-.78-9.85-1.15-14.78-.39-5.27-.79-10.52-1.11-15.8a9.16,9.16,0,0,1,1.16-5.06C-2.89-83,6-99.54,15.43-115.82c.67-1.15,1.38-2.28,2-3.45a33,33,0,0,1,8.31-9,13,13,0,0,1,11.07-2.51,42.23,42.23,0,0,1,4.32.84,2.36,2.36,0,0,1,1.36.87,11.9,11.9,0,0,0,3.56,3.1,38.18,38.18,0,0,0,7.2,3,8.21,8.21,0,0,0,5.6-.52,2.72,2.72,0,0,0,1.23-1.1,24.82,24.82,0,0,0,1.48-2.6c.12-.23.23-.38.55-.36a19.54,19.54,0,0,1,14,6.36,29.44,29.44,0,0,1,4.39,7.15,89.07,89.07,0,0,1,5.87,16.61c3.29,11.91,6.36,23.87,9.49,35.83.15.56.33,1.11.52,1.66a2.55,2.55,0,0,0,1.14,1.35c1.46.86,1.58,1.48.51,2.84-.86,1.08-1.73,2.15-2.61,3.22l-5.35,6.5c-.09.12-.21.24-.29.36a.42.42,0,0,0,.05.6.42.42,0,0,0,.6,0,4.48,4.48,0,0,0,.36-.4c2.73-3.33,5.46-6.64,8.16-10a1.41,1.41,0,0,1,.83-.5q20.81-4.61,41.61-9.22a.83.83,0,0,1,1.06.44c1.63,2.62,3.3,5.23,5,7.83.23.36.34.55-.2.74-17.81,6.41-35.61,12.91-53.5,19.12a15.74,15.74,0,0,1-4.75,1A3.71,3.71,0,0,1,85.54-38a21.29,21.29,0,0,1-2.06-4.62c-2.53-8-4.8-16.14-7.15-24.23-.11-.35-.11-.78-.61-.86,0,0-.12-.13-.12-.2-.06-2.15-.48-4.3.07-6.45S77.2-78.75,78-80.93a45.7,45.7,0,0,0,1.76-5.58,17.92,17.92,0,0,0-.14-7,96.8,96.8,0,0,0-3.4-12.06c-.09-.32-.23-.64-.64-.51s-.3.54-.2.84c1,3.13,2.07,6.25,2.83,9.45a21.41,21.41,0,0,1,.76,8.46,34.71,34.71,0,0,1-1.8,6c-.47,1.3-.95,2.59-1.46,3.86a14.94,14.94,0,0,0-1.14,7.11c.21,2.09.18,4.18.21,6.28q.32,24.82.6,49.65c0,1.1,0,1.07-1.09,1.26-5.36.91-10.73,1.64-16.14,2.23a92.41,92.41,0,0,1-19.6.43A130,130,0,0,1,18.33-14a30.16,30.16,0,0,1-7.27-3.3c-.15-.08-.38-.09-.26-.43a32.93,32.93,0,0,0,1.13-4.93q2.65-13.3,5.29-26.62c1.38-7,2.62-14.09,3.56-21.18q.86-6.61,1.75-13.23A3.57,3.57,0,0,1,23-85c1.06-1.83,2.09-3.68,3.13-5.52a2.61,2.61,0,0,0,.24-.47.44.44,0,0,0-.16-.59.43.43,0,0,0-.59.15c-.12.16-.2.35-.31.52C20.14-81.77,15-72.65,9.49-63.77c-.84,1.37-1.74,2.69-2.66,4a2,2,0,0,1-2,.95,12.54,12.54,0,0,1-3.1-.75l-1-.38c-.33-.14-.72-.38-.91.12s.28.58.59.72a16,16,0,0,0,3.1,1,9.38,9.38,0,0,0,1.06.18A2.83,2.83,0,0,0,7.55-59.22Z" style="fill:#fdfdf3"/><path d="M-10,60.29l0,0,0,0,0,0S-10,60.31-10,60.29ZM1.31,19.48c-.3.2-.72.33-.67.71,0,.17.48.47.72.32C1.79,20.23,1.29,19.85,1.31,19.48Zm.1,2.1c-.89.4-1.07.88-.89,2.36C.84,23.11,1.12,22.37,1.41,21.58ZM158.91-86.15l-.78,1.21c-.41.62-.41.63.17,1.3C158.57-84.47,159.74-84.95,158.91-86.15ZM-16.37,63.47c0,.07,0,.15,0,.22s.22.12.34.17l2.95,1.31c.1-.44.18-.85.29-1.25s0-.47-.39-.46C-14.24,63.49-15.3,63.47-16.37,63.47Zm10.9-3.19c-1.47.15-2.9.11-4.35.16,1.45.53,2.88,1.08,4.35,1.63ZM159.74-84.25l-.87,1.31c-.12.18-.26.34-.18.6.41,1.29.81,2.6,1.27,4A15.77,15.77,0,0,0,159.74-84.25ZM-1,25.48a.92.92,0,0,0,.63-1.06c0-.66,0-1.32.07-2a1.66,1.66,0,0,1,.4-1c.08-.09.4-.17.13-.38s-.37-.31-.62-.06a3.86,3.86,0,0,1-1.25.87c-.21.08-.24.19-.19.4C-1.58,23.3-1.33,24.37-1,25.48Zm-3.45,37,.27,0L-3.84,57a.33.33,0,0,0-.27-.39c-.55-.16-1.08-.33-1.8-.56C-4.55,58.09-4.58,60.29-4.5,62.49ZM153.23-74.44c-.91,1.39-1.75,2.64-2.58,3.91.88-.12,1.66-.4,2.46-.52.28,0,.34-.24.34-.49A14.2,14.2,0,0,0,153.23-74.44Zm-.49-2.24c-1.37,2.09-2.68,4.09-4,6.1-.07.1-.26.27,0,.37s.36.23.54,0a2,2,0,0,0,.27-.37c1-1.54,2-3.09,3.06-4.61A1.33,1.33,0,0,0,152.74-76.68Zm9-12.3c.18,0,.21-.16.28-.27l2.6-3.88a1.65,1.65,0,0,1,.83-.73l4.15-1.29,1.15-.36c.16,0,.28-.14.24-.33s-.23-.17-.37-.16a2.34,2.34,0,0,0-.46.09c-1.74.4-3.44.93-5.13,1.43a1.69,1.69,0,0,0-1,.72c-.71,1.06-1.39,2.13-2.14,3.16A1.3,1.3,0,0,0,161.7-89Zm5.92-1.42.11.05,2.66-4.11c-1.58.5-3,1-4.37,1.37a1.23,1.23,0,0,0-.74.51c-1,1.48-2,3-3,4.44a.82.82,0,0,0-.21.67c.32,1.17.64,2.35,1,3.6a6.59,6.59,0,0,0,.63-2,18.5,18.5,0,0,1,1.7-5.5,2.59,2.59,0,0,1,1.43-1.33c.67-.24,1.11.1,1,.81A11.74,11.74,0,0,1,167.62-90.4Zm-.57-1.4a1.78,1.78,0,0,0-.94,1,15.36,15.36,0,0,0-1.32,4,8.75,8.75,0,0,1-.53,2.34,7.23,7.23,0,0,0-.69,4.29,10.44,10.44,0,0,1-.26,2.62c.11-.06.18-.09.2-.14a25,25,0,0,0,2.25-5.18C166.52-85.76,166-88.81,167.05-91.8Zm-5.89,18c.26-.74.46-1.31.67-1.89a12.73,12.73,0,0,0,.4-7.86c-.36-1.32-.71-2.64-1.12-4-.34-1.1-.62-2.22-1-3.31-.14-.37-.41-.9-.74-.84s-.32.67-.31,1a13,13,0,0,0,1,4.73,13.2,13.2,0,0,1,.38,9.16.59.59,0,0,0,0,.32C160.67-75.61,160.89-74.81,161.16-73.8ZM12.42,68.9c0-.09.07-.13.05-.17-.57-2.36-1.16-4.71-1.74-7.05a.45.45,0,0,0-.33-.37L6.86,60.13c-.28-.09-.35,0-.32.28.22,2,.42,4,.64,6,0,.24.05.48.35.59C9.16,67.66,10.79,68.29,12.42,68.9Zm5.88,3.22L7.39,68c0,.19,0,.3,0,.4L8,74.13a.78.78,0,0,0,.54.73c.68.27,1.34.59,2,.88a8.19,8.19,0,0,0,1.68.68c-.48-1.11-1-2.13-1.39-3.18-.25-.6-.11-.87.44-.85C13.62,72.47,16,72.27,18.3,72.12ZM3.87,34.37h-.1l.06,1c.34,3.11.69,6.24,1,9.35q.75,7,1.49,13.94c0,.21,0,.39.29.47,1.22.38,2.43.79,3.76,1.21C8.21,51.62,6,43,3.87,34.37ZM6.28,66.56C6,64.29,5.8,62.15,5.57,60c0-.28-.21-.36-.42-.42C2.59,58.76,0,57.94-2.53,57.1c-.39-.12-.46,0-.48.35-.08,1.4-.19,2.79-.27,4.19s-.07,1.25,1.12,1.7C.6,64.38,3.35,65.44,6.28,66.56ZM22.1,72.88c.14-.17,0-.3,0-.45a10.53,10.53,0,0,1-.49-2.21c-.09-1.21.33-1.72,1.52-1.91a4.09,4.09,0,0,1,1.21,0c.81.1,1.63.22,2.45.3.48,0,1.32-.55,1.32-.93,0-.56-.52-.54-.87-.66-1.22-.47-2.49-.84-3.7-1.29-3.76-1.38-7.59-2.56-11.37-3.87-.38-.13-.47,0-.36.36.48,1.84,1,3.65,1.35,5.51a2.67,2.67,0,0,0,2,2.26A36.52,36.52,0,0,1,22.1,72.88Zm-15,1.33C6.87,72,6.66,70,6.44,67.9c0-.27-.16-.38-.4-.47Q-2.41,64.22-10.83,61c-.34-.13-.45-.11-.53.27-.22,1.24-.48,2.48-.79,3.71-.12.49,0,.65.45.83q6.85,3,13.7,6.12ZM-4.71,29.8c-.33,1.55-.64,3-.94,4.42q-2.58,12.28-5.17,24.59c-.1.45,0,.53.41.56,1.11.08,2.22.13,3.35.12.5,0,.65-.13.53-.65-.2-.82-.33-1.66-.47-2.49s.31-1.31,1.15-1.18a10,10,0,0,1,1.22.33c.88.28.88.28.94-.69.25-3.93.52-7.85.77-11.78.23-3.49.47-7,.68-10.47,0-.18.12-.41-.13-.53A8.67,8.67,0,0,1-4.71,29.8Zm34.55,98.66a6,6,0,0,0,0-.6l-1.2-9.19Q27.34,108.79,26,98.9c-1-7.29-1.95-14.59-2.82-21.89a5,5,0,0,0-1.73-3c0,1.15.14,2.29.22,3.41.37,4.74.73,9.49,1.12,14.23q.71,8.75,1.43,17.5c.42,5.05.8,10.11,1.2,15.16,0,.19,0,.38.18.54.47.39.88.81,1.32,1.22A26.29,26.29,0,0,0,29.84,128.46Zm128.43-199c0,.48-.08.7-.33.71s-.47-.19-.52-.48-.07-.31-.1-.46a40.94,40.94,0,0,0-2.6-9.14,7.73,7.73,0,0,0-1.58-2.6.72.72,0,0,0-.84-.22c-.39.18-.14.47-.07.7.36,1.32.75,2.64,1.14,4a22.93,22.93,0,0,1,1,6.64c0,.59-.19,1.1-.82,1.22-2.55.48-4.78,1.73-7.12,2.76a7.25,7.25,0,0,0-2.69,2.25.4.4,0,0,0-.07.57c1.35,2.1,2.67,4.2,4,6.31a.33.33,0,0,0,.48.17,9.6,9.6,0,0,0,4.58-3.07q3.87-5.28,7.47-10.73a1.28,1.28,0,0,0,.2-1.12c-.81-3.14-1.66-6.27-2.71-9.35a16.71,16.71,0,0,0-2.11-3.84c-.1-.14-.18-.3-.35-.29s-.23.26-.28.41A2.46,2.46,0,0,0,155.2-84a16.14,16.14,0,0,1,1.55,4.75,59.26,59.26,0,0,1,1.38,7.82A6.06,6.06,0,0,0,158.27-70.57ZM5.44,58.73l-.31-3c-.41-4-.84-7.88-1.26-11.82-.46-4.39-.94-8.8-1.4-13.2a1.75,1.75,0,0,0-.76-1.42A20.62,20.62,0,0,1,.28,31.53c-.26.32-.51.74-.91.74-.83,0-.75.53-.78,1.07-.29,4.5-.59,9-.89,13.52-.19,2.86-.38,5.74-.58,8.6a.59.59,0,0,0,.51.74c1,.3,2,.63,3,.95ZM55.05-123.66a8.91,8.91,0,0,0,2.82-.45,2.25,2.25,0,0,0,1.34-.82,21.81,21.81,0,0,0,2.41-4.52,1.6,1.6,0,0,0-.94-2.19c-1.78-.8-3.58-1.57-5.36-2.37-2.82-1.25-5.76-2.22-8.51-3.65-.41-.21-.58,0-.76.32-1.11,2.21-2,4.51-2.89,6.81a.85.85,0,0,0,.15,1,14.07,14.07,0,0,0,4.31,3.31c1.57.71,3.17,1.4,4.8,2A6.6,6.6,0,0,0,55.05-123.66ZM2.46,28.69c-.2-.7.51-.59.53-1.05a4.12,4.12,0,0,1,.46-1.3C4,25.12,4.56,23.92,5,22.69s.68-2.25,1-3.37a6.87,6.87,0,0,0-.26-5.92s0,0,0-.07Q4.2,9,2.6,4.63c-.13-.36-.21-.52-.68-.44-2.67.45-5.36.86-8,1.24-.37.06-.51.18-.55.58-.21,2.39-.45,4.78-.74,7.16a65,65,0,0,1-1.45,6.5,4.17,4.17,0,0,0,.46,3.64c1.73,2.34,3.37,4.76,5.29,7a3.76,3.76,0,0,0,.9.79c1.11.62,1.33.58,2-.46C.22,30,.59,29.36,1,28.74c.08-.13.18-.24.06-.41a5.27,5.27,0,0,1-.95-2.45c-.75.31-1.09.75-.77,1.51a2.08,2.08,0,0,1,.11.66c0,.26-.05.49-.36.53s-.44-.15-.51-.41-.08-.31-.09-.46c-.27-1.71-.74-3.38-1.16-5.06a.87.87,0,0,0-.25-.54c-.46-.44-.2-.73.26-.85A5,5,0,0,0-.74,20a14.94,14.94,0,0,1,1.45-1.3A.58.58,0,0,0,.93,18C.77,17.41.6,16.85.46,16.29c-.08-.35-.33-.81.22-.95s.55.34.64.68c.35,1.27.66,2.54,1,3.79a3.36,3.36,0,0,1-.1,2.1c-.3.79-.52,1.61-.89,2.38C.6,26,1.28,27.27,2.46,28.69Zm28.4,100.09a1.6,1.6,0,0,0,.33-1v-3a4.9,4.9,0,0,1,0-.67,1.4,1.4,0,0,1,1.95-1.18,24.75,24.75,0,0,0,4.13,1.3c.56.09.79-.06.72-.66-.12-.92-.17-1.85-.3-2.78-1.13-7.63-2.5-15.22-3.89-22.81-1.52-8.22-3.09-16.42-4.63-24.64-.27-1.45-.56-2.89-.86-4.43a2.42,2.42,0,0,1-2.19.59,14.71,14.71,0,0,0-2.65-.28c-.88,0-1,.21-1,1.1A8.9,8.9,0,0,0,23,72.35a19.3,19.3,0,0,1,1,3.86Q24.9,83.59,25.89,91q1.3,9.89,2.62,19.78Q29.7,119.77,30.86,128.78ZM16.19,73.08v.24c-1.27,0-2.54,0-3.81,0-.52,0-.48.17-.31.53.3.62.56,1.26.83,1.9A6.86,6.86,0,0,1,13.66,78c.36,6.64.73,13.3,1.09,19.94q.62,11.85,1.25,23.68.66,12.47,1.31,24.95c0,.6.15.87.81,1.06,2.5.68,5,1.52,7.49,2.18.74.2.85.1.84-.67,0-.11,0-.23,0-.34-.15-2-.28-4-.43-5.93-.32-4.22-.65-8.43-1-12.66-.37-4.77-.76-9.54-1.13-14.31s-.75-9.45-1.13-14.18S22,92.27,21.59,87.54s-.73-9.31-1.09-14c0-.38-.15-.52-.56-.5C18.68,73.1,17.43,73.08,16.19,73.08Zm-34.53-9.27c0,2.36,0,4.65,0,7q.29,16.74.6,33.46c.19,9.8.41,19.59.58,29.39a1.55,1.55,0,0,0,.92,1.5q12.08,6.73,24.11,13.49c2.76,1.54,5.54,3.05,8.31,4.57.45.26.6.16.57-.33,0-.27,0-.53,0-.8q-.24-4.47-.47-8.94c-.37-7.17-.73-14.33-1.12-21.48s-.77-14-1.15-21.07-.77-14-1.1-21.08c0-1.32-.41-2.11-1.73-2.51a27.71,27.71,0,0,1-3-1.28c.12,1.17.22,2.24.33,3.3,0,.33.12.73-.33.8s-.5-.32-.54-.67c-.12-1.06-.28-2.12-.33-3.18a1,1,0,0,0-.7-1C3.33,73.51.06,72-3.2,70.58-6.09,69.3-9,68-11.84,66.71c-.52-.24-.68-.16-.73.39a14,14,0,0,1-.31,1.43c-.07.28-.19.53-.52.48s-.4-.38-.34-.68c.12-.62.26-1.22.39-1.84,0-.25.08-.45-.24-.58C-15.18,65.24-16.76,64.52-18.34,63.81Zm25.89-123a2.75,2.75,0,0,1-3,1.28c-.35,0-.71-.11-1.06-.17a16.8,16.8,0,0,1-3.1-1c-.31-.13-.78-.24-.59-.72S.38-60.1.72-60s.65.27,1,.39a13.5,13.5,0,0,0,3.1.75,2.07,2.07,0,0,0,2.05-1c.92-1.31,1.82-2.65,2.66-4,5.51-8.89,10.64-18,15.79-27.11a4,4,0,0,1,.31-.52.41.41,0,0,1,.59-.14.43.43,0,0,1,.16.58,5.16,5.16,0,0,1-.24.47C25.08-88.66,24.05-86.82,23-85a3.28,3.28,0,0,0-.44,1.31q-.87,6.62-1.76,13.23c-.93,7.1-2.16,14.15-3.55,21.18Q14.63-35.95,12-22.64a32,32,0,0,1-1.12,4.93c-.12.33.11.33.25.42A30.65,30.65,0,0,0,18.36-14a127.65,127.65,0,0,0,20.18,3.47,92.39,92.39,0,0,0,19.6-.43c5.4-.59,10.78-1.32,16.14-2.23,1.08-.19,1.1-.17,1.08-1.26q-.3-24.81-.6-49.64c0-2.1,0-4.19-.2-6.28a15,15,0,0,1,1.14-7.11c.51-1.29,1-2.57,1.46-3.87a33.75,33.75,0,0,0,1.8-6,21.41,21.41,0,0,0-.76-8.46c-.76-3.2-1.82-6.32-2.84-9.45-.1-.31-.26-.7.2-.84s.54.18.65.5A97.25,97.25,0,0,1,79.6-93.5a17.92,17.92,0,0,1,.15,7A46.46,46.46,0,0,1,78-80.95c-.76,2.18-1.72,4.29-2.28,6.53s-.14,4.31-.07,6.46c0,.06.07.2.12.2.51.08.51.51.6.85,2.34,8.09,4.63,16.2,7.16,24.23A20.84,20.84,0,0,0,85.57-38a3.69,3.69,0,0,0,3.5,1.91,15.74,15.74,0,0,0,4.75-1c17.89-6.22,35.68-12.7,53.5-19.13.54-.19.43-.37.2-.73q-2.51-3.91-5-7.84a.83.83,0,0,0-1.06-.44q-20.81,4.64-41.61,9.22a1.44,1.44,0,0,0-.83.5c-2.72,3.34-5.45,6.65-8.16,10a3.42,3.42,0,0,1-.36.4.4.4,0,0,1-.6,0,.43.43,0,0,1-.06-.6,2.49,2.49,0,0,1,.3-.36l5.35-6.49c.88-1.07,1.75-2.14,2.6-3.22,1.06-1.37.94-2-.5-2.85A2.48,2.48,0,0,1,96.48-60c-.19-.55-.38-1.1-.52-1.66-3.13-12-6.21-23.91-9.5-35.83a89,89,0,0,0-5.87-16.62,29.4,29.4,0,0,0-4.38-7.15,19.56,19.56,0,0,0-14-6.36c-.32,0-.43.13-.55.36-.45.89-1,1.76-1.48,2.6a2.72,2.72,0,0,1-1.23,1.1,8.24,8.24,0,0,1-5.61.52,38.93,38.93,0,0,1-7.19-3,11.52,11.52,0,0,1-3.56-3.1A2.62,2.62,0,0,0,41.2-130a42.77,42.77,0,0,0-4.32-.84,13,13,0,0,0-11.07,2.51,33.33,33.33,0,0,0-8.31,9.05c-.67,1.15-1.38,2.29-2,3.45C6.05-99.58-2.86-83-11.85-66.53A9.21,9.21,0,0,0-13-61.47c.32,5.27.72,10.53,1.11,15.8.36,4.93.76,9.85,1.15,14.78s.74,9.77,1.12,14.65Q-9-8-8.33.27c.1,1.34.21,2.66.33,4,0,.23,0,.63.37.43.5-.3,1-.11,1.48-.18,3-.44,6.07-.89,9.09-1.45,1.26-.23,1.38-.3,1.42-1.61,0-2,.09-4,.13-6.08q.42-22.9.82-45.82c0-.78,0-1.53.78-2,.14-.08.21-.3.27-.46.52-1.29,1-2.6,1.55-3.9A2.42,2.42,0,0,0,7.55-59.22ZM22.62,64.4s.07.08.1.06.05-.1,0-.16a1.25,1.25,0,0,0-.09-.25Q14,44.73,5.32,25.39c-.05-.12-.05-.32-.28-.32-.32.7-.68,1.39-1,2.12a5.53,5.53,0,0,0-.24,3.26c2.45,9.92,5,19.82,7.43,29.72a.89.89,0,0,0,.67.71l3.1,1C17.57,62.73,20.1,63.55,22.62,64.4ZM-13.2,60.24s.07-.07,0-.09,0,0-.07,0l.08.08a2.44,2.44,0,0,0,.35.77c.11.24.25.47.41.76C-12,60.48-12.12,60.27-13.2,60.24Zm-5.87,21.37c-.07-4.44-.14-8.86-.2-13.3,0-1.63-.06-3.25-.08-4.88,0-.74.12-.82.85-.69a4.18,4.18,0,0,0,.79,0l4.15-.14c.44,0,.49-.14.28-.5-.39-.72-.76-1.46-1.13-2.19-.13-.28-.26-.6,0-.88s.57-.12.85,0l.38.13c1.27.47,1.27.49,1.55-.82q3-14.51,6.1-29a1.08,1.08,0,0,0-.23-1C-6.84,27-7.84,25.6-8.9,24.22a5.25,5.25,0,0,1-.77-5A62,62,0,0,0-7.61,6.68c0-.24,0-.5.05-.74s-.05-.24-.25-.27c-.83-.09-1-.29-1.1-1.11-.19-2.15-.36-4.3-.53-6.45l-1.17-14.78c-.33-4.29-.65-8.57-1-12.86s-.68-8.74-1-13.12-.66-8.83-1-13.26c-.11-1.48-.15-3-.32-4.46a16.9,16.9,0,0,1,.42-5,1.5,1.5,0,0,1,.15-.36c9-16.58,18-33.17,27.35-49.53.89-1.57,1.83-3.1,2.75-4.65a32.88,32.88,0,0,1,9.34-9.78,12.76,12.76,0,0,1,9.4-2.25,35,35,0,0,1,6.35,1.19c.47.15.48-.16.57-.4.83-2.15,1.69-4.3,2.71-6.38a2.56,2.56,0,0,1,1.07-1.27h.4a71.26,71.26,0,0,0,7.28,3.18c2.33,1,4.68,1.94,7,3,1.7.8,2.15,2,1.5,3.75a2.24,2.24,0,0,1-.11.28,23.71,23.71,0,0,1,5.08.79c4.88,1.58,9,4.23,11.62,8.74a69.47,69.47,0,0,1,7,16.39c3.84,13.43,7.28,27,10.82,40.49.12.46.27.9.39,1.35a2.09,2.09,0,0,0,1.27,1.52,2.05,2.05,0,0,1,1.25,1.84c0,.49.22.46.57.4,3.07-.7,6.16-1.38,9.24-2.06l31.64-7a4.18,4.18,0,0,0,.77-.21.62.62,0,0,1,.91.26c.12.2.24.32.43.05,1.15-1.63,2.9-2.36,4.63-3.15l.44-.23L148-69.5c-.71-.29-.76-.41-.33-1.06,1.47-2.27,2.94-4.55,4.45-6.81a1.23,1.23,0,0,0,.19-1.15c-.36-1.16-.7-2.34-1-3.52-.16-.57-.18-1.09.44-1.44a1.58,1.58,0,0,1,1.81.12,7.4,7.4,0,0,1,1,1.2c.11.14.15.47.4.34s.07-.4,0-.59c-.25-.55-.51-1.08-.76-1.63a3.17,3.17,0,0,1,0-2.71,1,1,0,0,1,1.85-.3c.42.52.79,1.13,1.21,1.75.43-.65.83-1.29,1.25-1.92.13-.2,0-.37,0-.57a8.93,8.93,0,0,1-.31-3.56,4.64,4.64,0,0,1,.17-.64.91.91,0,0,1,1.59-.4A4.43,4.43,0,0,1,161-91c.69-1,1.36-1.94,2-2.92A3.33,3.33,0,0,1,165-95.44c1.71-.47,3.41-1,5.14-1.39,1.06-.23,1.22-.17,1.7.72v.94c-1.45,2.36-3,4.69-4.52,7a1.22,1.22,0,0,0-.16.71c.07,4.3-1.51,8.07-3.72,11.65-.08.13-.2.33-.29.33-.71,0-.67.56-.8,1A14.37,14.37,0,0,1,160.67-71c-2.29,3.49-4.68,6.89-7.13,10.25a9.63,9.63,0,0,1-4.59,3.3c-.43.18-.68.27-.32.79s.18.87-.53,1.13l-16,5.8c-12.51,4.49-25,9-37.55,13.36a21.17,21.17,0,0,1-4.84,1.2,4.83,4.83,0,0,1-5.07-2.46,28.37,28.37,0,0,1-2.53-6.14C80-50.91,77.92-58,75.86-65.17a.63.63,0,0,0-.26-.4V-65q.33,25.38.65,50.77v.41c.09,1.21.09,1.24-1.13,1.44-4.76.81-9.53,1.51-14.33,2.07-4.4.51-8.81.95-13.25,1.07a92.34,92.34,0,0,1-15-1A115.82,115.82,0,0,1,18.34-13a31.92,31.92,0,0,1-8.17-3.73c-.63-.39-.68-.65-.26-1.24A2.61,2.61,0,0,0,10.27-19c2.59-12.76,5.2-25.53,7.54-38.34C19-63.87,19.9-70.43,20.75-77c.19-1.43.38-2.87.56-4.3a.49.49,0,0,0-.1-.5l-.39.62c-3.89,6.73-7.72,13.52-12,20-.5.76-.85,1.34-.2,2.21a2.41,2.41,0,0,1,.13,2.24c-.52,1.47-1.1,2.92-1.71,4.35-.07.16-.14.37-.27.45-.8.47-.64,1.23-.66,1.95Q5.68-25,5.21-.11c0,.83,0,1.64-.13,2.47a1.38,1.38,0,0,1-1.31,1.5c-.46.09-.46.24-.31.62C4.74,7.85,5.84,11.27,7.22,14.6a6,6,0,0,1,0,3.8,36.32,36.32,0,0,1-1.48,5,1.12,1.12,0,0,0,0,.95q9,20.1,18,40.2a1,1,0,0,0,.65.58c1.22.42,2.44.86,3.64,1.31,1,.38.91.42,1,1.49S29.42,70,29.6,71c1.42,7.48,2.85,15,4.23,22.42,1.22,6.6,2.39,13.21,3.56,19.82.57,3.32,1.13,6.66,1.48,10a6.12,6.12,0,0,1,0,.74c0,.73-.28,1.05-1,1.12a6,6,0,0,1-2.54-.44l-2.26-.8c-.78-.28-1-.12-1,.72s0,1.78,0,2.67a5.47,5.47,0,0,1-.23,1.71c-.29,1-.84,1.23-1.76.78A11.07,11.07,0,0,1,27.68,128c-.7-.6-1.37-1.24-2.16-2,.13,1.6.23,3.06.35,4.52.34,4.34.68,8.7,1,13,.12,1.48.24,3,.34,4.46a9.63,9.63,0,0,1,0,1.61c-.11,1-.63,1.37-1.65,1.12-2.57-.64-5.08-1.47-7.61-2.22-.18-.05-.37-.11-.63-.17.07,1.4.11,2.76.19,4.11a2.48,2.48,0,0,1-.59,2h-.53a.12.12,0,0,0-.08-.13c-8.51-4.56-16.88-9.33-25.3-14-2.7-1.51-5.38-3-8.08-4.55A1.73,1.73,0,0,1-18.07,134c0-1.07-.07-2.14-.11-3.2,0-.22,0-.44,0-.67,0-1.91,0-3.83-.12-5.74,0-.23,0-.44,0-.67,0-2,0-4-.12-6,0-.27,0-.54,0-.81q0-3.14-.12-6.28c0-.22,0-.44,0-.67,0-2.13,0-4.27-.12-6.41,0-.23,0-.44,0-.67,0-2.18,0-4.37-.13-6.55,0-.22,0-.44,0-.66,0-2.24,0-4.46-.12-6.69,0-.22,0-.44,0-.67C-18.93,86.06-19,83.84-19.07,81.61Z"/></g><g style="clip-path:url(#b)"><g style="clip-path:url(#c)"><g style="clip-path:url(#c)"><g style="clip-path:url(#e)"><g style="clip-path:url(#e)"><g style="clip-path:url(#e)"><path d="M247.17,84.39c-1.16-2.16-5.79-9.93-6.52-13.67l-5.36-8.26a4.73,4.73,0,0,0,2-3.58c.25-2.54-2.47-5.88-2.47-5.88-2.23-2.5-4.93-4.32-7-1.31s-.31,5-.29,7.4-1.69,1.86-3.65-1.62-7.65-10-7.65-10-1.66-2-8.85.12a19.69,19.69,0,0,1-4,.73c-.79,2.49-1.8,6.29-1.28,8.28.81,3.1,2.71,5.27,1.77,9.73S202.61,72,203,73.24c.46,1.63,3.95,1.1,5.93,2.41s5.36,7.6,9.33,8.38c2.67.52,7-1.59,9.55-2.92,1,.79,1.77,3,4,6.47,2.69,4.21,2.53,4.71,2,6.47-.65,2-1.07,2.19-1.21,2.16,2.36,1.12,16.34,3.54,19.07-9.48C251.58,86.73,249.22,87.26,247.17,84.39Z" style="fill:#fff"/><path d="M235.13,96.29a14.71,14.71,0,0,1-1.52-.33,9.94,9.94,0,0,0,.69-1.72c.64-2,.69-2.71-2-7-.95-1.49-1.63-2.75-2.18-3.76a11.55,11.55,0,0,0-1.71-2.65.33.33,0,0,0,0-.14.61.61,0,0,0-.83-.25c-4.26,2.28-7.35,3.25-9.15,2.9-2.39-.47-4.64-3.26-6.46-5.51A15.27,15.27,0,0,0,209.25,75a8.93,8.93,0,0,0-3.3-1.09c-1.14-.22-2.22-.43-2.38-1a7.31,7.31,0,0,1,.15-3.29c.16-.82.37-1.86.65-3.22,0,0,0-.07,0-.11l0-.08a12.07,12.07,0,0,0-.94-7.68,21.92,21.92,0,0,1-.83-2.4,9.3,9.3,0,0,1,.15-3.6,36.11,36.11,0,0,1,1-3.69,21,21,0,0,0,3.73-.72,15.92,15.92,0,0,1,6.77-.85,2.8,2.8,0,0,1,1.45.55c.06.06,5.69,6.54,7.58,9.92.81,1.43,2,3.18,3.21,3.38a1.23,1.23,0,0,0,1-.26,1.93,1.93,0,0,0,.55-1.27.29.29,0,0,0,0-.09l0-.17a4.68,4.68,0,0,0,0-.55,10.13,10.13,0,0,0-.38-2.33,6.74,6.74,0,0,1-.3-2.66,4.93,4.93,0,0,1,.81-1.78c1.52-2.17,3.47-1.58,6.08,1.35.71.87,2.5,3.53,2.33,5.42A4.18,4.18,0,0,1,235,61.68a.6.6,0,0,0-.28.38,1.21,1.21,0,0,0,0,.19l0,.08a.58.58,0,0,0,.08.46L240.07,71c.69,3.26,4,9.12,5.76,12.29l.84,1.5a5.59,5.59,0,0,0,4.14,2.62C248.11,97.87,237.31,96.65,235.13,96.29Zm16.88-10a.62.62,0,0,0-.56-.17,4.13,4.13,0,0,1-3.74-2c-.19-.36-.48-.86-.82-1.46-1.62-2.9-5-8.91-5.63-12a.64.64,0,0,0,0-.45l6.19,2,.09,0h0a.57.57,0,0,0,.71-.5.6.6,0,0,0-.4-.67c-3.47-2-2.12-5.22.36-10.37.32-.65.63-1.31.94-2,2.27-4.89,1.6-13.15-1.63-20.07-3-6.54-7.93-11-13.74-12.62-1.17-.32-2.4-.59-3.64-.8a47.6,47.6,0,0,0-26.38,3.61.4.4,0,0,1-.22,0c-.16,0-.38-.31-.54-.52a1.5,1.5,0,0,0-.91-.71,1,1,0,0,0-1,.51c-3,4.21-1,12.71-.27,15.22a17.29,17.29,0,0,0,1.87,4.72,34.36,34.36,0,0,0-1.16,4.78,9.79,9.79,0,0,0-.08,3.83,23.41,23.41,0,0,0,.87,2.53,11.08,11.08,0,0,1,1.07,5.81c0,.3-.08.6-.15.92-.42,2-.7,3.41-.85,4.45a6.54,6.54,0,0,0,0,3c.36,1.29,1.87,1.58,3.32,1.85a8.29,8.29,0,0,1,2.86.91,15.31,15.31,0,0,1,2.37,2.57c1.94,2.38,4.35,5.35,7.17,5.9l.13,0c2.07.34,5.15-.58,9.44-2.8A15.41,15.41,0,0,1,229,84.07c.56,1,1.25,2.31,2.22,3.84,2.55,4,2.43,4.35,1.91,6a6.42,6.42,0,0,1-.74,1.73.56.56,0,0,0-.44.25.6.6,0,0,0,.1.79.56.56,0,0,0,.19.11h0a11.57,11.57,0,0,0,2.68.73c2.42.4,14.64,1.76,17.23-10.63A.59.59,0,0,0,252,86.31Z"/><path d="M207.59,48.45a5.62,5.62,0,0,0-3.15,2.92.62.62,0,0,0,.32.8l.15,0a.61.61,0,0,0,.65-.36,4.36,4.36,0,0,1,2.4-2.24,4.22,4.22,0,0,1,4.59.94.62.62,0,0,0,.86.08.59.59,0,0,0,.08-.85A5.39,5.39,0,0,0,207.59,48.45Z"/><path d="M230.35,54.12a.61.61,0,1,0-.62,1.05c.74.44,2.87,2,2.94,3.22,0,.14,0,.58-.62,1.07a2.62,2.62,0,0,1-.6.35,2.34,2.34,0,0,1-.08-1.17.6.6,0,0,0-.52-.69.62.62,0,0,0-.69.52c-.06.43-.2,1.88.67,2.39a1.34,1.34,0,0,0,.38.14,2.19,2.19,0,0,0,1.58-.57,2.41,2.41,0,0,0,1.1-2.11C233.77,56.21,230.7,54.33,230.35,54.12Z"/><path d="M209.1,56.18c-.24.1-.65.39-.67,1.25a4.25,4.25,0,0,0,.36,1.65A2.88,2.88,0,0,0,210.54,61a.92.92,0,0,0,1-.61,3.28,3.28,0,0,0-.22-2.33C210.8,56.68,209.81,55.89,209.1,56.18Z"/><path d="M223.93,70.7a.6.6,0,0,0-.79.34c-.83,2.12-4.26,3.53-4.29,3.54a.61.61,0,0,0-.34.79.6.6,0,0,0,.47.37.59.59,0,0,0,.32,0c.17-.07,3.95-1.62,5-4.22A.6.6,0,0,0,223.93,70.7Z"/></g></g></g></g></g></g><g style="clip-path:url(#h)"><rect x="0.35" y="0.94" width="22.5" height="18.75"/></g><g style="clip-path:url(#i)"><path d="M217.89,185.18l-16.33.47-21.78.62-1.51,0c-.22,0-.28.13-.29.32s.15.23.3.22h.34c2.8-.08,5.61-.15,8.41-.24l12-.37,13.31-.41c2-.07,4.08-.15,6.15-.21C218.42,185.16,218.17,185.17,217.89,185.18Z" style="fill:#bfb3dd"/><path d="M190.07,174.29a45,45,0,0,1,4.16-2.13h-2a.63.63,0,0,0-.44.16,12.79,12.79,0,0,0-1.88,1.87l-.13.15a1,1,0,0,1,.08.11Z" style="fill:#bfb3dd"/><path d="M189.79,174.34a1.27,1.27,0,0,0-.1.12l.06,0,.12-.06Z" style="fill:#bfb3dd"/><path d="M189.59,174.54c.07.06.11,0,.14,0l0,0A.34.34,0,0,1,189.59,174.54Z" style="fill:#bfb3dd"/><path d="M200,165a11.07,11.07,0,0,0-6.67-.85c.75.06,1.51.11,2.24.21a5.93,5.93,0,0,1,4.33,2.41,28.07,28.07,0,0,1,2.08,3.07,1.9,1.9,0,0,0,1,.85c.36.19.54,0,.64-.32a1.23,1.23,0,0,0,0-.6A6.59,6.59,0,0,0,200,165Z" style="fill:#bfb3dd"/><path d="M211.22,171.57c-.93,0-1.85,0-2.78,0,0,0,0,.11,0,.18l3.53.41C211.84,171.71,211.62,171.56,211.22,171.57Z" style="fill:#bfb3dd"/><path d="M183.63,173.39l.69-1.2c0-.06.1-.11,0-.16s-.07.06-.1.08l0,0,0,0C183.34,172.72,183.3,172.8,183.63,173.39Z" style="fill:#bfb3dd"/><path d="M162.21,157.05l-4.3-8.51c-.07-.14-.07-.42-.36-.37s-.58,0-.68.19.19.37.28.56.15.24.22.38c2.42,4.74,4.84,9.46,7.25,14.2q6,11.75,11.93,23.5c.14.27.29.29.52.17.42-.22,0-.44,0-.61Z" style="fill:#bfb3dd"/><path d="M287.1,174.7a30.89,30.89,0,0,1-5.15.2c-2.32-.11-4.56-.14-6.79-.42-.3,0-.61-.07-.57-.43s.37-.37.66-.34a76.88,76.88,0,0,0,9.23.43A19.12,19.12,0,0,0,287,174c.28,0,.61-.09.67.29S287.4,174.66,287.1,174.7Zm-15.75-17.34a12.08,12.08,0,0,1-5,.88,25.5,25.5,0,0,1-10.09-2.49,4.17,4.17,0,0,1-1.2-.79c-.21-.2-.39-.45-.14-.71s.46-.05.65.14a5.47,5.47,0,0,0,1.66,1,23.53,23.53,0,0,0,10,2.09,9.8,9.8,0,0,0,3.78-.78c.28-.12.56-.22.71.13S271.59,157.25,271.35,157.36Zm-6.41,10c-.05.25-.27.33-.53.3a4,4,0,0,1-1.57-.65A34.86,34.86,0,0,1,258,163.2c-1.54-1.38-3-2.85-4.38-4.35-.32-.33-.67-.64-1-.94-.2-.17-.3-.35-.15-.57a.38.38,0,0,1,.59-.06,6.7,6.7,0,0,1,.74.66,80.1,80.1,0,0,0,6,5.81,29.05,29.05,0,0,0,3.26,2.5,4.06,4.06,0,0,0,1.56.69C264.79,167,265,167.12,264.94,167.4Zm-33-27.7c.41-.08.67.06.65.4s-.27.3-.53.34a38.84,38.84,0,0,0-7.8,2.39c-.36.16-.69.35-1,.54s-.45.2-.62-.07,0-.42.19-.55a9.34,9.34,0,0,1,2.18-1.06A41.5,41.5,0,0,1,231.9,139.7Zm62.6,39.85c-.13-1.32-.2-2.65-.35-4q-1.09-9.16-2.23-18.31c-.69-5.49-1.14-11-1.63-16.54-.36-4-.7-7.93-1.27-11.88a195.44,195.44,0,0,0-4.09-19.72,26,26,0,0,0-13.5-17.34c-2.07-1.11-4.15-2.15-6.24-3.21a60.42,60.42,0,0,0-11.75-4.18h-.13a.47.47,0,0,1,.05.1,6.54,6.54,0,0,1-1.09,5.16,27.2,27.2,0,0,1-5,5.15,12.49,12.49,0,0,1-3,1.91,9.12,9.12,0,0,1-6,.89c-.14,0-.31,0-.4-.16a8.17,8.17,0,0,0-1.11-1.09,21.27,21.27,0,0,1-2.57-3.48c-.1-.16-.15-.42-.44-.25a7.45,7.45,0,0,0-2.68,2,24.28,24.28,0,0,0-3.87,8.13c-1.51,6.13-2.6,12.34-3.8,18.54s-2.36,12.33-3.54,18.49c-.29,1.52-.58,3-.88,4.63a11,11,0,0,1,2.76-.56,22.84,22.84,0,0,1,7.18.56c.85.2,1.71.45,2.56.7.25.06.46.22.35.53s-.34.25-.57.2-.25-.08-.37-.11a22.44,22.44,0,0,0-10-1,3.57,3.57,0,0,0-2.24.8.3.3,0,0,1-.36.06c-.29-.28-.46,0-.66.11-1.57,1.18-3.14,2.37-4.73,3.52-6.24,4.58-12.32,9.37-18.77,13.65-.08.06-.23.09-.16.27a12.82,12.82,0,0,1,3.15.16,9.73,9.73,0,0,1,4.09,1.46,7.23,7.23,0,0,1,3.24,5.62l7-2.3a131.07,131.07,0,0,0,16-6.22,19.9,19.9,0,0,0,7.83-6c.72-1,1.46-2,2.15-3a1.8,1.8,0,0,0,.31-1,17.84,17.84,0,0,0-.66-5.33c-1.76-7.15-3.78-14.23-5.57-21.37a58.75,58.75,0,0,1-1.71-7.85,87.65,87.65,0,0,1-.4-12.55c0-.13,0-.26,0-.39a.36.36,0,0,1,.72,0v.44c0,2,0,4.08,0,6.12a44.43,44.43,0,0,0,.49,6.82c.95,5.42,2.56,10.68,3.89,16,.24,1,.55,2,.81,2.94s.53,2,.78,3,.53,2,.78,3,.44,2,.76,3,.34,1.91.58,2.86a15.11,15.11,0,0,1,.08,5.53c-.06.43-.36.9-.33,1.22a7.76,7.76,0,0,1-.36,2.27,38.05,38.05,0,0,1-1.81,5.3l0,.13.19,0c1.78-.74,3.57-1.46,5.34-2.22,2.93-1.24,5.9-2.42,8.76-3.82a1.44,1.44,0,0,0,1-1.52,2,2,0,0,1,1.43-2.18,1.12,1.12,0,0,0,.76-.93c.3-1.47.52-2.95.75-4.44.6-3.75,1.15-7.5,1.76-11.25s1.28-7.44,1.83-11.17,1.13-7.62,2-11.38a12.25,12.25,0,0,1,2.53-5.67,33.65,33.65,0,0,1,5.45-4.81.55.55,0,0,1,.14-.09c.2-.11.4-.12.53.09a.36.36,0,0,1-.13.53l-.36.27a35.39,35.39,0,0,0-4.24,3.6,10.7,10.7,0,0,0-2.94,5.2q-.76,3.27-1.31,6.58c-.6,3.66-1.14,7.32-1.76,11-.7,4.22-1.42,8.43-2.06,12.66-.43,2.89-.87,5.78-1.37,8.66a2.27,2.27,0,0,1-1.57,2,1,1,0,0,0-.69,1c0,.24,0,.48,0,.72a1.69,1.69,0,0,1-1,1.61c-.57.28-1.11.59-1.69.85-6.36,2.81-12.78,5.46-19.24,8-3.69,1.46-7.38,2.89-11.07,4.35-.2.08-.53,0-.38.49,1.2,3.39,2.32,6.82,3.58,10.19a.66.66,0,0,0,.79.49c2.64-.21,5.27-.4,7.9-.62,1.77-.14,3.55-.28,5.33-.44s3.54-.32,5.33-.46,3.49-.39,5.24-.54c2.61-.22,5.2-.57,7.8-.89a61.85,61.85,0,0,0,12.88-3.16,12.47,12.47,0,0,0,7.89-7.19c.42-1,.82-2,1.15-3.06a112.83,112.83,0,0,0,3.33-13.17c.65-3.19,1.33-6.37,1.8-9.6.54-3.74.79-7.52,1-11.29,0-.29,0-.61.43-.58s.33.35.32.62c-.06,1-.1,2-.17,2.94-.21,3.11-.44,6.21-1,9.29-.64,3.91-1.42,7.79-2.27,11.66a97.75,97.75,0,0,1-3.55,12.65,13.64,13.64,0,0,1-8.24,8.29,62.4,62.4,0,0,1-10.05,2.8c-3.11.63-6.28.93-9.44,1.27-.41,0-.81.1-1.3.16a1.26,1.26,0,0,0,.25.22,47.93,47.93,0,0,0,5.45,3.11,52.78,52.78,0,0,0,10.86,3.43,56.59,56.59,0,0,0,12.19.84,32.2,32.2,0,0,0,15.23-4.24,12.46,12.46,0,0,0,2.36-1.67A3,3,0,0,0,294.5,179.55Z" style="fill:#bfb3dd"/><path d="M202.17,171.19a3.75,3.75,0,0,0-2.45-.18,29.18,29.18,0,0,0-3.66,1.24,31.2,31.2,0,0,0-6.06,3,5.59,5.59,0,0,0-1.46,1.42c.21,0,.37,0,.47,0,1.18-.63,2.38-1.26,3.53-1.93a23.06,23.06,0,0,1,7.54-2.8c.27,0,.61-.12.65.29s-.29.44-.57.48a15,15,0,0,0-1.62.33,28.86,28.86,0,0,0-6.87,3,16.16,16.16,0,0,0-4.39,3.46c.38,0,.58.43.88,0a5.78,5.78,0,0,1,1.71-1.4,38.69,38.69,0,0,1,7-3l1.11-.37a.35.35,0,0,1,.49.22.38.38,0,0,1-.27.48l-.37.13a58.64,58.64,0,0,0-6,2.32,14.86,14.86,0,0,0-2.66,1.59c-.12.1-.36.22-.27.37s.47.28.73.35a.33.33,0,0,0,.42-.17,3.67,3.67,0,0,1,1.81-1.58,23.57,23.57,0,0,1,5.05-1.81,7.11,7.11,0,0,1,2.34-.21c.23,0,.26.2.23.37s-.28.28-.51.31a18.86,18.86,0,0,0-7.28,2.33,1.64,1.64,0,0,0-.8.72,2.25,2.25,0,0,0,1.28.11c1.76-.27,3.44-.81,5.17-1.23a5.44,5.44,0,0,1,3.93,0c.45.24.94.41,1.42.61a26.63,26.63,0,0,0,7.09,2.46,9.6,9.6,0,0,0,5.85-.79c.4-.2.91-.18,1.28-.49.09-.08.16.06.23.07a1.08,1.08,0,0,0,.79-.12c.16-.13-.06-.4-.13-.6-.72-2.3-1.75-4.46-2.64-6.69-.05-.11,0-.29-.25-.32-1-.11-2.07-.26-3.12-.36-1.58-.15-3.15-.4-4.75-.48A13.56,13.56,0,0,1,202.17,171.19Z" style="fill:#bfb3dd"/><path d="M158.31,147.61Q163.67,158.29,169,169l6.09,12.12c.62,1.24,1.26,2.49,1.94,3.81a1.08,1.08,0,0,0,0-.25c-.38-3.53-.74-7.07-1.15-10.59a4,4,0,0,0-.24-1.4c-2.82-5.83-5.82-11.56-8.53-17.43-1.19-2.6-2.52-5.14-3.78-7.7-1.16-2.35-2.33-4.7-3.51-7.08a1,1,0,0,0-.11.24c-.54,2.09-1.06,4.17-1.6,6.26A.82.82,0,0,0,158.31,147.61Z" style="fill:#bfb3dd"/><path d="M185.52,185.35c.35,0,.62,0,.9,0q11.51-.32,23-.66c2.68-.07,5.36-.16,8-.22.49,0,.52-.12.3-.51-.3-.55-.56-1.12-.82-1.7-.18-.38-.37-.53-.79-.26a6.42,6.42,0,0,1-1.69.7,12.73,12.73,0,0,1-7.48-.4c-2.12-.68-4.09-1.69-6.13-2.57a3.43,3.43,0,0,0-2-.2c-1.5.28-3,.78-4.46,1.08-1.24.25-2.47.88-3.77.17h-.1c-.67.44-1.28.06-1.93-.16a11.37,11.37,0,0,0,.32,1.7c.12.67.27,1.34.41,2,0,.22,0,.42-.27.46s-.38-.1-.43-.32-.06-.18-.08-.26c-.24-1.1-.48-2.17-.68-3.26a.89.89,0,0,0-.57-.73c-.8-.34-.92-.79-.34-1.45.43-.49.9-.95,1.34-1.41a.78.78,0,0,1-.52-.89c.09,0,.1-.12.05-.16s-.1,0-.14.06a2.22,2.22,0,0,1-.27.19c-.29.18-.59.48-1,.23s-.82-.63-.53-1.25a2,2,0,0,0,.1-.48s0-.12,0-.13-.08,0-.09.06a4.76,4.76,0,0,1-1.54.85c-.29.07-.32.16-.27.43q.83,4.14,1.63,8.28A.72.72,0,0,1,185.52,185.35Z" style="fill:#bfb3dd"/><path d="M181.86,172.71a1.12,1.12,0,0,0,.65-.25c1.61-1.16,3-2.58,4.52-3.85.62-.52,1.12-1.18,1.7-1.75.24-.23.5-.65.86-.25s-.11.59-.32.8a25.44,25.44,0,0,0-4.83,6.14,5.43,5.43,0,0,0-.51,1.22c-.09.36,0,.49.4.33a3.28,3.28,0,0,0,.93-.57,11.87,11.87,0,0,0,2.55-2.83,25,25,0,0,1,3.18-4,4.11,4.11,0,0,1,.81-.69c.2-.12.39-.16.54,0s.08.4-.11.58A24.7,24.7,0,0,0,187.3,174a5.12,5.12,0,0,0-.73,2.26,6.51,6.51,0,0,0,1.31-1.06c.82-.83,1.64-1.67,2.43-2.52a12.43,12.43,0,0,1,3.62-2.65c.1-.05.28-.2.31-.08.18.72.82.62,1.31.79.31.11.5.26.42.6,0,.06-.15.08-.07.15a.11.11,0,0,0,.17-.06c1.68-.49,3.28-1.36,5.18-1.26-.76-1.09-1.44-2.12-2.17-3.11a4.82,4.82,0,0,0-2.61-1.69,25,25,0,0,0-5.25-.49,10.14,10.14,0,0,0-5,1.17,2.25,2.25,0,0,0-.84.62,22.75,22.75,0,0,0-3.19,5A2.2,2.2,0,0,0,181.86,172.71Z" style="fill:#bfb3dd"/><path d="M178.41,185.58c1-.05,2-.07,3-.09.33,0,.39-.07.35-.41-.34-2.23-.65-4.47-1-6.7-.25-1.73-.49-3.45-.76-5.17,0-.22.12-.64-.39-.63h-3c.11,1,.22,1.88.31,2.74.34,3.27.69,6.54,1,9.82C177.93,185.49,178.05,185.61,178.41,185.58Z" style="fill:#bfb3dd"/><path d="M246.76,93.66c.22.22.35.3.62,0,.9-.82,1.81-1.63,2.66-2.52.09-.09.17-.19.26-.3l-.25-.26c-.64-.67-1.25-1.37-1.84-2.09-1.17-1.44-2.27-2.93-3.5-4.32-.25-.3-.41-.28-.68,0-.73.7-1.5,1.38-2.27,2s-.63.54-.13,1.19A72.69,72.69,0,0,0,246.76,93.66Z" style="fill:#bfb3dd"/><path d="M242,96.16a.76.76,0,0,0,1.07.24,14.65,14.65,0,0,0,3.35-2c-.34-.37-.69-.74-1-1.11-1.65-1.81-3.12-3.77-4.61-5.69-.21-.28-.34-.34-.65-.09-.6.49-1.26.91-1.88,1.38-.42.31-1.19.47-1.24.9s.53.88.85,1.3C239.22,92.87,240.59,94.53,242,96.16Z" style="fill:#bfb3dd"/><path d="M247,85.84c1.15,1.4,2.23,2.87,3.49,4.18.23.24.34.27.58,0a8.89,8.89,0,0,0,1.29-2.48.74.74,0,0,0-.2-.93c-.41-.4-.78-.84-1.17-1.27-1.2-1.29-2.34-2.63-3.6-3.87-.11-.11-.25-.21-.39-.34l-.28.3c-.51.55-1,1.13-1.55,1.67-.23.23-.19.35,0,.58C245.82,84.37,246.41,85.1,247,85.84Z" style="fill:#bfb3dd"/><path d="M182,173.5a.68.68,0,0,1-.92-.55c0-.15.07-.45-.25-.38s-.14.3-.12.45c.17,1.17.35,2.34.52,3.52l1.23,8.56c0,.24.08.37.37.36.82,0,1.62,0,2.32,0-.81-4.12-1.6-8.14-2.41-12.18C182.47,173.35,182.23,173.45,182,173.5Z" style="fill:#bfb3dd"/><path d="M217.47,172l-2,.26a.17.17,0,0,0,0,.1,95.93,95.93,0,0,1,3.57,9.16c.11.34.33.28.56.25.51-.07,1-.17,1.56-.24-1.07-3.1-2.15-6.18-3.21-9.27C217.88,172,217.7,172,217.47,172Z" style="fill:#bfb3dd"/><path d="M237.62,96.15a2.81,2.81,0,0,0,2.29.89,7.74,7.74,0,0,0,1.31-.1c.1,0,.26,0,.3-.11s-.09-.23-.16-.3a64.29,64.29,0,0,1-4.94-6.13c-.1-.15-.17-.25-.39-.14-.54.29-1.1.54-1.65.8-.18.09-.24.17-.13.38A20.78,20.78,0,0,0,237.62,96.15Z" style="fill:#bfb3dd"/><path d="M182.37,168.65c.27-.2.69-.28.89-.53.58-.76,1.15-1.51,1.77-2.27-2.54-.5-4.57,1.7-5.53,4.77a2.38,2.38,0,0,0,.76-.43C181,169.68,181.64,169.14,182.37,168.65Z" style="fill:#bfb3dd"/><path d="M157.12,147.46c.09,0,.18,0,.22-.17.35-1.52.73-3,1.11-4.54.25-1,.48-2,.72-2.94l-.14,0a15.89,15.89,0,0,0-.59,2.15c-.46,1.73-.89,3.46-1.34,5.19C157.08,147.25,157,147.38,157.12,147.46Z" style="fill:#bfb3dd"/><path d="M252.64,86c.12-.9.12-.92-.3-1.57-.29-.43-.58-.87-.88-1.28a13.5,13.5,0,0,0-2.91-3c-.18-.14-.36-.34-.62-.07s-.43.44,0,.86C249.48,82.53,251,84.24,252.64,86Z" style="fill:#bfb3dd"/><path d="M193.22,171.36h.94c.08,0,.19,0,.21-.1s-.1-.14-.16-.19C193.76,170.69,193.51,171.12,193.22,171.36Zm18.75.81c-.13-.46-.35-.61-.75-.6-.93,0-1.85,0-2.78,0,0,0,0,.11,0,.18Zm-52.78-32.36-.15,0a15.89,15.89,0,0,0-.59,2.15c-.46,1.73-.89,3.46-1.34,5.19,0,.12-.14.25,0,.33s.18,0,.22-.17c.35-1.52.73-3,1.11-4.54C158.7,141.77,158.94,140.79,159.19,139.81ZM252.64,86c.12-.9.12-.92-.3-1.57-.29-.43-.58-.87-.88-1.28a13.5,13.5,0,0,0-2.91-3c-.18-.14-.36-.34-.62-.07s-.43.44,0,.86C249.48,82.53,251,84.24,252.64,86Zm-73.16,84.63a2.38,2.38,0,0,0,.76-.43c.71-.5,1.4-1,2.11-1.54.28-.2.7-.28.9-.53.58-.76,1.14-1.52,1.77-2.27C182.48,165.35,180.45,167.55,179.48,170.61Zm13.82-6.46c.75.06,1.51.11,2.24.21a5.93,5.93,0,0,1,4.33,2.41,28.07,28.07,0,0,1,2.08,3.07,1.9,1.9,0,0,0,1,.85c.36.19.54,0,.64-.32a1.23,1.23,0,0,0,0-.6A6.55,6.55,0,0,0,200,165,11.1,11.1,0,0,0,193.3,164.15ZM239.91,97a7.74,7.74,0,0,0,1.31-.1c.1,0,.26,0,.3-.11s-.09-.23-.16-.3a64.29,64.29,0,0,1-4.94-6.13c-.1-.15-.17-.25-.39-.14-.54.29-1.1.54-1.65.8-.18.09-.24.17-.13.38a20.16,20.16,0,0,0,3.36,4.72A3,3,0,0,0,239.91,97Zm-21.44,88.57c-.05-.45-.3-.44-.58-.43l-16.33.47-21.78.62-1.51,0c-.22,0-.28.13-.29.32s.15.23.3.22h.34c2.8-.08,5.61-.15,8.41-.24l12-.37,13.31-.41Zm2.72-4.05c-1.07-3.1-2.15-6.18-3.21-9.27-.1-.3-.29-.29-.52-.26l-2,.26a.17.17,0,0,0,0,.1,95.93,95.93,0,0,1,3.57,9.16c.11.34.33.28.56.25Zm-36.05,3.89c-.81-4.12-1.6-8.14-2.41-12.18a6.21,6.21,0,0,1-.74.23.68.68,0,0,1-.92-.55c0-.15.07-.45-.25-.38s-.14.3-.12.45c.17,1.17.35,2.34.52,3.52l1.23,8.56c0,.24.08.37.37.36C183.63,185.44,184.44,185.45,185.14,185.45ZM247,81.11l-.28.3c-.51.55-1,1.13-1.55,1.67-.23.23-.19.35,0,.58.62.71,1.22,1.44,1.82,2.18,1.15,1.4,2.23,2.87,3.49,4.18.23.24.34.27.58,0a9.16,9.16,0,0,0,1.29-2.48.74.74,0,0,0-.2-.93c-.41-.4-.78-.84-1.17-1.27-1.19-1.29-2.33-2.63-3.59-3.87C247.29,81.34,247.15,81.24,247,81.11Zm-89.45,67.07c-.26,0-.58,0-.68.19s.19.37.28.56.15.24.22.38c2.42,4.74,4.84,9.46,7.25,14.2L176.56,187c.14.28.29.29.52.18.42-.23,0-.45,0-.62l-14.83-29.52-4.29-8.51C157.85,148.4,157.84,148.13,157.56,148.18Zm88.88-53.73-1-1.11c-1.65-1.81-3.11-3.77-4.6-5.69-.21-.28-.35-.34-.65-.09-.6.49-1.26.91-1.88,1.38-.42.31-1.19.47-1.24.9s.53.88.85,1.3q2,2.6,4.11,5a.76.76,0,0,0,1.07.24A14.34,14.34,0,0,0,246.44,94.45Zm3.85-3.56-.25-.26c-.65-.67-1.25-1.37-1.84-2.09-1.17-1.44-2.27-2.93-3.5-4.32-.26-.3-.41-.28-.68,0-.73.7-1.5,1.38-2.27,2s-.63.54-.13,1.19a74.44,74.44,0,0,0,5.14,6.2c.22.23.35.3.62.06.9-.82,1.81-1.64,2.66-2.53Zm-73.73,81.7c.11,1,.22,1.88.31,2.74.34,3.27.69,6.54,1,9.82,0,.34.17.46.53.43,1-.05,2-.07,3-.09.33,0,.39-.07.35-.41-.34-2.23-.65-4.47-1-6.7-.25-1.73-.49-3.45-.76-5.17,0-.22.12-.64-.39-.63C178.59,172.6,177.58,172.59,176.56,172.59Zm-16.68-32.15a1,1,0,0,0-.11.24c-.54,2.09-1.06,4.17-1.6,6.26a.86.86,0,0,0,.14.68Q163.67,158.3,169,169l6.09,12.11c.62,1.25,1.26,2.49,1.94,3.81a1.08,1.08,0,0,0,0-.25c-.38-3.53-.74-7.06-1.15-10.59a4,4,0,0,0-.24-1.4c-2.82-5.83-5.82-11.56-8.53-17.43-1.19-2.6-2.52-5.14-3.78-7.7C162.22,145.17,161.06,142.82,159.88,140.44Zm27.41,39.06c.38,0,.58.43.88,0a5.78,5.78,0,0,1,1.71-1.4,38.29,38.29,0,0,1,7-3c.37-.14.74-.25,1.11-.37a.35.35,0,0,1,.49.22c.08.24-.06.39-.27.48s-.25.08-.37.12a60,60,0,0,0-6,2.33,14.05,14.05,0,0,0-2.67,1.59c-.12.1-.36.22-.27.37s.47.27.73.35a.32.32,0,0,0,.42-.18,3.7,3.7,0,0,1,1.81-1.57,23.57,23.57,0,0,1,5-1.81,6.85,6.85,0,0,1,2.34-.21c.23,0,.26.2.23.37s-.27.28-.51.31a18.86,18.86,0,0,0-7.28,2.33,1.69,1.69,0,0,0-.8.72,2.26,2.26,0,0,0,1.28.11c1.76-.27,3.45-.81,5.17-1.24a5.44,5.44,0,0,1,3.93.06c.46.23.95.41,1.43.61a26.51,26.51,0,0,0,7.09,2.46,9.58,9.58,0,0,0,5.84-.79c.4-.2.91-.18,1.28-.49.09-.08.16.06.23.07a1.12,1.12,0,0,0,.8-.12c.15-.13-.07-.4-.14-.61-.72-2.29-1.75-4.46-2.64-6.68,0-.11,0-.29-.25-.32-1-.11-2.07-.26-3.12-.36-1.58-.15-3.15-.4-4.75-.48a13.79,13.79,0,0,1-4.91-1.25,3.75,3.75,0,0,0-2.45-.18,30.84,30.84,0,0,0-3.66,1.23,31.81,31.81,0,0,0-6.06,3,5.71,5.71,0,0,0-1.46,1.41,1.84,1.84,0,0,0,.47,0c1.18-.64,2.38-1.26,3.53-1.94a23,23,0,0,1,7.54-2.79c.27,0,.61-.12.65.29s-.29.43-.57.48a15,15,0,0,0-1.62.33,28.86,28.86,0,0,0-6.87,3A17.53,17.53,0,0,0,187.29,179.5ZM235.92,163c1.78-.74,3.56-1.46,5.34-2.22,2.93-1.24,5.89-2.42,8.76-3.82a1.44,1.44,0,0,0,1-1.51,2,2,0,0,1,1.43-2.18,1.14,1.14,0,0,0,.75-.94c.3-1.47.53-3,.76-4.44.59-3.75,1.15-7.5,1.75-11.24s1.28-7.45,1.84-11.18,1.13-7.62,2-11.38a12.15,12.15,0,0,1,2.53-5.67,33.24,33.24,0,0,1,5.45-4.81.51.51,0,0,1,.13-.09.37.37,0,0,1,.54.09.37.37,0,0,1-.14.53l-.35.27a34.63,34.63,0,0,0-4.24,3.6,10.7,10.7,0,0,0-2.94,5.2c-.52,2.18-1,4.37-1.32,6.58-.59,3.66-1.14,7.32-1.75,11-.7,4.22-1.43,8.43-2.06,12.66-.44,2.89-.87,5.78-1.37,8.67a2.26,2.26,0,0,1-1.57,2,1,1,0,0,0-.7,1l0,.72a1.68,1.68,0,0,1-1,1.61c-.57.28-1.12.59-1.7.85-6.35,2.81-12.77,5.46-19.23,8-3.69,1.46-7.38,2.89-11.07,4.35-.2.08-.54.06-.38.49,1.19,3.39,2.32,6.82,3.58,10.19a.65.65,0,0,0,.79.49l7.89-.61c1.78-.15,3.56-.29,5.33-.45s3.55-.32,5.33-.46,3.49-.38,5.24-.54c2.61-.22,5.21-.57,7.81-.89a62.16,62.16,0,0,0,12.88-3.16,12.47,12.47,0,0,0,7.89-7.19c.41-1,.81-2,1.15-3.05a115.92,115.92,0,0,0,3.33-13.17c.65-3.2,1.33-6.38,1.8-9.6.53-3.75.79-7.52,1-11.3,0-.28,0-.61.42-.57s.34.34.33.61c-.06,1-.1,2-.17,3-.21,3.1-.45,6.2-1,9.28-.65,3.91-1.43,7.79-2.27,11.66a97.75,97.75,0,0,1-3.55,12.65,13.64,13.64,0,0,1-8.24,8.29,61.51,61.51,0,0,1-10.06,2.8c-3.11.63-6.27.93-9.43,1.27-.41,0-.81.1-1.3.17a2.26,2.26,0,0,0,.24.21,48.81,48.81,0,0,0,5.45,3.11,52.55,52.55,0,0,0,10.86,3.43,56.09,56.09,0,0,0,12.2.84,32.11,32.11,0,0,0,15.23-4.24,12.47,12.47,0,0,0,2.35-1.66,2.92,2.92,0,0,0,1.06-2.56c-.13-1.33-.2-2.66-.35-4q-1.1-9.17-2.23-18.31c-.7-5.5-1.14-11-1.63-16.55-.36-4-.7-7.93-1.27-11.88a198.24,198.24,0,0,0-4.09-19.72A26.06,26.06,0,0,0,271.4,91.8c-2.06-1.1-4.14-2.15-6.23-3.21a60.89,60.89,0,0,0-11.75-4.18h-.13a.47.47,0,0,1,.05.1,6.58,6.58,0,0,1-1.09,5.16,26.61,26.61,0,0,1-5,5.15,12.4,12.4,0,0,1-3,1.92,9.15,9.15,0,0,1-6,.89c-.15,0-.31,0-.4-.17a8.17,8.17,0,0,0-1.11-1.09,21.27,21.27,0,0,1-2.57-3.48c-.1-.16-.15-.41-.44-.25a7.37,7.37,0,0,0-2.68,2,24.28,24.28,0,0,0-3.87,8.13c-1.51,6.13-2.6,12.35-3.81,18.54s-2.35,12.33-3.53,18.49c-.29,1.52-.58,3-.88,4.63a11.49,11.49,0,0,1,2.75-.56,22.82,22.82,0,0,1,7.18.56c.86.2,1.72.45,2.57.7.24.07.46.22.34.53s-.33.25-.57.2a2.47,2.47,0,0,1-.36-.11,22.47,22.47,0,0,0-10-1,3.61,3.61,0,0,0-2.24.8.27.27,0,0,1-.35.06c-.29-.28-.46,0-.66.11-1.57,1.18-3.15,2.37-4.73,3.53-6.24,4.57-12.32,9.36-18.77,13.65-.08.05-.23.08-.16.26a12.71,12.71,0,0,1,3.14.16,9.65,9.65,0,0,1,4.1,1.47,7.2,7.2,0,0,1,3.24,5.61c2.34-.76,4.66-1.53,7-2.3a129.46,129.46,0,0,0,16-6.22,20,20,0,0,0,7.83-6c.72-1,1.46-2,2.15-3a1.8,1.8,0,0,0,.31-1,17.84,17.84,0,0,0-.66-5.33c-1.76-7.15-3.78-14.22-5.57-21.37a58.75,58.75,0,0,1-1.71-7.85,87.61,87.61,0,0,1-.4-12.55c0-.13,0-.25,0-.39a.35.35,0,0,1,.38-.33.37.37,0,0,1,.34.38v.44c0,2,0,4.09,0,6.12a44.43,44.43,0,0,0,.49,6.82c.94,5.42,2.56,10.68,3.89,16,.24,1,.54,2,.81,2.93s.52,2,.78,2.95.53,2,.78,3,.44,2,.76,3,.33,1.92.58,2.86a15.11,15.11,0,0,1,.08,5.53c-.06.43-.36.9-.34,1.22a7.34,7.34,0,0,1-.35,2.27,38.05,38.05,0,0,1-1.81,5.3l0,.13A1,1,0,0,1,235.92,163Zm-48.29,13.44-.27.19c-.29.17-.59.47-1,.22s-.82-.63-.53-1.25a3.39,3.39,0,0,0,.1-.48s0-.12,0-.13-.08,0-.09.07a4.93,4.93,0,0,1-1.54.84c-.29.07-.32.16-.27.44.55,2.75,1.08,5.51,1.63,8.27a.68.68,0,0,1-.2.77c.35,0,.62,0,.9,0q11.51-.32,23-.66c2.68-.07,5.36-.16,8-.22.49,0,.52-.12.3-.51-.3-.55-.56-1.12-.82-1.7-.18-.38-.37-.53-.79-.26a6.42,6.42,0,0,1-1.69.7,12.73,12.73,0,0,1-7.48-.4c-2.12-.68-4.09-1.69-6.13-2.57a3.43,3.43,0,0,0-2-.2c-1.5.28-3,.78-4.46,1.08-1.24.25-2.47.88-3.77.17h-.1c-.67.44-1.28.06-1.93-.16a11.37,11.37,0,0,0,.32,1.7c.12.67.27,1.34.41,2,0,.22,0,.42-.27.46s-.38-.1-.43-.32-.06-.18-.08-.26c-.24-1.1-.48-2.17-.68-3.26a.89.89,0,0,0-.57-.73c-.8-.34-.92-.79-.34-1.45.43-.49.9-.95,1.34-1.41a.78.78,0,0,1-.52-.89c.09,0,.1-.12.05-.16S187.68,176.37,187.63,176.41Zm17.9-5.5c.17.15.36.07.54.07,1.65,0,3.31-.07,5-.17a1.49,1.49,0,0,1,1.65,1c.08.18.1.41.36.45l1.64.24c-.18-.8-.07-1,.69-1a12.49,12.49,0,0,0,2.19-.27c-.36-.84-.36-.84.54-1.2h.05l16-6.3a1,1,0,0,0,.68-.57,33.35,33.35,0,0,0,2.42-7.48,6.4,6.4,0,0,0,.2-1.49c-.29.4-.5.69-.71,1a19.89,19.89,0,0,1-8.13,7c-2,1-4,1.91-6.07,2.76-4.62,1.9-9.39,3.41-14.13,5a19.16,19.16,0,0,0-2.85,1,.58.58,0,0,1-.14,0s0,.05.05.05S205.56,171,205.53,170.91Zm-9.45.47c1.68-.49,3.28-1.36,5.18-1.26-.75-1.09-1.43-2.12-2.17-3.11a4.82,4.82,0,0,0-2.61-1.69c-1.72-.53-3.5-.34-5.25-.49a10.27,10.27,0,0,0-5,1.16,2.48,2.48,0,0,0-.84.63,22.35,22.35,0,0,0-3.18,5,2.15,2.15,0,0,0-.32,1.12,1.12,1.12,0,0,0,.65-.25c1.61-1.16,3-2.58,4.52-3.85.62-.52,1.12-1.18,1.7-1.75.24-.23.5-.65.86-.25s-.11.59-.32.8a25.44,25.44,0,0,0-4.83,6.14,5.43,5.43,0,0,0-.51,1.22c-.09.36,0,.49.4.33a3.28,3.28,0,0,0,.93-.57,11.87,11.87,0,0,0,2.55-2.83,25,25,0,0,1,3.18-4,4.11,4.11,0,0,1,.81-.69c.2-.12.39-.16.54,0s.08.4-.11.58A24.7,24.7,0,0,0,187.3,174a5.12,5.12,0,0,0-.73,2.26,6.51,6.51,0,0,0,1.31-1.06c.82-.83,1.64-1.67,2.43-2.52a12.43,12.43,0,0,1,3.62-2.65c.1-.05.28-.2.31-.08.18.72.82.62,1.31.79.31.11.5.26.42.6,0,.06-.15.08-.07.15A.14.14,0,0,0,196.08,171.38Zm-11.86.73c-.88.61-.93.69-.59,1.28l.69-1.2c0-.06.1-.11,0-.16S184.25,172.09,184.22,172.11Zm5.51,2.41.13-.07a1.16,1.16,0,0,1,.21-.16,45,45,0,0,1,4.16-2.13h-2a.63.63,0,0,0-.44.16,12.79,12.79,0,0,0-1.88,1.87l-.13.15a1.27,1.27,0,0,0-.1.12l-.09.08C189.66,174.62,189.7,174.56,189.73,174.52Zm-7.62-4.77c-.4.3-.82.6-1.22.91a5.73,5.73,0,0,1-1.28.77.73.73,0,0,1-.79,0,.66.66,0,0,1-.18-.76,9,9,0,0,1,3.11-4.8,4.56,4.56,0,0,1,3.93-.67.8.8,0,0,0,.57,0A14.18,14.18,0,0,1,191,164a.7.7,0,0,0,.31-.07c6.09-4,11.86-8.37,17.68-12.69,2.91-2.15,5.79-4.32,8.7-6.48a1.74,1.74,0,0,0,.71-1.13Q221,130,223.58,116.38c.91-4.66,1.73-9.35,2.93-13.95a25.32,25.32,0,0,1,4-8.25,7.2,7.2,0,0,1,2.67-2.05c.31-.17.43-.29.26-.65-.24-.52.05-.84.53-1a25.47,25.47,0,0,0,5.83-3.53,47.9,47.9,0,0,0,4.79-4.32c.9-.94,1.8-1.86,2.62-2.87a1.19,1.19,0,0,1,.19-.2c.65-.62.72-.63,1.46-.13a14,14,0,0,1,3.4,3.56,1.36,1.36,0,0,0,.83.57,65.49,65.49,0,0,1,11.74,4.07c2.94,1.44,5.87,2.85,8.66,4.57a25.36,25.36,0,0,1,10.72,12.53,71.87,71.87,0,0,1,3.06,11l.59,2.83a.9.9,0,0,1,0,.7.22.22,0,0,0,0,.21c1.08,2.66,1.32,5.5,1.75,8.29.93,6.16,1.39,12.37,1.93,18.56s1.29,12.31,2.06,18.45c.57,4.46,1.15,8.93,1.56,13.41,0,.36,0,.72.07,1.06a3.9,3.9,0,0,1-1.69,3.82,24.53,24.53,0,0,1-5.3,3,33.33,33.33,0,0,1-13,2.77A50.77,50.77,0,0,1,253,184.7a42.8,42.8,0,0,1-6.81-3.87,1.37,1.37,0,0,0-.94-.23c-3.84.36-7.69.73-11.54,1.06s-7.48.56-11.22.84a1.6,1.6,0,0,1-.86-.16c-.37-.18-.74,0-1.12.07s-.91.13-1.37.17a.61.61,0,0,1-.76-.55c-.08-.47-.44-.34-.72-.32s-.15.21-.08.34c.47.83.78,1.73,1.33,2.54a6.44,6.44,0,0,1,.58,1.47c.1.31-.13.55-.44.42a4.5,4.5,0,0,0-1.59-.1l-17.54.55c-1.65,0-3.3.12-5,.19-1.06,0-2.14-.15-3.17,0s-2.13.12-3.19.16c-2.93.14-5.86.23-8.79.3a8.89,8.89,0,0,0-2.72.37,1,1,0,0,1-1.26-.54q-5.87-11.52-11.72-23l-7.25-14.26a5.12,5.12,0,0,0-.56-1,1.63,1.63,0,0,1-.21-1.56q1-3.82,2-7.65a1.21,1.21,0,0,1,1.29-1.08,1,1,0,0,1,.92.7c2.46,5.29,5.15,10.46,7.7,15.7,1,2,2.06,4,3,6.06,1.52,3.46,3.33,6.79,4.94,10.2a.59.59,0,0,0,.66.42c1.41-.07,2.83-.1,4.24-.14a.52.52,0,0,0,.54-.35c.23-.56.5-1.09.75-1.63A.35.35,0,0,0,182.11,169.75Z"/><path d="M266.34,158.24a25.5,25.5,0,0,1-10.09-2.49,4.17,4.17,0,0,1-1.2-.79c-.21-.2-.39-.45-.14-.71s.46-.05.65.14a5.47,5.47,0,0,0,1.66,1,23.53,23.53,0,0,0,10,2.09,9.8,9.8,0,0,0,3.78-.78c.28-.12.56-.22.71.13s-.14.45-.39.56A12.16,12.16,0,0,1,266.34,158.24Z"/><path d="M264.41,167.7a4,4,0,0,1-1.57-.65A34.86,34.86,0,0,1,258,163.2c-1.54-1.38-3-2.85-4.38-4.35-.32-.33-.67-.64-1-.94-.2-.17-.3-.35-.15-.57a.38.38,0,0,1,.59-.06,6.7,6.7,0,0,1,.74.66,80.1,80.1,0,0,0,6,5.81,29.05,29.05,0,0,0,3.26,2.5,4.06,4.06,0,0,0,1.56.69c.23,0,.43.18.39.44S264.67,167.73,264.41,167.7Z"/><path d="M282,174.9c-2.32-.11-4.56-.14-6.79-.42-.3,0-.61-.07-.57-.43s.37-.37.66-.34a76.88,76.88,0,0,0,9.23.43A19.12,19.12,0,0,0,287,174c.28,0,.61-.09.67.29s-.24.43-.54.48A33.32,33.32,0,0,1,282,174.9Z"/><path d="M232.55,140.1c0,.28-.27.3-.53.34a38.84,38.84,0,0,0-7.8,2.39c-.36.16-.69.35-1,.54s-.45.2-.62-.07,0-.42.19-.55a9.34,9.34,0,0,1,2.18-1.06,40.25,40.25,0,0,1,6.95-2C232.31,139.62,232.56,139.76,232.55,140.1Z"/></g><g style="clip-path:url(#j)"><path d="M13.47,12.37a2.13,2.13,0,0,1-.91,1.86,3.47,3.47,0,0,1-2.07.57,6.41,6.41,0,0,1-2.71-.56c-.09,0-.13-.08-.13-.12s.11-.33.32-1q0-.15.12-.15a4.42,4.42,0,0,0,1.94.61c1.21,0,1.81-.44,1.81-1.31a1.17,1.17,0,0,0-.62-1.14,3.07,3.07,0,0,0-1.34-.23H9.37l-.47,0c-.26,0-.39-.06-.39-.16,0-.6.07-.9.2-.9s.49,0,.88.06a7.27,7.27,0,0,0,.88.07.94.94,0,0,0,.71-.29A1,1,0,0,0,11.45,9c0-.81-.52-1.22-1.58-1.22a3.55,3.55,0,0,0-1.67.39H8.13C8,8.13,8,7.81,8,7.15c0-.22.35-.4,1.07-.52a8.29,8.29,0,0,1,1.33-.12A3.59,3.59,0,0,1,12.26,7a1.79,1.79,0,0,1,.93,1.61,2.27,2.27,0,0,1-.29,1.07,1.67,1.67,0,0,1-.79.77A1.86,1.86,0,0,1,13.47,12.37Z" style="fill:#fff"/><path d="M291.71,185.34H.76V.87h291V185.34M0,.12v186H292.49V.12H0"/></g><g style="clip-path:url(#k)"><path d="M665.37,300.28v17.44c0,4.3-5.57,15.45-14.57,20.59S604.07,349,592.07,349l-4.51.38c0-.4,0-.79,0-1.19a47.92,47.92,0,1,0-95.21,7.65l-2.34,0H243.84a48.73,48.73,0,0,0,.62-7.68,47.92,47.92,0,1,0-94.73,10.18l-2.65.07s-54,4.29-49.72-32.17,11.14-54.92,42.86-61.78,89.18-21,102.46-25.74,45.88-29.17,64.31-38.18,44.15-15.87,91.31-15.87,94.74-.43,130.75,9.87,70.3,40.32,80.17,40.32H638.8c5.57,0,11.57,3,11.57,14.59V286s15,8,15,14.3" style="fill:#fabd0b"/></g><g style="clip-path:url(#k)"><path d="M399,184.74l4.7-26.13a6.35,6.35,0,0,1,6.24-5.22h6.49a6.33,6.33,0,0,1,6.23,5.22l4.72,26.17c-9.41-.05-18.9,0-28.38,0m-176,123.55L523.92,303a48,48,0,0,1,29.93-.54l113.48-2v-.16c0-2.54,0-6.51-4.22-7.8l-461,8.13A47.61,47.61,0,0,1,223.06,308.29ZM97.12,310.48l71.53-1.23a47.74,47.74,0,0,1,20.53-8.41l-87.81,1.56C97.71,303.47,97.12,307.9,97.12,310.48ZM624.34,277h23.18V248.35S624.34,246.29,624.34,277Z" style="fill:#e73f35"/></g><g style="clip-path:url(#m)"><path d="M36.35,288.11c-.16-8.6-1.37-24.73-2-41.94-.51-14.78-5-70.18-5.56-77l.07.68c0-.29-.05-.58-.08-.88,0,.05,0,.11,0,.16,0-.11,0-.19,0-.27s0,.06,0,.09l0-.25a.15.15,0,0,0,0-.07,0,0,0,0,1,0,0,.09.09,0,0,0,0,0c-1.18-12.69-2.79-38.67-4-49.33s-3.61-33.89-3.61-33.89-46.1,1.34-53.82.66c0,0-4.31,47.42-3.63,57s-1.2,70-.09,79.68.78,18.54,2.84,23c.12.28.26.56.38.83-.27,1.93,0,6.16,1.06,12v.1h0l-.06-.34c0-.19-.07-.37-.11-.55l.17.89c0,4.51,0,10.72,0,14.17.07,5.84,3.44,54.78,3.44,54.78,3.4.65,6.79,1.38,10.2,1.69,1.05.1,2.09.15,3.14.15,4.95,0,6.86,0,9-.4,1.07-.2,2.2-.51,3.79-1,0,0-4.61-134.18-3.93-141.16s1.2-25.36,1.2-25.36,6.26,46,6.94,52.51,2.57,20.39,3.09,27c.3,3.88,8.38,81.81,8.83,86.87,0,.5,2.53.73,5.24.85,2.37.11,4.92.13,6.11.18a59,59,0,0,0,6-.56c3.52-.46,7.31-1.1,7.53-1.63C38.51,326.78,36.53,296.69,36.35,288.11Z" style="fill:#fff"/><path d="M33.41,283.16C33,262,30.61,234.4,29.15,211.39s-2.48-32.79-4.88-58.55S22.54,132.07,21,112c-1.16-15.2-2.3-23.46-2.66-26.62h-51L-34.2,104.3l-1.93,48.2s-.6,57.86-.6,64.39,1.13,15,1.42,19.22,3.22,22.57,3.22,22.57l-.17,17.44,3.64,51.52,15.44,1.84a29,29,0,0,0,8.93-1.07v-8.33L-5.75,266l-2.4-54.08.34-28.68,1.2-25.06,3.48,19,6.78,53.16,6.08,59.4,3.9,38.26,9.13,1,13.45-1.34c-.08-.08-.25-.65-.36-3.89C35.7,319.37,33.87,304.28,33.41,283.16Z" style="fill:#a6a4d6"/><path d="M25.11,328.46H25l-2-.06c-1.21,0-2.71-.06-4.14-.13-3.53-.15-4.5-.42-4.76-.53-.08-.84-.29-2.94-.59-5.92a56.07,56.07,0,0,0,9,.7,50.53,50.53,0,0,0,15-2.17c.2,3.15.35,5.46.4,6.21-.51.24-2.42.74-7.07,1.34C28.22,328.25,25.84,328.46,25.11,328.46Zm5.44,8.1a7.92,7.92,0,0,0-2.13-.27,4.08,4.08,0,0,0-3.08,1.84,3.61,3.61,0,0,1-1.24,1.1,2.84,2.84,0,0,1-1,.19,2.31,2.31,0,0,1-2-1.43v-8.35c3.82.06,7.94-.16,9.39-.25C30.51,330.66,30.58,334,30.55,336.56ZM10.32,290.43c-2.27-22.15-4.84-47.26-5-49.4C5,237,4.14,230.07,3.4,224c-.47-3.82-.91-7.42-1.18-9.93C1.55,207.6-4.65,162-4.72,161.53a.51.51,0,0,0-.53-.45.53.53,0,0,0-.49.5c0,.19-.52,18.44-1.2,25.33C-7.53,193-4.25,291.49-3.28,320.39c-10.75,1.14-23-.75-25.39-1.13-1-14.25-2.82-42.13-2.87-46.41,0-2.14,0-5.3,0-8.66l0,.17a.52.52,0,0,0,.51.44H-31a.51.51,0,0,0,.43-.58s0-.09,0-.24,0-.11-.05-.22l-.95-5.11a.92.92,0,0,1,0-.15,61.1,61.1,0,0,1-1.14-10,25.67,25.67,0,0,1,1.94,5.78.51.51,0,0,0,.51.51.51.51,0,0,0,.52-.51c0-1.31-1.67-5.49-3.1-8.66a.5.5,0,0,0-.3-.27c-1.23-2.86-1.55-7.59-1.91-13.06-.2-3.07-.41-6.25-.8-9.57-.61-5.27-.3-26.46,0-45.15.22-15.51.44-30.16.12-34.5-.63-8.93,3.12-51.31,3.58-56.44,1.59.1,4.35.15,8.24.15,14.51,0,40.79-.73,44.66-.84.34,3.37,2.43,23.61,3.55,33.42.24,2,.49,4.67.75,7.65h0c-.63-.08-15-.69-15.52.76a26.72,26.72,0,0,0-.6,4.84.43.43,0,0,0-.06.22.37.37,0,0,0,0,.18c-.15,3.6.19,8.23,2.3,11.16a7,7,0,0,0,6,3c4.63,0,7.74-.59,9.31-1.74l.15,2c.61,8.16,1.18,15.87,1.68,21.29,0,0,0,.07,0,.1a.45.45,0,0,0,0,.12s0,.11,0,.13l0,.22,0,.35c1.52,18.68,5.08,63.54,5.53,76.65.31,8.93.77,17.47,1.18,25,.38,6.87.7,12.81.78,16.94.12,5.81,1.08,21.66,1.68,31.18-10.85,3.49-21.81,1.86-24.09,1.46C12.71,313.64,11.54,302.25,10.32,290.43ZM-3,327.73c-1.37.39-2.39.67-3.35.84-2.09.39-3.94.39-8.9.39-1,0-2,0-3.1-.14a83.8,83.8,0,0,1-8.49-1.36l-1.27-.25c-.06-.93-.23-3.45-.46-6.9a119.46,119.46,0,0,0,17.94,1.47,70.75,70.75,0,0,0,7.42-.36C-3.14,324.56-3.06,326.75-3,327.73Zm-8.06,10.9a2.31,2.31,0,0,1-2,1.43,2.88,2.88,0,0,1-1-.19,3.68,3.68,0,0,1-1.24-1.09,4.07,4.07,0,0,0-3.17-1.85h0a7.89,7.89,0,0,0-2,.26c0-2.6,0-5.89.07-7.16,1.45.09,5.58.31,9.39.25ZM25.45,132.27H9.9a29.7,29.7,0,0,1,.48-4.06c1.54-.46,12.7-.61,14.72-.21C25.21,129.36,25.33,130.79,25.45,132.27Zm.9,11.77c-.56.77-2.5,2-9.22,2A6,6,0,0,1,12,143.56c-1.91-2.6-2.26-6.86-2.15-10.26H25.53C25.8,136.72,26.07,140.37,26.35,144ZM43.66,347.87a26.14,26.14,0,0,1-5.9-3.29,28.83,28.83,0,0,1-4.9-5.42c-.3-.43-.59-.85-1-1.31a2.56,2.56,0,0,1-.21-.33l-.12-.22c.07-3.24-.06-8-.07-8.44,7.07-.94,7.34-1.53,7.49-1.88a.64.64,0,0,0,0-.24c0-.3-2-30.17-2.16-38.64-.08-4.15-.41-10.09-.78-17-.41-7.53-.87-16.07-1.18-25-.44-13.05-4-57.37-5.5-76.29a.16.16,0,0,0,0-.1l-.07-.77s0,0,0-.07a.46.46,0,0,0-.05-.2v0s0,0,0-.07,0-.06,0-.1a.13.13,0,0,0,0-.06c-.5-5.41-1.07-13.1-1.67-21.23-.08-1-.15-2-.22-3a1.77,1.77,0,0,0,.13-1.36.46.46,0,0,0-.25-.28c-.7-9.25-1.39-18.21-2-23.46-1.23-10.65-3.58-33.65-3.61-33.88a.51.51,0,0,0-.52-.46c-.3,0-29.51.85-45.11.85-4.31,0-7.23-.06-8.66-.19a.54.54,0,0,0-.56.47c-.17,1.94-4.3,47.57-3.62,57.11.31,4.3.09,18.93-.13,34.42-.29,19.63-.58,39.94,0,45.28.38,3.3.59,6.46.79,9.52.38,5.7.7,10.63,2.09,13.63.08.19.17.37.25.56l.07.14c-.26,2.16.09,6.25.92,11.12a.66.66,0,0,0,0,.14l.15.84c0,5.15,0,10.83,0,14.13.07,5.78,3.4,54.32,3.43,54.81a.52.52,0,0,0,.42.47l1.65.32c1.83.36,3.7.72,5.58,1,0,.25-.15,5.17-.08,8.48l-.12.21a1.85,1.85,0,0,1-.21.34c-.37.46-.66.87-1,1.3a28.45,28.45,0,0,1-4.9,5.43,26.15,26.15,0,0,1-5.9,3.28c-3.59,1.67-6.69,3.1-6.51,4.94.13,1.42,2.18,2.54,6.62,3.65a23.09,23.09,0,0,0,5.57.74c4.95,0,8.2-1.95,11.07-3.67.75-.45,1.46-.87,2.17-1.24a17.06,17.06,0,0,1,2.88-.91,11.72,11.72,0,0,0,2.3-.74c1.8-1.11,1.38-2.74.94-4.46A9.73,9.73,0,0,1-9,342.27c.37-1.79.3-3-.22-3.61a1.28,1.28,0,0,0-.85-.47V330a24.31,24.31,0,0,0,3.86-.37c1.1-.2,2.23-.52,3.84-1A.52.52,0,0,0-2,328.1c0-1.34-4.6-134.21-3.93-141.08.43-4.37.79-13.24,1-19.26,1.72,12.74,5.58,41.4,6.1,46.4.27,2.52.71,6.13,1.18,10,.75,6.08,1.59,13,1.91,17,.17,2.15,2.74,27.27,5,49.43,1.22,11.89,2.39,23.35,3.11,30.45a.24.24,0,0,0,0,.09.52.52,0,0,0,.08.4c.35,3.43.59,5.77.65,6.51s.51,1.1,5.73,1.32l1.22.05v8.19a1.26,1.26,0,0,0-.85.47c-.52.64-.6,1.82-.23,3.61a9.6,9.6,0,0,1-.37,4.55c-.44,1.72-.86,3.35.95,4.46a10.92,10.92,0,0,0,2.28.73,18.08,18.08,0,0,1,2.89.92c.71.37,1.42.79,2.17,1.24C29.77,355.25,33,357.2,38,357.2a23.08,23.08,0,0,0,5.56-.74c4.45-1.11,6.49-2.23,6.62-3.65C50.34,351,47.25,349.53,43.66,347.87Z"/></g></svg>