<svg xmlns="http://www.w3.org/2000/svg" viewBox="0 0 220.39 216.61"><title>info_icon</title><path d="M220.39,105.89c-.26.49-.54,1-.78,1.47a8.67,8.67,0,0,1-9.61,4.85,8.56,8.56,0,0,1-6.81-8.51q0-34.22,0-68.43c0-8.6-5-15.39-12.89-17.41a21.55,21.55,0,0,0-5.31-.63q-74.77,0-149.56,0c-10.82,0-18.19,7.41-18.2,18.28q0,55.08,0,110.18c0,11,7.37,18.32,18.36,18.33,13.49,0,27,.07,40.46,0a10.18,10.18,0,0,1,8.68,4.18c7.55,9.67,15.17,19.27,22.76,28.9,2.35,3,3,3,5.27.06,7.6-9.71,15.23-19.4,22.8-29.13a9.52,9.52,0,0,1,8.11-4c13.55.07,27.11,0,40.67,0,11.31,0,18.23-6.55,18.87-17.84A8.65,8.65,0,0,1,210,138.3a8.74,8.74,0,0,1,9.43,4.46c.33.62.64,1.25.95,1.87v6.46a5.19,5.19,0,0,0-.4.95,34.32,34.32,0,0,1-34.17,29.17c-12.2,0-24.39,0-36.59,0a3.84,3.84,0,0,0-3.4,1.67c-6.67,8.62-13.36,17.22-20.15,25.75-8.59,10.78-22.77,10.65-31.29-.19-6.6-8.4-13.26-16.75-19.81-25.2a4.53,4.53,0,0,0-4.09-2c-12,.08-23.95,0-35.93,0A34.32,34.32,0,0,1,0,146.68Q0,90.61,0,34.55A34.29,34.29,0,0,1,34.53,0H185.82A34.4,34.4,0,0,1,219.34,25.8c.38,1.44.7,2.89,1,4.33Z" transform="translate(0)" style="fill:#3b3b96"/><path d="M101.59,108q0-11.4,0-22.79c0-5.27,3.57-9,8.53-9s8.66,3.73,8.66,9.14q0,22.69,0,45.38c0,5.41-3.57,9.18-8.64,9.17s-8.55-3.82-8.55-9.26Q101.59,119.34,101.59,108Z" transform="translate(0)" style="fill:#3b3b96"/><path d="M110.29,46.49a8.6,8.6,0,1,1-8.69,8.45A8.49,8.49,0,0,1,110.29,46.49Z" transform="translate(0)" style="fill:#3b3b96"/></svg>