<svg xmlns="http://www.w3.org/2000/svg" viewBox="0 0 131.57 131.8"><title>insta_icon</title><path d="M98.43,131.8H33.17c-.42-.07-.84-.17-1.26-.22a33.34,33.34,0,0,1-13.58-4.33C6.29,120.1.12,109.44.05,95.43,0,75.74,0,56.06.05,36.37A34.65,34.65,0,0,1,.73,29C4,14.43,12.81,5.11,27.13,1.09a60.56,60.56,0,0,1,6-1.09H98.43c1.39.21,2.79.34,4.16.65C117.12,4,126.46,12.79,130.48,27.17a60.56,60.56,0,0,1,1.09,6V98.59c-.21,1.39-.34,2.8-.65,4.16-3.3,14.56-12.1,23.92-26.46,28A60.88,60.88,0,0,1,98.43,131.8Zm-32.6-7.72c9.8,0,19.61,0,29.41,0a30.54,30.54,0,0,0,6.62-.66c13.34-3.14,22-14.1,22-27.8q0-29.72,0-59.45a27.73,27.73,0,0,0-.66-6.37c-3.14-13.38-14.06-22-27.74-22q-29.67,0-59.33,0a29.07,29.07,0,0,0-6.25.62A27.82,27.82,0,0,0,7.75,36q-.07,30,0,60a26.14,26.14,0,0,0,2.47,11.59c5.26,10.82,14,16.38,25.95,16.54C46.05,124.18,55.94,124.08,65.83,124.08Z" style="fill:#9696db"/><path d="M65.84,101.93a36,36,0,1,1,35.92-36.08A36.12,36.12,0,0,1,65.84,101.93Zm0-64.34A28.31,28.31,0,1,0,94.05,66,28.39,28.39,0,0,0,65.85,37.59Z" style="fill:#9696db"/><path d="M102.59,38.35a10.65,10.65,0,1,1,10.67-10.6A10.72,10.72,0,0,1,102.59,38.35Zm2.93-10.66a2.9,2.9,0,1,0-2.84,2.93A3,3,0,0,0,105.52,27.69Z" style="fill:#9696db"/></svg>