<svg xmlns="http://www.w3.org/2000/svg" viewBox="0 0 127.03 126.8"><title>logo</title><path d="M63.77,0C97.14-.88,126.53,28,127,62.31c.49,33.48-26.38,64.36-63.22,64.49C28.31,126.93.4,98.69,0,63.33-.38,29.43,28.73-1.12,63.77,0ZM84.29,60.71a7.13,7.13,0,0,1-1.68-.91c-2.8-2.77-6.39-2.86-9.54-1.69-2.89,1.07-1.19,4.4-1.65,6.71-.51,2.59,1.49,5.36.19,7.59-1.59,2.74-1.49,5.5-1.47,8.33,0,2,.26,4.31,2.87,4.42,3.4.14,7.18,1.35,9.8-2.13a2.39,2.39,0,0,0,.35-1.85c-1.12-3.55,1-8.54-5.07-10.13,6.19-1.51,6.3-5.89,6.17-10.38a10.54,10.54,0,0,1,3.38,7.24c.14,1.9,1.42,2.7,3.21,2.72,1.48,0,3.31-.14,3.3-1.94,0-3.13,1.38-5.74,2.27-8.55.59-1.85-.23-3-2.14-1.82s-3.12.29-4.76-.18C87.21,57.49,84.34,56.43,84.29,60.71Zm-1-4.52c.66,0,1.32.05,2,0,3.61-.28,3.5-.64,2.21-3.78-.62-1.53.13-3.69-.47-5.62-.16-.48,2.84-.91,1.51-2.7a4.23,4.23,0,0,0-4-1.29,71.62,71.62,0,0,1-16.23,0,3.64,3.64,0,0,0-4.16,2.82c-.44,1.42.46,3.85-1.45,4.07s-2-2.36-3-3.68c-.39-.53-.62-1.18-1-1.66-1.85-2.11-3.84-2.3-5.57,0-2,2.66-3,5.84-4,8.95-.39,1.18.39,3.18,1.4,2.39,3.24-2.51,5.52-1.28,8.08.85.5.41,1.89.18,2.63-.21,1.61-.86,2.92-1.27,4.65,0,1.39,1,3.74.47,4.3-.69,1.22-2.52,3.56-4.2,4.53-6.77.35-.94.13-2.55,1.41-2.42,1.65.16,1,1.87,1,2.92C77.4,55.94,77.55,56.14,83.27,56.19Zm-13,8.18c-.52-2.17-.59-5.12-4.29-6-6.07-1.44-7.34-.7-8.3,5.48-.11.75,0,1.76-1,1.9S55.42,65,55.05,64.3c-.89-1.61-1.62-3.31-2.63-4.84-1.74-2.63-4.1-2.65-6-.15a24,24,0,0,0-3.69,8.19c-.26.92-.43,1.88.54,2.46a1.75,1.75,0,0,0,2.18-.28c1.19-1.14,2.73-1.71,3.85-.55,2,2.08,4.25,1.77,6.56,1.29a2.87,2.87,0,0,1,3.13,1c1.09,1.3.14,2.24-.62,3.07-2.07,2.27-2,5.33-3.05,8-.57,1.49.22,3.48,2.1,2.27,2.47-1.59,4.15-1.15,6.4.24a3.88,3.88,0,0,0,4.77-.51c1.2-1.27.06-2.76-.44-4a54.73,54.73,0,0,0-3-6.4c-1-1.84-1.05-2.8,1.16-3.88C68.25,69.21,70.5,67.86,70.24,64.37ZM38.29,70.55c.42-.09,1.21,0,1.67-.39,3.9-3-.22-6.21,0-9.36C40.08,59,38.47,57,36.7,57.87,34,59.16,32,59.34,29.58,57.42c-.85-.68-1.68.6-2,1.39a20.74,20.74,0,0,0-1.54,9.6c.17,1.73,1.66,2.55,2.64,1.14,2.55-3.68,4.6-3,6.86.1C36.16,70.48,37.15,70.45,38.29,70.55ZM41.82,56.2a5.64,5.64,0,0,0,4.67-1.6c.89-1,2.07-2.05,1.06-3.39s-2-.35-2.86.57-1.67.86-2.25-.18a4.14,4.14,0,0,1,0-4.14c.59-1.07,1.47-1,2.25-.17,1,1,2.17,1.46,2.92.13s-.24-2.59-1.36-3.33a8,8,0,0,0-8.91-.35C34.14,45.66,34.09,49,35,52.14S38.67,56.32,41.82,56.2Zm5.54,29.2c1.6,0,3,.07,4.1-.65,1.45-.91,3.28-2.12,2.41-3.93-1-2-2.32-.44-3.39.49a1.09,1.09,0,0,1-1.89-.43,4.48,4.48,0,0,1,.23-4.48,1.19,1.19,0,0,1,2,.08c.91,1.21,1.94,2.12,3,.44.86-1.35-.2-2.55-1.25-3.33-2.89-2.15-6.06-2.47-9.14-.54s-3.12,5-2.4,8C41.85,84.44,44.44,85.51,47.36,85.4Z" style="fill:#da86cb"/><path d="M83.27,56.19c-5.72,0-5.87-.25-6.16-6.82,0-1,.64-2.76-1-2.92-1.28-.13-1.06,1.48-1.41,2.42-1,2.57-3.31,4.25-4.53,6.77-.56,1.16-2.91,1.68-4.3.69-1.73-1.24-3-.83-4.65,0-.74.39-2.13.62-2.63.21-2.56-2.13-4.84-3.36-8.08-.85-1,.79-1.79-1.21-1.4-2.39,1-3.11,2-6.29,4-8.95,1.73-2.31,3.72-2.12,5.57,0,.42.48.65,1.13,1,1.66,1,1.32,1,3.91,3,3.68s1-2.65,1.45-4.07a3.64,3.64,0,0,1,4.16-2.82,71.62,71.62,0,0,0,16.23,0,4.23,4.23,0,0,1,4,1.29c1.33,1.79-1.67,2.22-1.51,2.7.6,1.93-.15,4.09.47,5.62,1.29,3.14,1.4,3.5-2.21,3.78C84.59,56.24,83.93,56.19,83.27,56.19Z" style="fill:#f9f1f8"/><path d="M70.24,64.37c.26,3.49-2,4.84-3.93,5.8-2.21,1.08-2.18,2-1.16,3.88a54.73,54.73,0,0,1,3,6.4c.5,1.27,1.64,2.76.44,4A3.88,3.88,0,0,1,63.8,85c-2.25-1.39-3.93-1.83-6.4-.24C55.52,86,54.73,84,55.3,82.48c1-2.65,1-5.71,3.05-8,.76-.83,1.71-1.77.62-3.07a2.87,2.87,0,0,0-3.13-1c-2.31.48-4.56.79-6.56-1.29-1.12-1.16-2.66-.59-3.85.55a1.75,1.75,0,0,1-2.18.28c-1-.58-.8-1.54-.54-2.46a24,24,0,0,1,3.69-8.19c1.92-2.5,4.28-2.48,6,.15,1,1.53,1.74,3.23,2.63,4.84.37.67.72,1.59,1.63,1.45s.86-1.15,1-1.9c1-6.18,2.23-6.92,8.3-5.48C69.65,59.25,69.72,62.2,70.24,64.37ZM65.4,67.79c1.47-2.22,2.25-3.94.61-5.78a1,1,0,0,0-1.69,0C63.2,64,64.16,65.64,65.4,67.79Z" style="fill:#f9f1f8"/><path d="M84.26,60.67c.13,4.49,0,8.87-6.17,10.38,6.06,1.59,4,6.58,5.07,10.13A2.39,2.39,0,0,1,82.81,83c-2.62,3.48-6.4,2.27-9.8,2.13-2.61-.11-2.85-2.45-2.87-4.42,0-2.83-.12-5.59,1.47-8.33,1.3-2.23-.7-5-.19-7.59.46-2.31-1.24-5.64,1.65-6.71,3.15-1.17,6.74-1.08,9.54,1.69a7.13,7.13,0,0,0,1.68.91ZM78.13,64c.16,1.05-.14,2.6,1.44,2.6,1.26,0,1.35-1.37,1.35-2.39s.15-2.62-1.46-2.61C78.12,61.6,78.25,63,78.13,64Z" style="fill:#f9f1f8"/><path d="M38.29,70.55c-1.14-.1-2.13-.07-2.74-.9-2.26-3.08-4.31-3.78-6.86-.1-1,1.41-2.47.59-2.64-1.14a20.74,20.74,0,0,1,1.54-9.6c.31-.79,1.14-2.07,2-1.39,2.38,1.92,4.41,1.74,7.12.45C38.47,57,40.08,59,40,60.8c-.22,3.15,3.9,6.32,0,9.36C39.5,70.52,38.71,70.46,38.29,70.55Z" style="fill:#f9f1f8"/><path d="M41.82,56.21c-3.15.11-5.86-.78-6.81-4.07s-.87-6.48,2.34-8.4a8,8,0,0,1,8.91.35c1.12.74,2.12,2,1.36,3.33s-1.95.88-2.92-.13c-.78-.81-1.66-.9-2.25.17a4.14,4.14,0,0,0,0,4.14c.58,1,1.48,1,2.25.18s1.82-1.94,2.86-.57-.17,2.43-1.06,3.39A5.67,5.67,0,0,1,41.82,56.21Z" style="fill:#f9f1f8"/><path d="M47.36,85.4c-2.92.11-5.51-1-6.3-4.3-.72-3-.63-6.15,2.4-8s6.25-1.61,9.14.54c1,.78,2.11,2,1.25,3.33-1.08,1.68-2.11.77-3-.44a1.19,1.19,0,0,0-2-.08,4.48,4.48,0,0,0-.23,4.48,1.09,1.09,0,0,0,1.89.43c1.07-.93,2.41-2.51,3.39-.49.87,1.81-1,3-2.41,3.93C50.31,85.47,49,85.41,47.36,85.4Z" style="fill:#f9f1f8"/><path d="M84.29,60.71c0-4.28,2.92-3.22,5.23-2.57,1.64.47,3,1.3,4.76.18s2.73,0,2.14,1.82c-.89,2.81-2.28,5.42-2.27,8.55,0,1.8-1.82,2-3.3,1.94-1.79,0-3.07-.82-3.21-2.72a10.54,10.54,0,0,0-3.38-7.24Z" style="fill:#f9f1f8"/><path d="M65.4,67.79C64.16,65.64,63.2,64,64.32,62A1,1,0,0,1,66,62C67.65,63.85,66.87,65.57,65.4,67.79Z" style="fill:#da86cb"/><path d="M78.13,64c.12-1,0-2.39,1.33-2.4,1.61,0,1.47,1.49,1.46,2.61s-.09,2.38-1.35,2.39C78,66.59,78.29,65,78.13,64Z" style="fill:#da86cb"/></svg>