<?xml version="1.0" encoding="utf-8"?>
<!-- Generator: Adobe Illustrator 24.0.1, SVG Export Plug-In . SVG Version: 6.00 Build 0)  -->
<svg version="1.1" id="Layer_1" xmlns="http://www.w3.org/2000/svg" xmlns:xlink="http://www.w3.org/1999/xlink" x="0px" y="0px"
	 viewBox="0 0 131 131" style="enable-background:new 0 0 131 131;" xml:space="preserve">
<style type="text/css">
	.st0{fill:#DA86CB;}
	.st1{fill:#FFFFFF;}
</style>
<g>
	<circle class="st0" cx="65.5" cy="65.5" r="65.5"/>
	<g>
		<path class="st1" d="M41.4,54.5c-2.8,0-4.9-0.7-6.5-2.1c-1.6-1.5-2.4-3.6-2.4-6.3c0-2.7,0.8-4.7,2.3-6.2s3.6-2.2,6.3-2.2
			c1.9,0,3.6,0.5,5.1,1.4c1.9,1.1,2.9,2.6,3.1,4.5c0.1,0.6-0.2,1.1-0.9,1.3c-0.2,0.1-0.8,0.2-1.8,0.3c-0.8,0.1-1.2-0.2-1.4-0.9
			c-0.3-1.5-1-2.2-2.2-2c-0.9,0.1-1.4,1.1-1.5,2.8c0,0.5-0.1,0.9-0.1,1.1c0,2.6,0.6,3.9,1.8,3.9c1,0,1.7-0.5,1.9-1.5
			c0.2-0.9,0.7-1.4,1.5-1.4c0.8,0,1.4,0.1,1.8,0.2c0.6,0.2,1,0.7,1,1.3c0,0.2,0,0.4-0.1,0.6C48,52.8,45.3,54.5,41.4,54.5z"/>
		<path class="st1" d="M58.2,37.8c1,0,1.9,0.3,2.7,1c0.6,0.6,1.6,2.2,2.8,4.8c1.9,3.9,3,6.8,3.2,8.7c0.1,1-0.1,1.4-1.1,1.7
			c-0.6,0.2-1.5,0.3-2.8,0.3c-2.5,0-3.8-0.3-4.1-1.1c-0.1-0.3-0.2-0.6-0.4-1.1c-0.2-0.4-0.5-0.6-0.9-0.6H56c-0.3,0-0.7,0-1.3,0
			c-0.4,0-0.8,0.4-1,1.2c-0.3,1.1-0.6,1.4-1.7,1.5c-1.7,0.1-2.6-0.3-2.6-1.1c0-1,0.5-2.7,1.4-5.3c0.9-2.4,1.9-4.6,2.9-6.5
			c0.7-1.3,1.2-2.1,1.6-2.5c0.6-0.6,1.3-1,2.1-1L58.2,37.8z M54.8,48.4c-0.1,0.3,0.3,0.5,1.2,0.5s1.2-0.2,1.1-0.5
			c-0.6-1.6-1-2.3-1.2-2.3C55.7,46,55.3,46.8,54.8,48.4z"/>
		<path class="st1" d="M77,51.1c0,0.9-0.1,1.5-0.3,1.9c-0.4,0.7-1.4,1.2-3,1.3c-0.2,0-0.8,0-1.6,0c-0.9,0-1.5-0.1-1.9-0.1
			c-0.7-0.1-1.2-0.4-1.6-0.9c-0.5-0.6-0.7-2.9-0.7-7.1c0-4,0.2-6.3,0.5-6.9c0.2-0.4,0.5-0.6,1-0.8c0.3-0.1,0.7-0.2,1.3-0.3
			c1-0.2,2.2-0.3,3.8-0.3c2.2,0,4.2,0.2,5.8,0.5c1.5,0.3,2.3,1,2.3,2c0,1.3-0.4,2-1.1,2c-0.3,0-0.7-0.1-1.2-0.1
			c-0.5-0.1-0.9-0.2-1.2-0.2c-0.9,0-1.4,0.1-1.6,0.2c-0.3,0.2-0.5,0.6-0.5,1.2c0,0.7,0.4,1.1,1.3,1.2c0.6,0.1,1.4,0.1,2.2,0.2
			c0.6,0,0.9,0.5,0.9,1.5c0,0.9-0.2,1.4-0.5,1.6c-0.1,0.1-0.7,0.2-1.7,0.2c-1,0-1.6,0.2-1.8,0.4c-0.2,0.2-0.3,0.6-0.3,1.1
			C77,50,77,50.5,77,51.1z"/>
		<path class="st1" d="M98.4,50.9c0.1,0.4,0.1,0.7,0.1,1c0,1-0.8,1.7-2.3,2c-1.4,0.3-3.2,0.4-5.5,0.4c-3.7,0-5.8-0.4-6.4-1.1
			c-0.5-0.6-0.7-2.2-0.7-4.9v-2c0-4,0.2-6.3,0.5-6.9c0.2-0.4,0.5-0.6,1-0.8c0.3-0.1,0.7-0.2,1.3-0.3c1-0.2,2.4-0.3,4-0.3
			c2.2,0,4.2,0.2,5.8,0.5c1.5,0.3,2.3,1,2.3,2c0,1.3-0.4,2-1.1,2c-0.3,0-0.7-0.1-1.2-0.1c-0.5-0.1-0.9-0.2-1.2-0.2
			c-0.9,0-1.4,0.1-1.6,0.2c-0.3,0.2-0.5,0.5-0.5,1.1c0,0.7,0.4,1.1,1.3,1.2c0.8,0.1,1.5,0.1,2.2,0.2c0.6,0,0.9,0.5,0.9,1.5
			c0,0.7-0.2,1.1-0.5,1.3c-0.2,0.1-0.8,0.2-1.6,0.2c-1,0-1.6,0.1-1.9,0.4c-0.2,0.2-0.3,0.5-0.3,0.9c0,0.5,0.2,0.9,0.5,1.1
			c0.2,0.1,0.8,0.2,1.6,0.2c0.5,0,1.3-0.1,2.4-0.3C97.9,49.8,98.2,50.1,98.4,50.9z"/>
		<path class="st1" d="M26.2,59h0.6c0.9,0,1.6,0.4,2.2,1.1l1.5,1.9c0.2,0.2,0.3,0.3,0.4,0.3c0.1,0,0.7-0.6,1.7-1.9
			c0.7-0.9,1.7-1.3,2.7-1.3h0.9c1.6,0,2.7,1.4,3.2,4.1c0.6,3.3,1.1,6.7,1.3,10.2c0.1,0.8-0.2,1.4-0.8,1.7c-0.5,0.3-1.1,0.4-2,0.4
			l-1.6,0c-1,0-1.7-0.2-2.1-0.5c-0.5-0.4-0.8-1-0.9-1.9c-0.3-2.3-0.5-3.4-0.6-3.4c-0.1,0-0.2,0.1-0.2,0.2c-0.2,0.3-0.7,0.9-1.5,1.9
			c-0.4,0.5-0.8,0.8-1.2,0.8c-0.4,0-0.8-0.3-1.1-0.7l-1.5-1.9c-0.1-0.1-0.1-0.1-0.2-0.1c-0.2,0-0.3,0.8-0.5,2.3
			c0,0.4-0.1,0.9-0.2,1.6s-0.3,1.2-0.7,1.4c-0.3,0.2-0.9,0.3-1.7,0.3c-0.8,0-1.3-0.3-1.6-0.7c-0.2-0.3-0.3-0.9-0.3-1.8
			c0.1-3.3,0.4-6.5,1-9.6C23.8,60.3,24.8,59,26.2,59z"/>
		<path class="st1" d="M50.6,58.8c1,0,1.9,0.3,2.7,1c0.6,0.6,1.6,2.2,2.8,4.8c1.9,3.9,3,6.8,3.2,8.7c0.1,1-0.1,1.4-1.1,1.7
			c-0.6,0.2-1.5,0.3-2.8,0.3c-2.5,0-3.8-0.3-4.1-1.1c-0.1-0.3-0.2-0.6-0.4-1.1c-0.2-0.4-0.5-0.6-0.9-0.6h-1.7c-0.3,0-0.7,0-1.3,0
			c-0.4,0-0.8,0.4-1,1.2c-0.3,1.1-0.6,1.4-1.7,1.5c-1.7,0.1-2.6-0.3-2.6-1.1c0-1,0.5-2.7,1.4-5.3c0.9-2.4,1.9-4.6,2.9-6.5
			c0.7-1.3,1.2-2.1,1.6-2.5c0.6-0.6,1.3-1,2.1-1L50.6,58.8z M47.2,69.4c-0.1,0.3,0.3,0.5,1.2,0.5s1.2-0.2,1.1-0.5
			c-0.6-1.6-1-2.3-1.2-2.3C48,67,47.7,67.8,47.2,69.4z"/>
		<path class="st1" d="M75.1,63.2c0.6,1.2,1,2.5,1,3.8c0,3.2-1.4,5.6-4.1,7c-1.5,0.8-3.3,1.2-5.3,1.2c-3.4,0-5.4-0.4-5.9-1
			c-0.3-0.4-0.4-2.8-0.4-7.1c0-4.3,0.2-6.7,0.4-7.3c0.4-0.7,2.3-1,5.9-1C70.7,58.9,73.6,60.4,75.1,63.2z M71.9,68.6
			c0.1-0.5,0.2-1,0.2-1.6c0-2-0.7-3.2-2.1-3.6c-0.2-0.1-0.4-0.1-0.6-0.1c-0.3,0-0.5,0.3-0.6,0.8c-0.1,0.7-0.2,1.7-0.2,2.9
			c0,1.2,0,2.2,0.1,3c0.1,0.3,0.1,0.4,0.2,0.5c0.1,0.2,0.2,0.2,0.4,0.3C70.6,70.9,71.5,70.1,71.9,68.6z"/>
		<path class="st1" d="M91.8,63.2c0.6,1.2,1,2.5,1,3.8c0,3.2-1.4,5.6-4.1,7c-1.5,0.8-3.3,1.2-5.3,1.2c-3.4,0-5.4-0.4-5.9-1
			c-0.3-0.4-0.4-2.8-0.4-7.1c0-4.3,0.2-6.7,0.4-7.3c0.4-0.7,2.3-1,5.9-1C87.4,58.9,90.2,60.4,91.8,63.2z M88.6,68.6
			c0.1-0.5,0.2-1,0.2-1.6c0-2-0.7-3.2-2.1-3.6c-0.2-0.1-0.4-0.1-0.6-0.1c-0.3,0-0.5,0.3-0.6,0.8c-0.1,0.7-0.2,1.7-0.2,2.9
			c0,1.2,0,2.2,0.1,3c0.1,0.3,0.1,0.4,0.2,0.5c0.1,0.2,0.2,0.2,0.4,0.3C87.3,70.9,88.2,70.1,88.6,68.6z"/>
		<path class="st1" d="M96.6,70.3c-0.1-1.1-0.2-1.8-0.4-2c-1-1.6-2-3.3-3-5c-0.8-1.4-1.2-2.4-1.2-3c0-0.8,1.1-1.2,3.2-1.2
			c0.5,0,1,0,1.3,0c0.8,0,1.4,0.1,1.8,0.3c0.5,0.2,1,0.6,1.4,1.2c0.7,1,1.4,1.9,2.1,2.9c0.1,0.1,0.3,0.2,0.4,0.2
			c0.1,0,0.2,0,0.3-0.1c0.4-0.4,0.8-1,1.2-1.8c0.7-1.4,1.1-2.1,1.2-2.2c0.2-0.2,0.6-0.3,1-0.3c1.9-0.1,2.9,0.2,2.9,0.8
			c0,1.1-0.8,2.9-2.3,5.5l-1.8,3c-0.1,0.2-0.2,0.8-0.2,1.7l0.1,2.3c0,1.1-0.3,1.9-0.9,2.3c-0.4,0.3-1.3,0.5-2.5,0.6
			c-0.2,0-0.4,0-0.7,0c-1.6-0.1-2.8-0.4-3.4-1c-0.3-0.2-0.4-0.8-0.4-1.8C96.6,72,96.6,71.3,96.6,70.3z"/>
		<path class="st1" d="M48.6,96.5c-2.8,0-4.9-0.7-6.5-2.1c-1.6-1.5-2.4-3.6-2.4-6.3c0-2.7,0.8-4.7,2.3-6.2s3.6-2.2,6.3-2.2
			c1.9,0,3.6,0.5,5.1,1.4c1.9,1.1,2.9,2.6,3.1,4.5c0.1,0.6-0.2,1.1-0.9,1.3C55.6,86.8,55,86.9,54,87c-0.8,0.1-1.2-0.2-1.4-0.9
			c-0.3-1.5-1-2.2-2.2-2c-0.9,0.1-1.4,1.1-1.5,2.8c0,0.5-0.1,0.9-0.1,1.1c0,2.6,0.6,3.9,1.8,3.9c1,0,1.7-0.5,1.9-1.5
			c0.2-0.9,0.7-1.4,1.5-1.4c0.8,0,1.4,0.1,1.8,0.2c0.6,0.2,1,0.7,1,1.3c0,0.2,0,0.4-0.1,0.6C55.2,94.8,52.6,96.5,48.6,96.5z"/>
		<path class="st1" d="M65.5,79.8c1,0,1.9,0.3,2.7,1c0.6,0.6,1.6,2.2,2.8,4.8c1.9,3.9,3,6.8,3.2,8.7c0.1,1-0.1,1.4-1.1,1.7
			c-0.6,0.2-1.5,0.3-2.8,0.3c-2.5,0-3.8-0.3-4.1-1.1c-0.1-0.3-0.2-0.6-0.4-1.1c-0.2-0.4-0.5-0.6-0.9-0.6h-1.7c-0.3,0-0.7,0-1.3,0
			c-0.4,0-0.8,0.4-1,1.2c-0.3,1.1-0.6,1.4-1.7,1.5c-1.7,0.1-2.6-0.3-2.6-1.1c0-1,0.5-2.7,1.4-5.3c0.9-2.4,1.9-4.6,2.9-6.5
			c0.7-1.3,1.2-2.1,1.6-2.5c0.6-0.6,1.3-1,2.1-1L65.5,79.8z M62,90.4c-0.1,0.3,0.3,0.5,1.2,0.5s1.2-0.2,1.1-0.5
			c-0.6-1.6-1-2.3-1.2-2.3C62.9,88,62.5,88.8,62,90.4z"/>
		<path class="st1" d="M88.4,95.5c-1.3,0.6-3.5,0.8-6.6,0.8c-0.6,0-1.6-0.1-2.8-0.2c-1.8-0.2-2.8-0.4-3.2-0.8
			c-0.4-0.5-0.7-2.8-0.7-7.2c0-4.3,0.2-6.8,0.7-7.2c0.3-0.3,0.9-0.6,1.9-0.7c1.3-0.2,2.7-0.3,4.1-0.3c3.9,0,6.5,0.6,7.8,1.8
			c0.8,0.8,1.2,1.9,1.2,3.3c0,1.3-0.6,2.3-1.7,3.1c1.4,0.9,2,2.1,2,3.5C91.2,93.4,90.3,94.7,88.4,95.5z M83.7,84.1
			c-0.4,0.2-0.6,0.6-0.6,1.1c0,0.6,0.2,1,0.6,1.2c0.2,0.1,0.7,0.2,1.4,0.2c1.3,0,2-0.5,2-1.4c0-0.9-0.7-1.3-2-1.3
			C84.4,83.9,83.9,84,83.7,84.1z M83.9,92.4c0.3,0.1,0.8,0.2,1.5,0.2c1.2,0,1.8-0.5,1.8-1.5c0-0.9-0.6-1.3-1.9-1.4
			c-0.7,0-1.2,0-1.5,0.2c-0.4,0.2-0.6,0.7-0.6,1.3C83.3,91.8,83.5,92.2,83.9,92.4z"/>
	</g>
</g>
<g>
</g>
<g>
</g>
<g>
</g>
<g>
</g>
<g>
</g>
<g>
</g>
</svg>
