<svg xmlns="http://www.w3.org/2000/svg" viewBox="0 0 115.14 131.8"><title>share_icon</title><path d="M95.84,0c1,.24,2.09.45,3.12.72,9.79,2.59,16.67,11.81,16.15,21.64C114.55,33,107,41.61,96.55,43.05a21.14,21.14,0,0,1-17.94-5.7l-1-1-.25-.1-35.48,22a22,22,0,0,1,0,15.71L77.39,96c.73-.66,1.44-1.34,2.19-2a21.63,21.63,0,1,1,17,38,4.68,4.68,0,0,0-.72.24H91.19a53,53,0,0,1-6.74-2.05,21.41,21.41,0,0,1-11.6-26,1.57,1.57,0,0,0-.81-2.23Q55.27,91.63,38.58,81.23l-.88-.5c-5.34,5.42-11.79,7.89-19.39,6.76A20.75,20.75,0,0,1,4.88,79.75,21.52,21.52,0,0,1,6.71,50.49c7.91-7.66,21.63-8.69,31,1l4.33-2.68Q57.22,39.46,72.36,30.1A1.15,1.15,0,0,0,73,28.46c-4.17-13.11,4-26.1,17.64-28.25a3.29,3.29,0,0,0,.6-.21ZM93.45,124.31a13.73,13.73,0,1,0-13.7-13.81A13.71,13.71,0,0,0,93.45,124.31Zm0-116.39a13.73,13.73,0,1,0,13.77,13.76A13.69,13.69,0,0,0,93.44,7.92ZM21.67,52.39A13.73,13.73,0,1,0,35.4,66.18,13.7,13.7,0,0,0,21.67,52.39Z" style="fill:#9696db"/></svg>