<svg xmlns="http://www.w3.org/2000/svg" viewBox="0 0 220.39 222.37"><title>taxi_icon</title><path d="M201,187.32c0,6.4.08,12.35,0,18.3-.18,10.77-5.93,16.52-16.67,16.68-5.8.09-11.62.1-17.43,0-10.27-.18-16.33-6.13-16.61-16.42-.16-6.1,0-12.2,0-18.6H70.08c0,5.5,0,10.92,0,16.33,0,13.13-5.64,18.68-18.86,18.71-5.31,0-10.63.09-15.94,0-9.8-.23-15.65-6-15.92-15.91-.17-6.27,0-12.55,0-19.13-2.66-.15-4.79-.18-6.9-.4-7-.71-12.12-5.16-12.21-12.11C0,159-.36,143.16.93,127.49c1-11.93,8.4-20.73,19.33-25.94a8.39,8.39,0,0,0,5-6.09c4.35-16.82,8.87-33.6,13.31-50.4,3.6-13.61,10.47-18.91,24.64-18.93h18c0-3.16-.12-5.77,0-8.37A18.37,18.37,0,0,1,99.74.06c6.47-.1,13,0,19.42,0,12.24.06,19.75,7.47,20.05,19.77,0,1.8,0,3.61,0,6.29h16.46c16.79,0,22.82,4.69,27,21s8.42,32.7,12.82,49a8,8,0,0,0,3.55,4.68c14.67,7.31,21.19,19.4,21.26,35.38q.09,17.43,0,34.87c0,11-4.6,15.54-15.68,15.95C203.7,187,202.73,187.15,201,187.32ZM15.55,171.22H204.81c0-13.91,0-27.49,0-41.06a7.45,7.45,0,0,0-.46-1.92c-2.81-10.07-10.54-15.38-22.72-15.39q-47.06-.06-94.1,0a43.81,43.81,0,0,1-6-.22c-4.25-.58-6.68-3.76-6.33-8,.37-4.56,3.56-6.88,9.75-6.88q44.81,0,89.61,0h5.58c-4.39-16.82-8.54-32.82-12.73-48.8-1.83-7-2.37-7.38-9.54-7.38q-44.8,0-89.61,0c-14.59,0-12.68-1.08-16.4,12.7C48,68.54,44.23,82.9,40.28,97.71c3.69,0,6.83,0,10,0,6.07.08,9.72,3,9.7,7.64s-3.48,7.32-9.78,7.49c-6.13.16-12.31,0-18.36.72-8.25,1-15.8,8.49-16.12,16.62C15.17,143.74,15.55,157.32,15.55,171.22ZM54.29,207V187.31H34.67V207Zm111.38-.08h20V187.25H166c-.11,1.38-.28,2.49-.28,3.61C165.66,196.12,165.67,201.39,165.67,206.94ZM124,25.89c.07-1.53.15-2.66.16-3.79.06-6.39-.66-7.11-7.15-7.13-5.14,0-10.28,0-15.42,0-3.66,0-5.62,1.54-5.43,5.39.09,1.76,0,3.54,0,5.54Z" transform="translate(0 0)" style="fill:#f7f7f7"/><path d="M44.39,140.76a8,8,0,0,1,8,7.83A7.69,7.69,0,0,1,45,156.42,7.93,7.93,0,0,1,36.68,149C36.46,145,40.26,140.9,44.39,140.76Z" transform="translate(0 0)" style="fill:#f7f7f7"/><path d="M175.63,140.74a8.42,8.42,0,0,1,8.05,7.93,7.94,7.94,0,0,1-7.55,7.75,7.67,7.67,0,0,1-8.15-7.5A8,8,0,0,1,175.63,140.74Z" transform="translate(0 0)" style="fill:#f7f7f7"/></svg>